<?xml version="1.0" encoding="UTF-8" standalone="no"?>
<!-- Created with Inkscape (http://www.inkscape.org/) -->
<svg
   xmlns:dc="http://purl.org/dc/elements/1.1/"
   xmlns:cc="http://creativecommons.org/ns#"
   xmlns:rdf="http://www.w3.org/1999/02/22-rdf-syntax-ns#"
   xmlns:svg="http://www.w3.org/2000/svg"
   xmlns="http://www.w3.org/2000/svg"
   xmlns:sodipodi="http://sodipodi.sourceforge.net/DTD/sodipodi-0.dtd"
   xmlns:inkscape="http://www.inkscape.org/namespaces/inkscape"
   version="1.0"
   width="170.02298"
   height="105.69199"
   id="svg2"
   sodipodi:version="0.32"
   inkscape:version="0.46"
   sodipodi:docname="APP-6 Transport Helicopter.svg"
   sodipodi:docbase="/home/mandibula/Desktop/imágenes/wiki/app-6a"
   inkscape:output_extension="org.inkscape.output.svg.inkscape">
  <metadata
     id="metadata2913">
    <rdf:RDF>
      <cc:Work
         rdf:about="">
        <dc:format>image/svg+xml</dc:format>
        <dc:type
           rdf:resource="http://purl.org/dc/dcmitype/StillImage" />
      </cc:Work>
    </rdf:RDF>
  </metadata>
  <sodipodi:namedview
     inkscape:window-height="975"
     inkscape:window-width="1280"
     inkscape:pageshadow="2"
     inkscape:pageopacity="0.0"
     guidetolerance="10.0"
     gridtolerance="10.0"
     objecttolerance="10.0"
     borderopacity="1.0"
     bordercolor="#666666"
     pagecolor="#ffffff"
     id="base"
     showguides="false"
     inkscape:guide-bbox="true"
     inkscape:zoom="6.9637648"
     inkscape:cx="85.011487"
     inkscape:cy="52.845999"
     inkscape:window-x="-4"
     inkscape:window-y="-4"
     inkscape:current-layer="layer1"
     width="180px"
     height="130px"
     borderlayer="true"
     showgrid="true"
     inkscape:grid-points="false"
     inkscape:grid-bbox="false"
     inkscape:showpageshadow="false">
    <inkscape:grid
       type="xygrid"
       id="grid3166"
       visible="true"
       enabled="true" />
  </sodipodi:namedview>
  <defs
     id="defs4">
    <inkscape:perspective
       sodipodi:type="inkscape:persp3d"
       inkscape:vp_x="0 : 52.849651 : 1"
       inkscape:vp_y="0 : 1000 : 0"
       inkscape:vp_z="169.97537 : 52.849651 : 1"
       inkscape:persp3d-origin="84.987686 : 35.233101 : 1"
       id="perspective11" />
    <inkscape:perspective
       id="perspective2444"
       inkscape:persp3d-origin="84.987686 : 35.233101 : 1"
       inkscape:vp_z="169.97537 : 52.849651 : 1"
       inkscape:vp_y="0 : 1000 : 0"
       inkscape:vp_x="0 : 52.849651 : 1"
       sodipodi:type="inkscape:persp3d" />
  </defs>
  <g
     id="layer1"
     transform="matrix(2.386666,0,0,2.579998,-1.0891261,-0.9238116)">
    <rect
       style="opacity:1;fill:#ffffff;fill-opacity:1;fill-rule:nonzero;stroke:#000000;stroke-width:1.20897067;stroke-linecap:round;stroke-linejoin:miter;stroke-miterlimit:4;stroke-dasharray:none;stroke-dashoffset:0;stroke-opacity:1"
       id="rect3320"
       width="69.981712"
       height="39.803127"
       x="1.0848297"
       y="0.9394626" />
    <path
       style="fill:#000000;fill-rule:evenodd;stroke:#000000;stroke-width:0;stroke-linecap:butt;stroke-linejoin:miter;stroke-opacity:1;fill-opacity:1;stroke-miterlimit:4;stroke-dasharray:none"
       d="M 40.000003,35.691994 L 40.000003,70.691994 L 130.00001,35.691994 L 130.00001,70.691994 L 40.000003,35.691994 z"
       id="path3153"
       transform="matrix(0.4189945,0,0,0.3875972,0.4563379,0.3580668)"
       sodipodi:nodetypes="ccccc" />
    <text
       xml:space="preserve"
       style="font-size:3.62691164px;font-style:normal;font-variant:normal;font-weight:normal;font-stretch:normal;text-align:start;line-height:100%;writing-mode:lr-tb;text-anchor:start;fill:#000000;fill-opacity:1;stroke:none;stroke-width:1px;stroke-linecap:butt;stroke-linejoin:miter;stroke-opacity:1;font-family:MS Gothic;-inkscape-font-specification:MS Gothic"
       x="27.765806"
       y="17.801939"
       id="text2383"
       sodipodi:linespacing="100%"
       transform="scale(1.0397139,0.9618031)"><tspan
         sodipodi:role="line"
         id="tspan2385"
         x="27.765806"
         y="17.801939"
         style="font-size:49.629;font-style:normal;font-variant:normal;font-weight:normal;font-stretch:normal;text-align:start;line-height:100%;writing-mode:lr-tb;text-anchor:start;font-family:Arial;-inkscape-font-specification:Arial" /></text>
    <path
       transform="scale(1.0397139,0.9618031)"
       style="font-size:3.62691164px;font-style:normal;font-variant:normal;font-weight:normal;font-stretch:normal;text-align:start;line-height:100%;writing-mode:lr-tb;text-anchor:start;fill:#000000;fill-opacity:1;stroke:none;stroke-width:1px;stroke-linecap:butt;stroke-linejoin:miter;stroke-opacity:1;font-family:MS Gothic;-inkscape-font-specification:MS Gothic"
       d="M 39.009493,12.72197 L 40.841838,13.184779 C 40.457726,14.689698 39.766661,15.837275 38.768643,16.627511 C 37.770602,17.41775 36.550614,17.812869 35.108673,17.812869 C 33.616344,17.812869 32.402653,17.509052 31.467594,16.901419 C 30.532528,16.293786 29.820999,15.41382 29.333006,14.261518 C 28.845008,13.109223 28.601011,11.871918 28.601012,10.549601 C 28.601011,9.1076601 28.876492,7.8498912 29.427456,6.7762905 C 29.978417,5.7027113 30.762358,4.8872867 31.779282,4.3300141 C 32.796197,3.7727681 33.915438,3.4941384 35.137009,3.4941243 C 36.522279,3.4941384 37.687171,3.8467545 38.631689,4.5519735 C 39.576186,5.2572187 40.234192,6.2489513 40.605711,7.5271745 L 38.801701,7.9522032 C 38.480557,6.9447384 38.0146,6.2111711 37.403828,5.751499 C 36.793037,5.2918506 36.024838,5.0620205 35.099228,5.062008 C 34.035076,5.0620205 33.145665,5.3170375 32.430993,5.8270597 C 31.716311,6.3371054 31.214148,7.0218731 30.924502,7.8813651 C 30.63485,8.7408764 30.490025,9.6271391 30.490028,10.540156 C 30.490025,11.717649 30.661611,12.745587 31.004785,13.623975 C 31.347953,14.502371 31.881599,15.158803 32.605727,15.593275 C 33.329844,16.02775 34.113785,16.244987 34.957552,16.244986 C 35.983909,16.244987 36.852856,15.949041 37.564395,15.357148 C 38.275914,14.765259 38.757613,13.886867 39.009493,12.72197 L 39.009493,12.72197 z"
       id="text2387" />
    <path
       transform="scale(1.0397139,0.9618031)"
       style="font-size:3.62691164px;font-style:normal;font-variant:normal;font-weight:normal;font-stretch:normal;text-align:start;line-height:100%;writing-mode:lr-tb;text-anchor:start;fill:#000000;fill-opacity:1;stroke:none;stroke-width:1px;stroke-linecap:butt;stroke-linejoin:miter;stroke-opacity:1;font-family:MS Gothic;-inkscape-font-specification:MS Gothic"
       d="M 28.068925,39.741203 L 28.068925,25.894713 L 30.826889,25.894713 L 34.104332,35.698708 C 34.406567,36.611736 34.626952,37.294929 34.765488,37.748291 C 34.922898,37.244556 35.16847,36.504692 35.502205,35.528697 L 38.817428,25.894713 L 41.282595,25.894713 L 41.282595,39.741203 L 39.516365,39.741203 L 39.516365,28.152087 L 35.492759,39.741203 L 33.83987,39.741203 L 29.835155,27.95374 L 29.835155,39.741203 L 28.068925,39.741203 z"
       id="text2391" />
  </g>
</svg>
