<?xml version="1.0" encoding="UTF-8" standalone="no"?>
<!-- Created with Inkscape (http://www.inkscape.org/) -->
<svg
   xmlns:dc="http://purl.org/dc/elements/1.1/"
   xmlns:cc="http://creativecommons.org/ns#"
   xmlns:rdf="http://www.w3.org/1999/02/22-rdf-syntax-ns#"
   xmlns:svg="http://www.w3.org/2000/svg"
   xmlns="http://www.w3.org/2000/svg"
   xmlns:sodipodi="http://sodipodi.sourceforge.net/DTD/sodipodi-0.dtd"
   xmlns:inkscape="http://www.inkscape.org/namespaces/inkscape"
   version="1.0"
   width="170.02298"
   height="105.69199"
   id="svg2"
   sodipodi:version="0.32"
   inkscape:version="0.46"
   sodipodi:docname="APP-6 MP.svg"
   sodipodi:docbase="/home/mandibula/Desktop/imágenes/wiki/app-6a"
   inkscape:output_extension="org.inkscape.output.svg.inkscape">
  <metadata
     id="metadata2913">
    <rdf:RDF>
      <cc:Work
         rdf:about="">
        <dc:format>image/svg+xml</dc:format>
        <dc:type
           rdf:resource="http://purl.org/dc/dcmitype/StillImage" />
      </cc:Work>
    </rdf:RDF>
  </metadata>
  <sodipodi:namedview
     inkscape:window-height="975"
     inkscape:window-width="1280"
     inkscape:pageshadow="2"
     inkscape:pageopacity="0.0"
     guidetolerance="10.0"
     gridtolerance="10.0"
     objecttolerance="10.0"
     borderopacity="1.0"
     bordercolor="#666666"
     pagecolor="#ffffff"
     id="base"
     showguides="false"
     inkscape:guide-bbox="true"
     inkscape:zoom="6.9637648"
     inkscape:cx="85.011487"
     inkscape:cy="52.845999"
     inkscape:window-x="0"
     inkscape:window-y="22"
     inkscape:current-layer="layer1"
     width="180px"
     height="130px"
     borderlayer="true"
     showgrid="false"
     inkscape:grid-points="false"
     inkscape:grid-bbox="false"
     inkscape:showpageshadow="false">
    <inkscape:grid
       type="xygrid"
       id="grid3166"
       visible="true"
       enabled="true" />
  </sodipodi:namedview>
  <defs
     id="defs4">
    <inkscape:perspective
       sodipodi:type="inkscape:persp3d"
       inkscape:vp_x="0 : 52.849651 : 1"
       inkscape:vp_y="0 : 1000 : 0"
       inkscape:vp_z="169.97537 : 52.849651 : 1"
       inkscape:persp3d-origin="84.987686 : 35.233101 : 1"
       id="perspective11" />
    <inkscape:perspective
       id="perspective3218"
       inkscape:persp3d-origin="84.987686 : 35.233101 : 1"
       inkscape:vp_z="169.97537 : 52.849651 : 1"
       inkscape:vp_y="0 : 1000 : 0"
       inkscape:vp_x="0 : 52.849651 : 1"
       sodipodi:type="inkscape:persp3d" />
  </defs>
  <g
     id="layer1"
     transform="matrix(2.386666,0,0,2.579998,-1.0891261,-0.9238116)">
    <rect
       style="opacity:1;fill:#ffffff;fill-opacity:1;fill-rule:nonzero;stroke:#000000;stroke-width:1.20897067000000000;stroke-linecap:round;stroke-linejoin:miter;stroke-miterlimit:4;stroke-dasharray:none;stroke-dashoffset:0;stroke-opacity:1"
       id="rect3320"
       width="69.981712"
       height="39.803127"
       x="1.0848297"
       y="0.9394626" />
    <path
       transform="scale(1.0397139,0.9618031)"
       style="font-size:3.62691164px;font-style:normal;font-variant:normal;font-weight:normal;font-stretch:normal;text-align:start;line-height:100%;writing-mode:lr-tb;text-anchor:start;fill:#000000;fill-opacity:1;stroke:none;stroke-width:1px;stroke-linecap:butt;stroke-linejoin:miter;stroke-opacity:1;font-family:MS Gothic;-inkscape-font-specification:MS Gothic"
       d="M 22.095204,28.546749 L 22.095204,14.700258 L 24.853168,14.700258 L 28.130612,24.504254 C 28.432847,25.417282 28.653232,26.100475 28.791768,26.553837 C 28.949177,26.050101 29.194749,25.310237 29.528484,24.334242 L 32.843708,14.700258 L 35.308874,14.700258 L 35.308874,28.546749 L 33.542644,28.546749 L 33.542644,16.957633 L 29.519039,28.546749 L 27.866149,28.546749 L 23.861435,16.759286 L 23.861435,28.546749 L 22.095204,28.546749 z M 38.284075,28.546749 L 38.284075,14.700258 L 43.507205,14.700258 C 44.426519,14.700272 45.128603,14.744349 45.613459,14.832489 C 46.293495,14.945844 46.863348,15.161507 47.323019,15.479478 C 47.782668,15.797475 48.1526,16.242967 48.432816,16.815957 C 48.713008,17.38897 48.85311,18.018641 48.853122,18.704973 C 48.85311,19.882469 48.478455,20.878924 47.729157,21.694342 C 46.979837,22.509773 45.626043,22.917486 43.667772,22.91748 L 40.116421,22.91748 L 40.116421,28.546749 L 38.284075,28.546749 z M 40.116421,21.283481 L 43.696107,21.283481 C 44.879883,21.283488 45.720494,21.063103 46.217944,20.622325 C 46.715375,20.181563 46.964095,19.561336 46.964106,18.761644 C 46.964095,18.182356 46.817697,17.686489 46.524909,17.274043 C 46.232102,16.86162 45.846428,16.589287 45.367887,16.457044 C 45.059339,16.375198 44.489486,16.33427 43.658327,16.334258 L 40.116421,16.334258 L 40.116421,21.283481 z"
       id="text2383" />
  </g>
</svg>
