<?xml version="1.0" encoding="UTF-8" standalone="no"?>
<!-- Created with Inkscape (http://www.inkscape.org/) -->
<svg
   xmlns:dc="http://purl.org/dc/elements/1.1/"
   xmlns:cc="http://creativecommons.org/ns#"
   xmlns:rdf="http://www.w3.org/1999/02/22-rdf-syntax-ns#"
   xmlns:svg="http://www.w3.org/2000/svg"
   xmlns="http://www.w3.org/2000/svg"
   xmlns:sodipodi="http://sodipodi.sourceforge.net/DTD/sodipodi-0.dtd"
   xmlns:inkscape="http://www.inkscape.org/namespaces/inkscape"
   version="1.0"
   width="170.02298"
   height="105.69199"
   id="svg2"
   sodipodi:version="0.32"
   inkscape:version="0.46"
   sodipodi:docname="APP-6 Special Operations Forces.svg"
   sodipodi:docbase="/home/mandibula/Desktop/imágenes/wiki/app-6a"
   inkscape:output_extension="org.inkscape.output.svg.inkscape">
  <metadata
     id="metadata2913">
    <rdf:RDF>
      <cc:Work
         rdf:about="">
        <dc:format>image/svg+xml</dc:format>
        <dc:type
           rdf:resource="http://purl.org/dc/dcmitype/StillImage" />
      </cc:Work>
    </rdf:RDF>
  </metadata>
  <sodipodi:namedview
     inkscape:window-height="975"
     inkscape:window-width="1280"
     inkscape:pageshadow="2"
     inkscape:pageopacity="0.0"
     guidetolerance="10.0"
     gridtolerance="10.0"
     objecttolerance="10.0"
     borderopacity="1.0"
     bordercolor="#666666"
     pagecolor="#ffffff"
     id="base"
     showguides="false"
     inkscape:guide-bbox="true"
     inkscape:zoom="5.0287322"
     inkscape:cx="85.011487"
     inkscape:cy="52.845999"
     inkscape:window-x="-4"
     inkscape:window-y="-4"
     inkscape:current-layer="layer1"
     width="180px"
     height="130px"
     borderlayer="true"
     showgrid="true"
     inkscape:grid-points="false"
     inkscape:grid-bbox="false"
     inkscape:showpageshadow="false">
    <inkscape:grid
       type="xygrid"
       id="grid3166"
       visible="true"
       enabled="true" />
  </sodipodi:namedview>
  <defs
     id="defs4">
    <inkscape:perspective
       sodipodi:type="inkscape:persp3d"
       inkscape:vp_x="0 : 52.849651 : 1"
       inkscape:vp_y="0 : 1000 : 0"
       inkscape:vp_z="169.97537 : 52.849651 : 1"
       inkscape:persp3d-origin="84.987686 : 35.233101 : 1"
       id="perspective11" />
  </defs>
  <g
     id="layer1"
     transform="matrix(2.386666,0,0,2.579998,-1.0891261,-0.9238116)">
    <rect
       style="opacity:1;fill:#ffffff;fill-opacity:1;fill-rule:nonzero;stroke:#000000;stroke-width:1.20897067;stroke-linecap:round;stroke-linejoin:miter;stroke-miterlimit:4;stroke-dasharray:none;stroke-dashoffset:0;stroke-opacity:1"
       id="rect3320"
       width="69.981712"
       height="39.803127"
       x="1.0848297"
       y="0.9394626" />
    <rect
       style="opacity:1;fill:none;fill-opacity:1;fill-rule:nonzero;stroke:#000000;stroke-width:1.3769294;stroke-linecap:butt;stroke-linejoin:miter;stroke-miterlimit:4;stroke-dasharray:none;stroke-dashoffset:0;stroke-opacity:1"
       id="rect3200"
       width="43.886528"
       height="17.280331"
       x="13.844457"
       y="11.679382" />
    <path
       transform="scale(1.0397139,0.9618031)"
       style="font-size:3.62691164px;font-style:normal;font-variant:normal;font-weight:normal;font-stretch:normal;text-align:start;line-height:100%;writing-mode:lr-tb;text-anchor:start;fill:#000000;fill-opacity:1;stroke:none;stroke-width:1px;stroke-linecap:butt;stroke-linejoin:miter;stroke-opacity:1;font-family:MS Gothic;-inkscape-font-specification:MS Gothic"
       d="M 15.412512,23.605855 L 17.140962,23.454734 C 17.222817,24.147377 17.413293,24.715656 17.71239,25.159571 C 18.011481,25.603493 18.475864,25.962405 19.10554,26.236311 C 19.735207,26.51022 20.443587,26.647173 21.230683,26.647172 C 21.929612,26.647173 22.54669,26.543277 23.081919,26.335484 C 23.617132,26.127694 24.015399,25.842768 24.276722,25.480704 C 24.538026,25.118646 24.668683,24.723527 24.668693,24.295346 C 24.668683,23.860877 24.542749,23.4815 24.29089,23.157214 C 24.039011,22.832938 23.623428,22.560605 23.044139,22.340214 C 22.672624,22.195396 21.850903,21.970288 20.578972,21.664891 C 19.30703,21.359507 18.416045,21.071432 17.906014,20.800666 C 17.244856,20.454354 16.752138,20.024603 16.427859,19.511412 C 16.103576,18.998238 15.941436,18.423663 15.941437,17.787685 C 15.941436,17.088759 16.139782,16.435475 16.536477,15.82783 C 16.933168,15.220209 17.512466,14.758975 18.274372,14.444125 C 19.036271,14.129303 19.883179,13.971885 20.8151,13.971871 C 21.841458,13.971885 22.746611,14.137174 23.530561,14.467738 C 24.314493,14.798329 24.917403,15.284751 25.339294,15.927003 C 25.761163,16.56928 25.987845,17.296551 26.01934,18.108817 L 24.262555,18.241049 C 24.168094,17.365815 23.848536,16.70466 23.303879,16.257581 C 22.759204,15.810526 21.954799,15.586993 20.89066,15.58698 C 19.782432,15.586993 18.974878,15.790062 18.467997,16.196188 C 17.961107,16.602338 17.707664,17.091908 17.707667,17.664898 C 17.707664,18.162349 17.887121,18.571636 18.246037,18.892759 C 18.598649,19.213901 19.519544,19.542904 21.008724,19.87977 C 22.49789,20.216653 23.519532,20.511024 24.073653,20.762886 C 24.879623,21.134399 25.474663,21.605078 25.858774,22.174925 C 26.242862,22.744784 26.434912,23.401217 26.434924,24.144225 C 26.434912,24.880945 26.223972,25.575157 25.802103,26.226866 C 25.380212,26.878578 24.774153,27.385463 23.983925,27.747524 C 23.193677,28.109585 22.304266,28.290616 21.315689,28.290616 C 20.062636,28.290616 19.012658,28.108011 18.165754,27.742801 C 17.318842,27.377592 16.654539,26.828204 16.172842,26.094635 C 15.691141,25.361069 15.437698,24.531477 15.412512,23.605855 L 15.412512,23.605855 z M 28.399501,21.3107 C 28.3995,19.012406 29.016578,17.21312 30.250737,15.912836 C 31.48489,14.612576 33.077959,13.96244 35.029948,13.962426 C 36.308174,13.96244 37.460473,14.267831 38.486849,14.878599 C 39.513202,15.489394 40.295569,16.341024 40.833952,17.433494 C 41.372307,18.525985 41.641492,19.764863 41.641506,21.150134 C 41.641492,22.554308 41.35814,23.810503 40.791449,24.918722 C 40.224731,26.026947 39.4219,26.865984 38.382953,27.435836 C 37.343984,28.00569 36.223168,28.290616 35.020503,28.290616 C 33.717076,28.290616 32.552183,27.97578 31.525823,27.346108 C 30.499454,26.716437 29.72181,25.856935 29.192888,24.7676 C 28.663962,23.678272 28.3995,22.525973 28.399501,21.3107 L 28.399501,21.3107 z M 30.288517,21.339036 C 30.288514,23.007672 30.737155,24.322111 31.634441,25.282357 C 32.531719,26.242609 33.657257,26.722734 35.011058,26.722733 C 36.390031,26.722734 37.525014,26.237887 38.416011,25.26819 C 39.306985,24.298498 39.752477,22.922666 39.75249,21.140689 C 39.752477,20.013584 39.562002,19.029722 39.181062,18.189101 C 38.800099,17.348499 38.24284,16.696789 37.509283,16.233969 C 36.775705,15.771172 35.95241,15.539767 35.039394,15.539755 C 33.742263,15.539767 32.62617,15.98526 31.691112,16.876234 C 30.756045,17.767231 30.288514,19.25483 30.288517,21.339036 L 30.288517,21.339036 z M 44.087782,28.054489 L 44.087782,14.207998 L 53.428968,14.207998 L 53.428968,15.841998 L 45.920128,15.841998 L 45.920128,20.130065 L 52.418345,20.130065 L 52.418345,21.764064 L 45.920128,21.764064 L 45.920128,28.054489 L 44.087782,28.054489 z"
       id="text3223" />
  </g>
</svg>
