<?xml version="1.0" encoding="UTF-8" standalone="no"?>
<!-- Created with Inkscape (http://www.inkscape.org/) -->
<svg
   xmlns:dc="http://purl.org/dc/elements/1.1/"
   xmlns:cc="http://creativecommons.org/ns#"
   xmlns:rdf="http://www.w3.org/1999/02/22-rdf-syntax-ns#"
   xmlns:svg="http://www.w3.org/2000/svg"
   xmlns="http://www.w3.org/2000/svg"
   xmlns:sodipodi="http://sodipodi.sourceforge.net/DTD/sodipodi-0.dtd"
   xmlns:inkscape="http://www.inkscape.org/namespaces/inkscape"
   version="1.0"
   width="170.02298"
   height="105.69199"
   id="svg2"
   sodipodi:version="0.32"
   inkscape:version="0.46"
   sodipodi:docname="APP-6 Special Forces.svg"
   sodipodi:docbase="/home/mandibula/Desktop/imágenes/wiki/app-6a"
   inkscape:output_extension="org.inkscape.output.svg.inkscape">
  <metadata
     id="metadata2913">
    <rdf:RDF>
      <cc:Work
         rdf:about="">
        <dc:format>image/svg+xml</dc:format>
        <dc:type
           rdf:resource="http://purl.org/dc/dcmitype/StillImage" />
      </cc:Work>
    </rdf:RDF>
  </metadata>
  <sodipodi:namedview
     inkscape:window-height="975"
     inkscape:window-width="1280"
     inkscape:pageshadow="2"
     inkscape:pageopacity="0.0"
     guidetolerance="10.0"
     gridtolerance="10.0"
     objecttolerance="10.0"
     borderopacity="1.0"
     bordercolor="#666666"
     pagecolor="#ffffff"
     id="base"
     showguides="false"
     inkscape:guide-bbox="true"
     inkscape:zoom="5.0287322"
     inkscape:cx="85.011487"
     inkscape:cy="52.845999"
     inkscape:window-x="-4"
     inkscape:window-y="-4"
     inkscape:current-layer="layer1"
     width="180px"
     height="130px"
     borderlayer="true"
     showgrid="true"
     inkscape:grid-points="false"
     inkscape:grid-bbox="false"
     inkscape:showpageshadow="false">
    <inkscape:grid
       type="xygrid"
       id="grid3166"
       visible="true"
       enabled="true" />
  </sodipodi:namedview>
  <defs
     id="defs4">
    <inkscape:perspective
       sodipodi:type="inkscape:persp3d"
       inkscape:vp_x="0 : 52.849651 : 1"
       inkscape:vp_y="0 : 1000 : 0"
       inkscape:vp_z="169.97537 : 52.849651 : 1"
       inkscape:persp3d-origin="84.987686 : 35.233101 : 1"
       id="perspective11" />
  </defs>
  <g
     id="layer1"
     transform="matrix(2.386666,0,0,2.579998,-1.0891261,-0.9238116)">
    <rect
       style="opacity:1;fill:#ffffff;fill-opacity:1;fill-rule:nonzero;stroke:#000000;stroke-width:1.20897067;stroke-linecap:round;stroke-linejoin:miter;stroke-miterlimit:4;stroke-dasharray:none;stroke-dashoffset:0;stroke-opacity:1"
       id="rect3320"
       width="69.981712"
       height="39.803127"
       x="1.0848297"
       y="0.9394626" />
    <path
       transform="scale(1.0397139,0.9618031)"
       style="font-size:3.62691164px;font-style:normal;font-variant:normal;font-weight:normal;font-stretch:normal;text-align:start;line-height:100%;writing-mode:lr-tb;text-anchor:start;fill:#000000;fill-opacity:1;stroke:none;stroke-width:1px;stroke-linecap:butt;stroke-linejoin:miter;stroke-opacity:1;font-family:MS Gothic;-inkscape-font-specification:MS Gothic"
       d="M 23.20313,24.28275 L 24.93158,24.131629 C 25.013435,24.824272 25.203911,25.392551 25.503008,25.836467 C 25.802099,26.280388 26.266481,26.639301 26.896158,26.913206 C 27.525825,27.187115 28.234205,27.324068 29.021301,27.324067 C 29.72023,27.324068 30.337308,27.220173 30.872537,27.012379 C 31.407749,26.804589 31.806017,26.519663 32.06734,26.157599 C 32.328644,25.795541 32.459301,25.400422 32.459311,24.972241 C 32.459301,24.537772 32.333367,24.158395 32.081508,23.834109 C 31.829629,23.509833 31.414046,23.2375 30.834757,23.017109 C 30.463242,22.872291 29.641521,22.647183 28.36959,22.341786 C 27.097648,22.036402 26.206663,21.748327 25.696632,21.477561 C 25.035474,21.131249 24.542756,20.701498 24.218477,20.188307 C 23.894194,19.675133 23.732054,19.100558 23.732055,18.46458 C 23.732054,17.765655 23.9304,17.11237 24.327095,16.504725 C 24.723786,15.897104 25.303084,15.43587 26.06499,15.121021 C 26.826889,14.806198 27.673797,14.648781 28.605717,14.648766 C 29.632076,14.648781 30.537229,14.814069 31.321179,15.144633 C 32.105111,15.475224 32.708021,15.961646 33.129912,16.603898 C 33.551781,17.246176 33.778463,17.973446 33.809958,18.785713 L 32.053173,18.917944 C 31.958712,18.04271 31.639154,17.381555 31.094497,16.934476 C 30.549822,16.487421 29.745417,16.263888 28.681278,16.263876 C 27.57305,16.263888 26.765496,16.466957 26.258614,16.873083 C 25.751725,17.279233 25.498282,17.768803 25.498285,18.341794 C 25.498282,18.839245 25.677739,19.248531 26.036655,19.569654 C 26.389267,19.890796 27.310162,20.219799 28.799342,20.556665 C 30.288508,20.893548 31.31015,21.187919 31.864271,21.439781 C 32.670241,21.811294 33.265281,22.281974 33.649391,22.85182 C 34.03348,23.421679 34.22553,24.078112 34.225541,24.82112 C 34.22553,25.55784 34.01459,26.252053 33.592721,26.903761 C 33.17083,27.555473 32.564771,28.062358 31.774543,28.424419 C 30.984295,28.786481 30.094884,28.967511 29.106307,28.967511 C 27.853254,28.967511 26.803276,28.784906 25.956372,28.419697 C 25.10946,28.054487 24.445157,27.505099 23.963459,26.77153 C 23.481759,26.037964 23.228316,25.208372 23.20313,24.28275 L 23.20313,24.28275 z M 36.841829,28.731384 L 36.841829,14.884893 L 46.183016,14.884893 L 46.183016,16.518893 L 38.674175,16.518893 L 38.674175,20.80696 L 45.172392,20.80696 L 45.172392,22.440959 L 38.674175,22.440959 L 38.674175,28.731384 L 36.841829,28.731384 z"
       id="text3196" />
    <rect
       style="opacity:1;fill:none;fill-opacity:1;fill-rule:nonzero;stroke:#000000;stroke-width:3;stroke-linecap:butt;stroke-linejoin:miter;stroke-miterlimit:4;stroke-dasharray:none;stroke-dashoffset:0;stroke-opacity:1"
       id="rect3200"
       width="80"
       height="45"
       x="45"
       y="30.691994"
       transform="matrix(0.4189945,0,0,0.3875972,0.4563379,0.3580668)" />
  </g>
</svg>
