<?xml version="1.0" encoding="UTF-8"?>

<svg version="1.2" baseProfile="tiny" width="215.9mm" height="279.4mm" viewBox="0 0 21590 27940" preserveAspectRatio="xMidYMid" fill-rule="evenodd" stroke-width="28.222" stroke-linejoin="round" xmlns="http://www.w3.org/2000/svg" xmlns:xlink="http://www.w3.org/1999/xlink" xml:space="preserve">
 <g visibility="visible" id="MasterSlide_1_Default">
  <desc>Master slide
  </desc>
  <rect fill="none" stroke="none" x="0" y="0" width="21590" height="27940"/>
 </g>
 <g visibility="visible" id="Slide_1_page1">
  <g id="DrawingGroup_1">
   <g>
    <path fill="rgb(255,255,255)" stroke="none" d="M 6949,1268 C 7080,1293 7192,1367 7288,1489 7409,1642 7471,1827 7471,2048 L 7471,7803 C 7471,8024 7409,8210 7288,8362 7167,8515 7021,8593 6846,8593 L 2285,8593 C 2112,8593 1963,8515 1842,8362 1721,8210 1662,8024 1662,7803 L 1662,2048 C 1662,1827 1721,1642 1842,1489 1938,1367 2052,1293 2182,1268 L 6949,1268 Z"/>
    <rect fill="none" stroke="none" x="1661" y="1268" width="5812" height="7327"/>
   </g>
   <g>
    <path fill="rgb(0,0,0)" stroke="none" d="M 6911,1353 C 7041,1378 7153,1452 7250,1574 7371,1726 7432,1911 7432,2132 L 7432,7888 C 7432,8109 7371,8294 7250,8447 7129,8600 6982,8678 6807,8678 L 2246,8678 C 2073,8678 1924,8600 1803,8447 1682,8294 1623,8109 1623,7888 L 1623,2132 C 1623,1911 1682,1726 1803,1574 1899,1452 2014,1378 2143,1353 L 6911,1353 Z M 5922,7797 L 5340,7797 5100,3829 5340,3829 5340,2435 5530,2435 5530,2158 4526,1866 3541,2158 3541,2435 3736,2435 3736,3829 3976,3829 3721,7807 3134,7807 3134,8154 5922,8154 5922,7797 Z M 5136,3104 L 3940,3114 3940,2435 5136,2435 5136,3104 Z M 5044,7797 L 4012,7807 4091,6569 4526,5974 4964,6569 5044,7797 Z M 4877,5184 L 4521,5672 4179,5213 4266,3829 4789,3829 4877,5184 Z M 4889,5470 L 4941,6231 4637,5818 4889,5470 Z M 4411,5818 L 4120,6221 4171,5477 4411,5818 Z"/>
    <rect fill="none" stroke="none" x="1622" y="1352" width="5812" height="7327"/>
   </g>
  </g>
 </g>
</svg>