<?xml version="1.0" encoding="UTF-8"?>

<svg version="1.2" baseProfile="tiny" width="215.9mm" height="279.4mm" viewBox="0 0 21590 27940" preserveAspectRatio="xMidYMid" fill-rule="evenodd" stroke-width="28.222" stroke-linejoin="round" xmlns="http://www.w3.org/2000/svg" xmlns:xlink="http://www.w3.org/1999/xlink" xml:space="preserve">
 <g visibility="visible" id="MasterSlide_1_Default">
  <desc>Master slide
  </desc>
  <rect fill="none" stroke="none" x="0" y="0" width="21590" height="27940"/>
 </g>
 <g visibility="visible" id="Slide_1_page1">
  <g>
   <path fill="rgb(255,255,255)" stroke="none" d="M 11298,20690 C 9709,20690 8356,20308 6980,19469 5603,18630 4613,17585 3819,16131 3024,14677 2662,13250 2662,11572 2662,9893 3024,8465 3819,7011 4613,5557 5603,4514 6980,3675 8356,2834 9709,2452 11297,2452 12888,2452 14241,2834 15616,3675 16994,4514 17983,5557 18778,7011 19573,8465 19935,9893 19935,11570 19935,13250 19573,14677 18778,16131 17983,17585 16994,18630 15616,19469 14241,20308 12888,20690 11298,20690 Z"/>
   <path fill="none" stroke="rgb(128,128,128)" id="Drawing_1_0" d="M 11298,20690 C 9709,20690 8356,20308 6980,19469 5603,18630 4613,17585 3819,16131 3024,14677 2662,13250 2662,11572 2662,9893 3024,8465 3819,7011 4613,5557 5603,4514 6980,3675 8356,2834 9709,2452 11297,2452 12888,2452 14241,2834 15616,3675 16994,4514 17983,5557 18778,7011 19573,8465 19935,9893 19935,11570 19935,13250 19573,14677 18778,16131 17983,17585 16994,18630 15616,19469 14241,20308 12888,20690 11298,20690 Z"/>
  </g>
  <g>
   <path fill="rgb(255,255,255)" stroke="none" d="M 11276,18787 C 10002,18787 8918,18481 7815,17808 6711,17135 5918,16298 5281,15133 4644,13967 4354,12824 4354,11478 4354,10133 4644,8989 5281,7823 5918,6658 6711,5821 7815,5149 8918,4475 10002,4169 11275,4169 12550,4169 13634,4475 14737,5149 15841,5821 16634,6658 17271,7823 17908,8989 18198,10133 18198,11477 18198,12824 17908,13967 17271,15133 16634,16298 15841,17135 14737,17808 13634,18481 12550,18787 11276,18787 Z"/>
   <path fill="none" stroke="rgb(153,102,0)" id="Drawing_2_0" stroke-width="1151" stroke-linejoin="round" d="M 11276,18787 C 10002,18787 8918,18481 7815,17808 6711,17135 5918,16298 5281,15133 4644,13967 4354,12824 4354,11478 4354,10133 4644,8989 5281,7823 5918,6658 6711,5821 7815,5149 8918,4475 10002,4169 11275,4169 12550,4169 13634,4475 14737,5149 15841,5821 16634,6658 17271,7823 17908,8989 18198,10133 18198,11477 18198,12824 17908,13967 17271,15133 16634,16298 15841,17135 14737,17808 13634,18481 12550,18787 11276,18787 Z"/>
  </g>
  <g>
   <path fill="rgb(153,102,0)" stroke="none" d="M 10999,6129 L 11668,6129 12339,6442 12652,6755 12741,6889 12831,7067 13993,7425 14083,7470 14396,7693 14530,7827 14664,8006 14798,8274 14843,8408 14888,8632 14888,8900 14843,9123 14798,9168 14664,9436 14664,9481 14575,9615 14485,9704 14530,9749 14664,9793 14709,9793 14977,9972 15201,10196 15335,10374 15424,10553 15514,10821 15514,11358 15335,11804 15245,11938 14888,12295 14530,12474 14396,12519 14083,12563 13591,12563 13501,12653 13189,13144 13054,13412 12741,13904 12652,13993 12294,14574 12294,16139 12250,16273 11981,16541 11937,16541 11847,16585 11802,16630 10820,16630 10641,16541 10417,16317 10417,16273 10373,16139 10328,16094 10328,14574 10238,14396 9925,13904 9836,13815 9165,12697 9076,12608 8271,12519 8003,12429 7913,12385 7645,12206 7377,11938 7287,11804 7109,11268 7109,10911 7153,10687 7332,10330 7779,9883 8048,9749 8092,9749 8137,9704 8137,9659 7958,9436 7779,9078 7779,8721 7824,8408 7913,8095 8003,7961 8405,7559 9836,7023 10015,6755 10015,6710 10238,6486 10417,6352 10686,6218 10999,6129 Z M 10373,12563 L 12250,12563 12250,12608 12115,12876 12026,12966 11668,13681 11624,13725 11043,13725 10954,13636 10864,13502 10864,13457 10373,12608 10373,12563 Z"/>
   <path fill="none" stroke="rgb(30,102,0)" id="Drawing_3_0" d="M 10999,6129 L 11668,6129 12339,6442 12652,6755 12741,6889 12831,7067 13993,7425 14083,7470 14396,7693 14530,7827 14664,8006 14798,8274 14843,8408 14888,8632 14888,8900 14843,9123 14798,9168 14664,9436 14664,9481 14575,9615 14485,9704 14530,9749 14664,9793 14709,9793 14977,9972 15201,10196 15335,10374 15424,10553 15514,10821 15514,11358 15335,11804 15245,11938 14888,12295 14530,12474 14396,12519 14083,12563 13591,12563 13501,12653 13189,13144 13054,13412 12741,13904 12652,13993 12294,14574 12294,16139 12250,16273 11981,16541 11937,16541 11847,16585 11802,16630 10820,16630 10641,16541 10417,16317 10417,16273 10373,16139 10328,16094 10328,14574 10238,14396 9925,13904 9836,13815 9165,12697 9076,12608 8271,12519 8003,12429 7913,12385 7645,12206 7377,11938 7287,11804 7109,11268 7109,10911 7153,10687 7332,10330 7779,9883 8048,9749 8092,9749 8137,9704 8137,9659 7958,9436 7779,9078 7779,8721 7824,8408 7913,8095 8003,7961 8405,7559 9836,7023 10015,6755 10015,6710 10238,6486 10417,6352 10686,6218 10999,6129 Z"/>
   <path fill="none" stroke="rgb(30,102,0)" id="Drawing_3_1" d="M 10373,12563 L 12250,12563 12250,12608 12115,12876 12026,12966 11668,13681 11624,13725 11043,13725 10954,13636 10864,13502 10864,13457 10373,12608 10373,12563 Z"/>
  </g>
 </g>
</svg>