<?xml version="1.0" encoding="UTF-8" standalone="no"?>
<!-- Created with Inkscape (http://www.inkscape.org/) -->

<svg
   xmlns:dc="http://purl.org/dc/elements/1.1/"
   xmlns:cc="http://creativecommons.org/ns#"
   xmlns:rdf="http://www.w3.org/1999/02/22-rdf-syntax-ns#"
   xmlns:svg="http://www.w3.org/2000/svg"
   xmlns="http://www.w3.org/2000/svg"
   xmlns:xlink="http://www.w3.org/1999/xlink"
   xmlns:sodipodi="http://sodipodi.sourceforge.net/DTD/sodipodi-0.dtd"
   xmlns:inkscape="http://www.inkscape.org/namespaces/inkscape"
   width="32"
   height="32"
   id="svg8610"
   version="1.1"
   inkscape:version="0.47 r22583"
   sodipodi:docname="usgs-map_symbol-church.svg">
  <defs
     id="defs8612">
    <pattern
       inkscape:collect="always"
       xlink:href="#pattern8814"
       id="pattern10329"
       patternTransform="matrix(11.590074,0,0,-11.590074,-3444.281,5935.5931)" />
    <pattern
       inkscape:collect="always"
       xlink:href="#pattern8811"
       id="pattern10327"
       patternTransform="matrix(11.590074,0,0,-11.590074,-3444.281,5937.5931)" />
    <pattern
       inkscape:collect="always"
       xlink:href="#pattern1650-4"
       id="pattern8814"
       patternTransform="matrix(11.590074,0,0,-11.590074,-3357.0786,5936.5599)" />
    <pattern
       inkscape:collect="always"
       xlink:href="#pattern1656-0"
       id="pattern8811"
       patternTransform="matrix(11.590074,0,0,-11.590074,-3357.0786,5936.5599)" />
    <pattern
       inkscape:collect="always"
       xlink:href="#pattern1674-5"
       id="pattern8750"
       patternTransform="matrix(1.25,0,0,-1.25,-364.025,532.8362)" />
    <inkscape:perspective
       sodipodi:type="inkscape:persp3d"
       inkscape:vp_x="0 : 526.18109 : 1"
       inkscape:vp_y="0 : 1000 : 0"
       inkscape:vp_z="744.09448 : 526.18109 : 1"
       inkscape:persp3d-origin="372.04724 : 350.78739 : 1"
       id="perspective8618" />
    <inkscape:perspective
       id="perspective8628"
       inkscape:persp3d-origin="0.5 : 0.33333333 : 1"
       inkscape:vp_z="1 : 0.5 : 1"
       inkscape:vp_y="0 : 1000 : 0"
       inkscape:vp_x="0 : 0.5 : 1"
       sodipodi:type="inkscape:persp3d" />
    <pattern
       patternTransform="matrix(1.25,0,0,-1.25,-57.985268,1828.1927)"
       patternUnits="userSpaceOnUse"
       x="0"
       y="0"
       width="72"
       height="72"
       id="pattern1674">
      <path
         d="M 0,72 72,72 72,0 0,0 0,72 z"
         style="fill:#373535;fill-opacity:1;fill-rule:nonzero;stroke:none"
         id="path1676" />
    </pattern>
    <clipPath
       clipPathUnits="userSpaceOnUse"
       id="clipPath1646">
      <path
         d="m 237.061,380.352 9.765,0 0,4.352 -9.765,0 0,-4.352 z"
         id="path1648" />
    </clipPath>
    <pattern
       patternTransform="translate(-54.159,-41.565)"
       patternUnits="userSpaceOnUse"
       x="0"
       y="0"
       width="72"
       height="72"
       id="pattern1650">
      <path
         d="M 0,72 72,72 72,0 0,0 0,72 z"
         style="fill:#373535;fill-opacity:1;fill-rule:nonzero;stroke:none"
         id="path1652" />
    </pattern>
    <pattern
       patternTransform="translate(-54.159,-41.565)"
       patternUnits="userSpaceOnUse"
       x="0"
       y="0"
       width="72"
       height="72"
       id="pattern1656">
      <path
         d="M 0,72 72,72 72,0 0,0 0,72 z"
         style="fill:#373535;fill-opacity:1;fill-rule:nonzero;stroke:none"
         id="path1658" />
    </pattern>
    <pattern
       patternTransform="translate(-54.159,-41.565)"
       patternUnits="userSpaceOnUse"
       x="0"
       y="0"
       width="72"
       height="72"
       id="pattern1662">
      <path
         d="M 0,72 72,72 72,0 0,0 0,72 z"
         style="fill:#373535;fill-opacity:1;fill-rule:nonzero;stroke:none"
         id="path1664" />
    </pattern>
    <pattern
       patternTransform="translate(-54.159,-41.565)"
       patternUnits="userSpaceOnUse"
       x="0"
       y="0"
       width="72"
       height="72"
       id="pattern1668">
      <path
         d="M 0,72 72,72 72,0 0,0 0,72 z"
         style="fill:#373535;fill-opacity:1;fill-rule:nonzero;stroke:none"
         id="path1670" />
    </pattern>
    <inkscape:perspective
       id="perspective8628-7"
       inkscape:persp3d-origin="0.5 : 0.33333333 : 1"
       inkscape:vp_z="1 : 0.5 : 1"
       inkscape:vp_y="0 : 1000 : 0"
       inkscape:vp_x="0 : 0.5 : 1"
       sodipodi:type="inkscape:persp3d" />
    <pattern
       patternTransform="matrix(1.25,0,0,-1.25,-348.34241,1561.7641)"
       patternUnits="userSpaceOnUse"
       x="0"
       y="0"
       width="72"
       height="72"
       id="pattern1674-5">
      <path
         d="M 0,72 72,72 72,0 0,0 0,72 z"
         style="fill:#373535;fill-opacity:1;fill-rule:nonzero;stroke:none"
         id="path1676-9" />
    </pattern>
    <clipPath
       clipPathUnits="userSpaceOnUse"
       id="clipPath1646-2">
      <path
         d="m 237.061,380.352 9.765,0 0,4.352 -9.765,0 0,-4.352 z"
         id="path1648-2" />
    </clipPath>
    <pattern
       patternTransform="translate(-54.159,-41.565)"
       patternUnits="userSpaceOnUse"
       x="0"
       y="0"
       width="72"
       height="72"
       id="pattern1650-8">
      <path
         d="M 0,72 72,72 72,0 0,0 0,72 z"
         style="fill:#373535;fill-opacity:1;fill-rule:nonzero;stroke:none"
         id="path1652-9" />
    </pattern>
    <pattern
       patternTransform="translate(-54.159,-41.565)"
       patternUnits="userSpaceOnUse"
       x="0"
       y="0"
       width="72"
       height="72"
       id="pattern1656-7">
      <path
         d="M 0,72 72,72 72,0 0,0 0,72 z"
         style="fill:#373535;fill-opacity:1;fill-rule:nonzero;stroke:none"
         id="path1658-3" />
    </pattern>
    <pattern
       patternTransform="translate(-54.159,-41.565)"
       patternUnits="userSpaceOnUse"
       x="0"
       y="0"
       width="72"
       height="72"
       id="pattern1662-6">
      <path
         d="M 0,72 72,72 72,0 0,0 0,72 z"
         style="fill:#373535;fill-opacity:1;fill-rule:nonzero;stroke:none"
         id="path1664-1" />
    </pattern>
    <pattern
       patternTransform="translate(-54.159,-41.565)"
       patternUnits="userSpaceOnUse"
       x="0"
       y="0"
       width="72"
       height="72"
       id="pattern1668-2">
      <path
         d="M 0,72 72,72 72,0 0,0 0,72 z"
         style="fill:#373535;fill-opacity:1;fill-rule:nonzero;stroke:none"
         id="path1670-9" />
    </pattern>
    <pattern
       patternUnits="userSpaceOnUse"
       width="12.20625"
       height="5.44"
       patternTransform="matrix(5.3595932,0,0,5.3595932,7.8254492,1022.4996)"
       id="pattern8741">
      <g
         id="g1642"
         transform="matrix(1.25,0,0,-1.25,-296.32625,480.88)">
        <g
           clip-path="url(#clipPath1646-2)"
           id="g1644">
          <path
             id="path1654"
             style="fill:url(#pattern1650-8);fill-opacity:1;fill-rule:nonzero;stroke:none"
             d="m 245.206,381.792 1.44,0 0,-1.44 -1.44,0 0,1.44 z" />
          <path
             id="path1660"
             style="fill:none;stroke:url(#pattern1656-7);stroke-width:0.22;stroke-linecap:butt;stroke-linejoin:miter;stroke-miterlimit:4;stroke-opacity:1;stroke-dasharray:none"
             d="m 245.926,384.659 0,-2.88 m -0.9,1.555 1.8,0" />
          <path
             id="path1666"
             style="fill:url(#pattern1662-6);fill-opacity:1;fill-rule:nonzero;stroke:none"
             d="m 237.061,381.792 1.44,0 0,-1.44 -1.44,0 0,1.44 z" />
          <path
             id="path1672"
             style="fill:none;stroke:url(#pattern1668-2);stroke-width:0.22;stroke-linecap:butt;stroke-linejoin:miter;stroke-miterlimit:4;stroke-opacity:1;stroke-dasharray:none"
             d="m 237.782,384.649 0,-2.88" />
        </g>
      </g>
      <path
         id="path1678"
         style="fill:url(#pattern8750);fill-opacity:1;fill-rule:nonzero;stroke:none"
         d="m 0.776249,0 2.7,0.9013 -2.7,0.8987 0,-1.8" />
    </pattern>
    <inkscape:perspective
       id="perspective8628-3"
       inkscape:persp3d-origin="0.5 : 0.33333333 : 1"
       inkscape:vp_z="1 : 0.5 : 1"
       inkscape:vp_y="0 : 1000 : 0"
       inkscape:vp_x="0 : 0.5 : 1"
       sodipodi:type="inkscape:persp3d" />
    <pattern
       patternTransform="matrix(11.590074,0,0,-11.590074,-3357.0786,5936.5594)"
       patternUnits="userSpaceOnUse"
       x="0"
       y="0"
       width="72"
       height="72"
       id="pattern1674-1">
      <path
         d="M 0,72 72,72 72,0 0,0 0,72 z"
         style="fill:#373535;fill-opacity:1;fill-rule:nonzero;stroke:none"
         id="path1676-94" />
    </pattern>
    <clipPath
       clipPathUnits="userSpaceOnUse"
       id="clipPath1646-7">
      <path
         d="m 237.061,380.352 9.765,0 0,4.352 -9.765,0 0,-4.352 z"
         id="path1648-8" />
    </clipPath>
    <pattern
       patternTransform="translate(-54.159,-41.565)"
       patternUnits="userSpaceOnUse"
       x="0"
       y="0"
       width="72"
       height="72"
       id="pattern1650-4">
      <path
         d="M 0,72 72,72 72,0 0,0 0,72 z"
         style="fill:#373535;fill-opacity:1;fill-rule:nonzero;stroke:none"
         id="path1652-5" />
    </pattern>
    <pattern
       patternTransform="translate(-54.159,-41.565)"
       patternUnits="userSpaceOnUse"
       x="0"
       y="0"
       width="72"
       height="72"
       id="pattern1656-0">
      <path
         d="M 0,72 72,72 72,0 0,0 0,72 z"
         style="fill:#373535;fill-opacity:1;fill-rule:nonzero;stroke:none"
         id="path1658-36" />
    </pattern>
    <pattern
       patternTransform="translate(-54.159,-41.565)"
       patternUnits="userSpaceOnUse"
       x="0"
       y="0"
       width="72"
       height="72"
       id="pattern1662-1">
      <path
         d="M 0,72 72,72 72,0 0,0 0,72 z"
         style="fill:#373535;fill-opacity:1;fill-rule:nonzero;stroke:none"
         id="path1664-0" />
    </pattern>
    <pattern
       patternTransform="translate(-54.159,-41.565)"
       patternUnits="userSpaceOnUse"
       x="0"
       y="0"
       width="72"
       height="72"
       id="pattern1668-6">
      <path
         d="M 0,72 72,72 72,0 0,0 0,72 z"
         style="fill:#373535;fill-opacity:1;fill-rule:nonzero;stroke:none"
         id="path1670-3" />
    </pattern>
    <inkscape:perspective
       id="perspective10421"
       inkscape:persp3d-origin="0.5 : 0.33333333 : 1"
       inkscape:vp_z="1 : 0.5 : 1"
       inkscape:vp_y="0 : 1000 : 0"
       inkscape:vp_x="0 : 0.5 : 1"
       sodipodi:type="inkscape:persp3d" />
    <clipPath
       clipPathUnits="userSpaceOnUse"
       id="clipPath700">
      <path
         d="m 231.203,338.67 15.586,0 0,-17.536 -15.586,0 0,17.536 z"
         id="path702" />
    </clipPath>
    <pattern
       patternTransform="translate(-55.515,-70.306)"
       patternUnits="userSpaceOnUse"
       x="0"
       y="0"
       width="72"
       height="72"
       id="pattern704">
      <path
         d="M 0,72 72,72 72,0 0,0 0,72 z"
         style="fill:#373535;fill-opacity:1;fill-rule:nonzero;stroke:none"
         id="path706" />
    </pattern>
    <pattern
       patternTransform="matrix(1.25,0,0,-1.25,-351.49473,1535.2204)"
       patternUnits="userSpaceOnUse"
       x="0"
       y="0"
       width="72"
       height="72"
       id="pattern690">
      <path
         d="M 0,72 72,72 72,0 0,0 0,72 z"
         style="fill:#373535;fill-opacity:1;fill-rule:nonzero;stroke:none"
         id="path692" />
    </pattern>
    <clipPath
       clipPathUnits="userSpaceOnUse"
       id="clipPath674">
      <path
         d="m 231.203,338.67 15.586,0 0,-17.536 -15.586,0 0,17.536 z"
         id="path676" />
    </clipPath>
    <pattern
       patternTransform="translate(-55.515,-70.306)"
       patternUnits="userSpaceOnUse"
       x="0"
       y="0"
       width="72"
       height="72"
       id="pattern678">
      <path
         d="M 0,72 72,72 72,0 0,0 0,72 z"
         style="fill:#373535;fill-opacity:1;fill-rule:nonzero;stroke:none"
         id="path680" />
    </pattern>
    <pattern
       patternTransform="translate(-55.515,-70.306)"
       patternUnits="userSpaceOnUse"
       x="0"
       y="0"
       width="72"
       height="72"
       id="pattern684">
      <path
         d="M 0,72 72,72 72,0 0,0 0,72 z"
         style="fill:#373535;fill-opacity:1;fill-rule:nonzero;stroke:none"
         id="path686" />
    </pattern>
  </defs>
  <sodipodi:namedview
     id="base"
     pagecolor="#ffffff"
     bordercolor="#666666"
     borderopacity="1.0"
     inkscape:pageopacity="0.0"
     inkscape:pageshadow="2"
     inkscape:zoom="2.5859375"
     inkscape:cx="17.913682"
     inkscape:cy="32"
     inkscape:document-units="px"
     inkscape:current-layer="layer1"
     showgrid="false"
     inkscape:window-width="711"
     inkscape:window-height="586"
     inkscape:window-x="109"
     inkscape:window-y="132"
     inkscape:window-maximized="0" />
  <metadata
     id="metadata8615">
    <rdf:RDF>
      <cc:Work
         rdf:about="">
        <dc:format>image/svg+xml</dc:format>
        <dc:type
           rdf:resource="http://purl.org/dc/dcmitype/StillImage" />
        <dc:title></dc:title>
      </cc:Work>
    </rdf:RDF>
  </metadata>
  <g
     inkscape:label="Layer 1"
     inkscape:groupmode="layer"
     id="layer1"
     transform="translate(0,-1020.3622)">
    <g
       transform="matrix(1.25,0,0,-1.25,-282.10098,1447.3379)"
       id="g670">
      <g
         id="g672"
         clip-path="url(#clipPath674)">
        <path
           d="m 231.942,337.935 4.991,-16.719"
           style="fill:none;stroke:url(#pattern678);stroke-width:0.57599998;stroke-linecap:butt;stroke-linejoin:miter;stroke-miterlimit:4;stroke-opacity:1;stroke-dasharray:none"
           id="path682" />
        <path
           d="m 232.703,337.945 c 0.013,-0.414 -0.312,-0.76 -0.726,-0.774 -0.413,-0.014 -0.76,0.311 -0.774,0.725 -0.014,0.414 0.311,0.76 0.725,0.774 0.414,0.014 0.76,-0.31 0.775,-0.725"
           style="fill:url(#pattern684);fill-opacity:1;fill-rule:nonzero;stroke:none"
           id="path688" />
      </g>
    </g>
    <path
       d="m 10.394024,1032.7191 -1.6200004,-5.5212 c 0.4025,-0.1838 0.72625,-0.315 0.9375,-0.3675 1.9150004,-0.4725 3.7312504,-0.4213 5.2812504,-0.059 l 0.13375,0.053 1.4275,5.3725 -0.14125,0.01 c -1.49125,-0.31 -3.21375,-0.3288 -5.02375,0.1175 -0.21125,0.053 -0.5325,0.1825 -0.93625,0.3675 l -0.05875,0.028"
       style="fill:url(#pattern690);fill-opacity:1;fill-rule:nonzero;stroke:none"
       id="path694" />
    <g
       transform="matrix(1.25,0,0,-1.25,-282.10098,1447.3379)"
       id="g696">
      <g
         id="g698"
         clip-path="url(#clipPath700)">
        <path
           d="m 246.344,328.413 c -0.223,-0.07 -0.462,-0.112 -0.722,-0.12 -1.553,-0.052 -2.915,0.133 -3.508,0.487 l -0.095,0.061 c -1.474,1 -3.926,1.63 -6.621,0.965 -0.169,-0.041 -0.427,-0.146 -0.75,-0.294 m 11.381,10e-4 c -0.223,-0.07 -0.463,-0.113 -0.723,-0.122 -1.553,-0.051 -2.915,0.135 -3.509,0.488 l -0.094,0.06 c -1.475,1.002 -3.927,1.631 -6.622,0.966 -0.169,-0.041 -0.427,-0.146 -0.75,-0.293 m 11.413,0 c -0.222,-0.069 -0.463,-0.113 -0.725,-0.121 -1.553,-0.051 -2.915,0.134 -3.508,0.487 l -0.095,0.06 c -1.474,1.002 -3.926,1.632 -6.621,0.968 -0.169,-0.042 -0.428,-0.146 -0.75,-0.295 m 11.332,-0.002 c -0.224,-0.07 -0.466,-0.112 -0.727,-0.12 -1.553,-0.052 -2.916,0.133 -3.509,0.487 l -0.095,0.06 c -1.474,1.001 -3.926,1.632 -6.621,0.966 -0.169,-0.042 -0.428,-0.146 -0.75,-0.294 m 11.404,0.002 c -0.224,-0.071 -0.466,-0.113 -0.728,-0.121 -1.553,-0.052 -2.915,0.133 -3.508,0.487 l -0.095,0.061 c -1.474,1 -3.926,1.63 -6.621,0.965 -0.169,-0.041 -0.427,-0.146 -0.75,-0.294 m 11.386,10e-4 c -0.225,-0.07 -0.466,-0.113 -0.728,-0.122 -1.553,-0.051 -2.915,0.135 -3.508,0.488 l -0.095,0.06 c -1.474,1.002 -3.926,1.631 -6.621,0.967 -0.169,-0.042 -0.428,-0.146 -0.75,-0.294 m 13.593,-7.693 c -0.223,-0.071 -0.463,-0.114 -0.723,-0.122 -1.549,-0.051 -2.912,0.134 -3.505,0.487 l -0.095,0.06 c -1.474,1.002 -3.927,1.632 -6.622,0.967 -0.169,-0.041 -0.427,-0.146 -0.749,-0.294 l -2.257,7.692 c 0.322,0.148 0.581,0.252 0.75,0.294 2.694,0.666 5.147,0.035 6.621,-0.966 l 0.094,-0.06 c 0.594,-0.354 1.956,-0.538 3.509,-0.488 0.261,0.009 0.504,0.052 0.728,0.122 l 2.249,-7.692 z"
           style="fill:none;stroke:url(#pattern704);stroke-width:0.22;stroke-linecap:butt;stroke-linejoin:miter;stroke-miterlimit:4;stroke-opacity:1;stroke-dasharray:none"
           id="path708" />
      </g>
    </g>
  </g>
</svg>
