<?xml version="1.0" encoding="UTF-8" standalone="no"?>
<!-- Created with Inkscape (http://www.inkscape.org/) -->

<svg
   xmlns:dc="http://purl.org/dc/elements/1.1/"
   xmlns:cc="http://creativecommons.org/ns#"
   xmlns:rdf="http://www.w3.org/1999/02/22-rdf-syntax-ns#"
   xmlns:svg="http://www.w3.org/2000/svg"
   xmlns="http://www.w3.org/2000/svg"
   xmlns:xlink="http://www.w3.org/1999/xlink"
   xmlns:sodipodi="http://sodipodi.sourceforge.net/DTD/sodipodi-0.dtd"
   xmlns:inkscape="http://www.inkscape.org/namespaces/inkscape"
   width="16"
   height="16"
   id="svg8610"
   version="1.1"
   inkscape:version="0.47 r22583"
   sodipodi:docname="usgs-map_symbol-landmark_object.svg">
  <defs
     id="defs8612">
    <pattern
       inkscape:collect="always"
       xlink:href="#pattern1674-5"
       id="pattern8750"
       patternTransform="matrix(1.25,0,0,-1.25,-364.025,532.8362)" />
    <inkscape:perspective
       sodipodi:type="inkscape:persp3d"
       inkscape:vp_x="0 : 526.18109 : 1"
       inkscape:vp_y="0 : 1000 : 0"
       inkscape:vp_z="744.09448 : 526.18109 : 1"
       inkscape:persp3d-origin="372.04724 : 350.78739 : 1"
       id="perspective8618" />
    <inkscape:perspective
       id="perspective8628"
       inkscape:persp3d-origin="0.5 : 0.33333333 : 1"
       inkscape:vp_z="1 : 0.5 : 1"
       inkscape:vp_y="0 : 1000 : 0"
       inkscape:vp_x="0 : 0.5 : 1"
       sodipodi:type="inkscape:persp3d" />
    <pattern
       patternTransform="matrix(1.25,0,0,-1.25,-57.985268,1828.1927)"
       patternUnits="userSpaceOnUse"
       x="0"
       y="0"
       width="72"
       height="72"
       id="pattern1674">
      <path
         d="M 0,72 72,72 72,0 0,0 0,72 z"
         style="fill:#373535;fill-opacity:1;fill-rule:nonzero;stroke:none"
         id="path1676" />
    </pattern>
    <clipPath
       clipPathUnits="userSpaceOnUse"
       id="clipPath1646">
      <path
         d="m 237.061,380.352 9.765,0 0,4.352 -9.765,0 0,-4.352 z"
         id="path1648" />
    </clipPath>
    <pattern
       patternTransform="translate(-54.159,-41.565)"
       patternUnits="userSpaceOnUse"
       x="0"
       y="0"
       width="72"
       height="72"
       id="pattern1650">
      <path
         d="M 0,72 72,72 72,0 0,0 0,72 z"
         style="fill:#373535;fill-opacity:1;fill-rule:nonzero;stroke:none"
         id="path1652" />
    </pattern>
    <pattern
       patternTransform="translate(-54.159,-41.565)"
       patternUnits="userSpaceOnUse"
       x="0"
       y="0"
       width="72"
       height="72"
       id="pattern1656">
      <path
         d="M 0,72 72,72 72,0 0,0 0,72 z"
         style="fill:#373535;fill-opacity:1;fill-rule:nonzero;stroke:none"
         id="path1658" />
    </pattern>
    <pattern
       patternTransform="translate(-54.159,-41.565)"
       patternUnits="userSpaceOnUse"
       x="0"
       y="0"
       width="72"
       height="72"
       id="pattern1662">
      <path
         d="M 0,72 72,72 72,0 0,0 0,72 z"
         style="fill:#373535;fill-opacity:1;fill-rule:nonzero;stroke:none"
         id="path1664" />
    </pattern>
    <pattern
       patternTransform="translate(-54.159,-41.565)"
       patternUnits="userSpaceOnUse"
       x="0"
       y="0"
       width="72"
       height="72"
       id="pattern1668">
      <path
         d="M 0,72 72,72 72,0 0,0 0,72 z"
         style="fill:#373535;fill-opacity:1;fill-rule:nonzero;stroke:none"
         id="path1670" />
    </pattern>
    <inkscape:perspective
       id="perspective8628-7"
       inkscape:persp3d-origin="0.5 : 0.33333333 : 1"
       inkscape:vp_z="1 : 0.5 : 1"
       inkscape:vp_y="0 : 1000 : 0"
       inkscape:vp_x="0 : 0.5 : 1"
       sodipodi:type="inkscape:persp3d" />
    <pattern
       patternTransform="matrix(1.25,0,0,-1.25,-348.34241,1561.7641)"
       patternUnits="userSpaceOnUse"
       x="0"
       y="0"
       width="72"
       height="72"
       id="pattern1674-5">
      <path
         d="M 0,72 72,72 72,0 0,0 0,72 z"
         style="fill:#373535;fill-opacity:1;fill-rule:nonzero;stroke:none"
         id="path1676-9" />
    </pattern>
    <clipPath
       clipPathUnits="userSpaceOnUse"
       id="clipPath1646-2">
      <path
         d="m 237.061,380.352 9.765,0 0,4.352 -9.765,0 0,-4.352 z"
         id="path1648-2" />
    </clipPath>
    <pattern
       patternTransform="translate(-54.159,-41.565)"
       patternUnits="userSpaceOnUse"
       x="0"
       y="0"
       width="72"
       height="72"
       id="pattern1650-8">
      <path
         d="M 0,72 72,72 72,0 0,0 0,72 z"
         style="fill:#373535;fill-opacity:1;fill-rule:nonzero;stroke:none"
         id="path1652-9" />
    </pattern>
    <pattern
       patternTransform="translate(-54.159,-41.565)"
       patternUnits="userSpaceOnUse"
       x="0"
       y="0"
       width="72"
       height="72"
       id="pattern1656-7">
      <path
         d="M 0,72 72,72 72,0 0,0 0,72 z"
         style="fill:#373535;fill-opacity:1;fill-rule:nonzero;stroke:none"
         id="path1658-3" />
    </pattern>
    <pattern
       patternTransform="translate(-54.159,-41.565)"
       patternUnits="userSpaceOnUse"
       x="0"
       y="0"
       width="72"
       height="72"
       id="pattern1662-6">
      <path
         d="M 0,72 72,72 72,0 0,0 0,72 z"
         style="fill:#373535;fill-opacity:1;fill-rule:nonzero;stroke:none"
         id="path1664-1" />
    </pattern>
    <pattern
       patternTransform="translate(-54.159,-41.565)"
       patternUnits="userSpaceOnUse"
       x="0"
       y="0"
       width="72"
       height="72"
       id="pattern1668-2">
      <path
         d="M 0,72 72,72 72,0 0,0 0,72 z"
         style="fill:#373535;fill-opacity:1;fill-rule:nonzero;stroke:none"
         id="path1670-9" />
    </pattern>
    <pattern
       patternUnits="userSpaceOnUse"
       width="12.20625"
       height="5.44"
       patternTransform="matrix(5.3595932,0,0,5.3595932,7.8254492,1022.4996)"
       id="pattern8741">
      <g
         id="g1642"
         transform="matrix(1.25,0,0,-1.25,-296.32625,480.88)">
        <g
           clip-path="url(#clipPath1646-2)"
           id="g1644">
          <path
             id="path1654"
             style="fill:url(#pattern1650-8);fill-opacity:1;fill-rule:nonzero;stroke:none"
             d="m 245.206,381.792 1.44,0 0,-1.44 -1.44,0 0,1.44 z" />
          <path
             id="path1660"
             style="fill:none;stroke:url(#pattern1656-7);stroke-width:0.22;stroke-linecap:butt;stroke-linejoin:miter;stroke-miterlimit:4;stroke-opacity:1;stroke-dasharray:none"
             d="m 245.926,384.659 0,-2.88 m -0.9,1.555 1.8,0" />
          <path
             id="path1666"
             style="fill:url(#pattern1662-6);fill-opacity:1;fill-rule:nonzero;stroke:none"
             d="m 237.061,381.792 1.44,0 0,-1.44 -1.44,0 0,1.44 z" />
          <path
             id="path1672"
             style="fill:none;stroke:url(#pattern1668-2);stroke-width:0.22;stroke-linecap:butt;stroke-linejoin:miter;stroke-miterlimit:4;stroke-opacity:1;stroke-dasharray:none"
             d="m 237.782,384.649 0,-2.88" />
        </g>
      </g>
      <path
         id="path1678"
         style="fill:url(#pattern8750);fill-opacity:1;fill-rule:nonzero;stroke:none"
         d="m 0.776249,0 2.7,0.9013 -2.7,0.8987 0,-1.8" />
    </pattern>
    <inkscape:perspective
       id="perspective8628-3"
       inkscape:persp3d-origin="0.5 : 0.33333333 : 1"
       inkscape:vp_z="1 : 0.5 : 1"
       inkscape:vp_y="0 : 1000 : 0"
       inkscape:vp_x="0 : 0.5 : 1"
       sodipodi:type="inkscape:persp3d" />
    <pattern
       patternTransform="matrix(11.590074,0,0,-11.590074,-3357.0786,5936.5594)"
       patternUnits="userSpaceOnUse"
       x="0"
       y="0"
       width="72"
       height="72"
       id="pattern1674-1">
      <path
         d="M 0,72 72,72 72,0 0,0 0,72 z"
         style="fill:#373535;fill-opacity:1;fill-rule:nonzero;stroke:none"
         id="path1676-94" />
    </pattern>
    <clipPath
       clipPathUnits="userSpaceOnUse"
       id="clipPath1646-7">
      <path
         d="m 237.061,380.352 9.765,0 0,4.352 -9.765,0 0,-4.352 z"
         id="path1648-8" />
    </clipPath>
    <pattern
       patternTransform="translate(-54.159,-41.565)"
       patternUnits="userSpaceOnUse"
       x="0"
       y="0"
       width="72"
       height="72"
       id="pattern1650-4">
      <path
         d="M 0,72 72,72 72,0 0,0 0,72 z"
         style="fill:#373535;fill-opacity:1;fill-rule:nonzero;stroke:none"
         id="path1652-5" />
    </pattern>
    <pattern
       patternTransform="translate(-54.159,-41.565)"
       patternUnits="userSpaceOnUse"
       x="0"
       y="0"
       width="72"
       height="72"
       id="pattern1656-0">
      <path
         d="M 0,72 72,72 72,0 0,0 0,72 z"
         style="fill:#373535;fill-opacity:1;fill-rule:nonzero;stroke:none"
         id="path1658-36" />
    </pattern>
    <pattern
       patternTransform="translate(-54.159,-41.565)"
       patternUnits="userSpaceOnUse"
       x="0"
       y="0"
       width="72"
       height="72"
       id="pattern1662-1">
      <path
         d="M 0,72 72,72 72,0 0,0 0,72 z"
         style="fill:#373535;fill-opacity:1;fill-rule:nonzero;stroke:none"
         id="path1664-0" />
    </pattern>
    <pattern
       patternTransform="translate(-54.159,-41.565)"
       patternUnits="userSpaceOnUse"
       x="0"
       y="0"
       width="72"
       height="72"
       id="pattern1668-6">
      <path
         d="M 0,72 72,72 72,0 0,0 0,72 z"
         style="fill:#373535;fill-opacity:1;fill-rule:nonzero;stroke:none"
         id="path1670-3" />
    </pattern>
    <inkscape:perspective
       id="perspective10421"
       inkscape:persp3d-origin="0.5 : 0.33333333 : 1"
       inkscape:vp_z="1 : 0.5 : 1"
       inkscape:vp_y="0 : 1000 : 0"
       inkscape:vp_x="0 : 0.5 : 1"
       sodipodi:type="inkscape:persp3d" />
    <clipPath
       clipPathUnits="userSpaceOnUse"
       id="clipPath700">
      <path
         d="m 231.203,338.67 15.586,0 0,-17.536 -15.586,0 0,17.536 z"
         id="path702" />
    </clipPath>
    <pattern
       patternTransform="translate(-55.515,-70.306)"
       patternUnits="userSpaceOnUse"
       x="0"
       y="0"
       width="72"
       height="72"
       id="pattern704">
      <path
         d="M 0,72 72,72 72,0 0,0 0,72 z"
         style="fill:#373535;fill-opacity:1;fill-rule:nonzero;stroke:none"
         id="path706" />
    </pattern>
    <pattern
       patternTransform="matrix(1.25,0,0,-1.25,-351.49473,1535.2204)"
       patternUnits="userSpaceOnUse"
       x="0"
       y="0"
       width="72"
       height="72"
       id="pattern690">
      <path
         d="M 0,72 72,72 72,0 0,0 0,72 z"
         style="fill:#373535;fill-opacity:1;fill-rule:nonzero;stroke:none"
         id="path692" />
    </pattern>
    <clipPath
       clipPathUnits="userSpaceOnUse"
       id="clipPath674">
      <path
         d="m 231.203,338.67 15.586,0 0,-17.536 -15.586,0 0,17.536 z"
         id="path676" />
    </clipPath>
    <pattern
       patternTransform="translate(-55.515,-70.306)"
       patternUnits="userSpaceOnUse"
       x="0"
       y="0"
       width="72"
       height="72"
       id="pattern678">
      <path
         d="M 0,72 72,72 72,0 0,0 0,72 z"
         style="fill:#373535;fill-opacity:1;fill-rule:nonzero;stroke:none"
         id="path680" />
    </pattern>
    <pattern
       patternTransform="translate(-55.515,-70.306)"
       patternUnits="userSpaceOnUse"
       x="0"
       y="0"
       width="72"
       height="72"
       id="pattern684">
      <path
         d="M 0,72 72,72 72,0 0,0 0,72 z"
         style="fill:#373535;fill-opacity:1;fill-rule:nonzero;stroke:none"
         id="path686" />
    </pattern>
    <inkscape:perspective
       id="perspective10421-7"
       inkscape:persp3d-origin="0.5 : 0.33333333 : 1"
       inkscape:vp_z="1 : 0.5 : 1"
       inkscape:vp_y="0 : 1000 : 0"
       inkscape:vp_x="0 : 0.5 : 1"
       sodipodi:type="inkscape:persp3d" />
    <clipPath
       clipPathUnits="userSpaceOnUse"
       id="clipPath700-6">
      <path
         d="m 231.203,338.67 15.586,0 0,-17.536 -15.586,0 0,17.536 z"
         id="path702-5" />
    </clipPath>
    <pattern
       patternTransform="translate(-55.515,-70.306)"
       patternUnits="userSpaceOnUse"
       x="0"
       y="0"
       width="72"
       height="72"
       id="pattern704-6">
      <path
         d="M 0,72 72,72 72,0 0,0 0,72 z"
         style="fill:#373535;fill-opacity:1;fill-rule:nonzero;stroke:none"
         id="path706-9" />
    </pattern>
    <pattern
       patternTransform="matrix(1.25,0,0,-1.25,-312.05062,1538.314)"
       patternUnits="userSpaceOnUse"
       x="0"
       y="0"
       width="72"
       height="72"
       id="pattern690-3">
      <path
         d="M 0,72 72,72 72,0 0,0 0,72 z"
         style="fill:#373535;fill-opacity:1;fill-rule:nonzero;stroke:none"
         id="path692-7" />
    </pattern>
    <clipPath
       clipPathUnits="userSpaceOnUse"
       id="clipPath674-4">
      <path
         d="m 231.203,338.67 15.586,0 0,-17.536 -15.586,0 0,17.536 z"
         id="path676-5" />
    </clipPath>
    <pattern
       patternTransform="translate(-55.515,-70.306)"
       patternUnits="userSpaceOnUse"
       x="0"
       y="0"
       width="72"
       height="72"
       id="pattern678-2">
      <path
         d="M 0,72 72,72 72,0 0,0 0,72 z"
         style="fill:#373535;fill-opacity:1;fill-rule:nonzero;stroke:none"
         id="path680-5" />
    </pattern>
    <pattern
       patternTransform="translate(-55.515,-70.306)"
       patternUnits="userSpaceOnUse"
       x="0"
       y="0"
       width="72"
       height="72"
       id="pattern684-4">
      <path
         d="M 0,72 72,72 72,0 0,0 0,72 z"
         style="fill:#373535;fill-opacity:1;fill-rule:nonzero;stroke:none"
         id="path686-7" />
    </pattern>
    <inkscape:perspective
       id="perspective10568"
       inkscape:persp3d-origin="0.5 : 0.33333333 : 1"
       inkscape:vp_z="1 : 0.5 : 1"
       inkscape:vp_y="0 : 1000 : 0"
       inkscape:vp_x="0 : 0.5 : 1"
       sodipodi:type="inkscape:persp3d" />
    <pattern
       patternTransform="matrix(1.25,0,0,-1.25,-335.7137,1540.3668)"
       patternUnits="userSpaceOnUse"
       x="0"
       y="0"
       width="72"
       height="72"
       id="pattern732">
      <path
         d="M 0,72 72,72 72,0 0,0 0,72 z"
         style="fill:#373535;fill-opacity:1;fill-rule:nonzero;stroke:none"
         id="path734" />
    </pattern>
    <pattern
       patternTransform="matrix(1.25,0,0,-1.25,-335.7137,1540.3668)"
       patternUnits="userSpaceOnUse"
       x="0"
       y="0"
       width="72"
       height="72"
       id="pattern726">
      <path
         d="M 0,72 72,72 72,0 0,0 0,72 z"
         style="fill:#373535;fill-opacity:1;fill-rule:nonzero;stroke:none"
         id="path728" />
    </pattern>
    <pattern
       patternTransform="matrix(1.25,0,0,-1.25,-335.7137,1540.3668)"
       patternUnits="userSpaceOnUse"
       x="0"
       y="0"
       width="72"
       height="72"
       id="pattern720">
      <path
         d="M 0,72 72,72 72,0 0,0 0,72 z"
         style="fill:#373535;fill-opacity:1;fill-rule:nonzero;stroke:none"
         id="path722" />
    </pattern>
    <pattern
       patternTransform="translate(-32.548,-85.00101)"
       patternUnits="userSpaceOnUse"
       x="0"
       y="0"
       width="72"
       height="72"
       id="pattern714">
      <path
         d="M 0,72 72,72 72,0 0,0 0,72 z"
         style="fill:#373535;fill-opacity:1;fill-rule:nonzero;stroke:none"
         id="path716" />
    </pattern>
    <inkscape:perspective
       id="perspective10727"
       inkscape:persp3d-origin="0.5 : 0.33333333 : 1"
       inkscape:vp_z="1 : 0.5 : 1"
       inkscape:vp_y="0 : 1000 : 0"
       inkscape:vp_x="0 : 0.5 : 1"
       sodipodi:type="inkscape:persp3d" />
    <pattern
       patternTransform="translate(-55.614,-114.76199)"
       patternUnits="userSpaceOnUse"
       x="0"
       y="0"
       width="72"
       height="72"
       id="pattern742">
      <path
         d="M 0,72 72,72 72,0 0,0 0,72 z"
         style="fill:#373535;fill-opacity:1;fill-rule:nonzero;stroke:none"
         id="path744" />
    </pattern>
    <inkscape:perspective
       id="perspective11313"
       inkscape:persp3d-origin="0.5 : 0.33333333 : 1"
       inkscape:vp_z="1 : 0.5 : 1"
       inkscape:vp_y="0 : 1000 : 0"
       inkscape:vp_x="0 : 0.5 : 1"
       sodipodi:type="inkscape:persp3d" />
    <clipPath
       clipPathUnits="userSpaceOnUse"
       id="clipPath984">
      <path
         d="m 243.67,195.42 3.119,0 0,4.261 -3.119,0 0,-4.261 z"
         id="path986" />
    </clipPath>
    <pattern
       patternTransform="translate(-45.14301,-203.231)"
       patternUnits="userSpaceOnUse"
       x="0"
       y="0"
       width="72"
       height="72"
       id="pattern988">
      <path
         d="M 0,72 72,72 72,0 0,0 0,72 z"
         style="fill:#373535;fill-opacity:1;fill-rule:nonzero;stroke:none"
         id="path990" />
    </pattern>
    <pattern
       patternTransform="translate(-45.14301,-203.231)"
       patternUnits="userSpaceOnUse"
       x="0"
       y="0"
       width="72"
       height="72"
       id="pattern996">
      <path
         d="M 0,72 72,72 72,0 0,0 0,72 z"
         style="fill:#373535;fill-opacity:1;fill-rule:nonzero;stroke:none"
         id="path998" />
    </pattern>
    <pattern
       patternTransform="translate(-45.14301,-203.231)"
       patternUnits="userSpaceOnUse"
       x="0"
       y="0"
       width="72"
       height="72"
       id="pattern1002">
      <path
         d="M 0,72 72,72 72,0 0,0 0,72 z"
         style="fill:#373535;fill-opacity:1;fill-rule:nonzero;stroke:none"
         id="path1004" />
    </pattern>
    <inkscape:perspective
       id="perspective11398"
       inkscape:persp3d-origin="0.5 : 0.33333333 : 1"
       inkscape:vp_z="1 : 0.5 : 1"
       inkscape:vp_y="0 : 1000 : 0"
       inkscape:vp_x="0 : 0.5 : 1"
       sodipodi:type="inkscape:persp3d" />
    <clipPath
       clipPathUnits="userSpaceOnUse"
       id="clipPath824">
      <path
         d="m 243.254,145.847 3.536,0 0,3.536 -3.536,0 0,-3.536 z"
         id="path826" />
    </clipPath>
    <pattern
       patternTransform="translate(-60.51601,-219.879)"
       patternUnits="userSpaceOnUse"
       x="0"
       y="0"
       width="72"
       height="72"
       id="pattern828">
      <path
         d="M 0,72 72,72 72,0 0,0 0,72 z"
         style="fill:#373535;fill-opacity:1;fill-rule:nonzero;stroke:none"
         id="path830" />
    </pattern>
    <pattern
       patternTransform="matrix(1.25,0,0,-1.25,-377.54742,1507.628)"
       patternUnits="userSpaceOnUse"
       x="0"
       y="0"
       width="72"
       height="72"
       id="pattern814">
      <path
         d="M 0,72 72,72 72,0 0,0 0,72 z"
         style="fill:#373535;fill-opacity:1;fill-rule:nonzero;stroke:none"
         id="path816" />
    </pattern>
    <pattern
       patternTransform="translate(-60.51601,-219.879)"
       patternUnits="userSpaceOnUse"
       x="0"
       y="0"
       width="72"
       height="72"
       id="pattern808">
      <path
         d="M 0,72 72,72 72,0 0,0 0,72 z"
         style="fill:#373535;fill-opacity:1;fill-rule:nonzero;stroke:none"
         id="path810" />
    </pattern>
    <inkscape:perspective
       id="perspective11481"
       inkscape:persp3d-origin="0.5 : 0.33333333 : 1"
       inkscape:vp_z="1 : 0.5 : 1"
       inkscape:vp_y="0 : 1000 : 0"
       inkscape:vp_x="0 : 0.5 : 1"
       sodipodi:type="inkscape:persp3d" />
    <clipPath
       clipPathUnits="userSpaceOnUse"
       id="clipPath1060">
      <path
         d="m 243.188,96.576 3.602,0 0,1.891 -3.602,0 0,-1.891 z"
         id="path1062" />
    </clipPath>
    <pattern
       patternTransform="translate(-86.105,-383.99001)"
       patternUnits="userSpaceOnUse"
       x="0"
       y="0"
       width="72"
       height="72"
       id="pattern1064">
      <path
         d="M 0,72 72,72 72,0 0,0 0,72 z"
         style="fill:#373535;fill-opacity:1;fill-rule:nonzero;stroke:none"
         id="path1066" />
    </pattern>
    <pattern
       patternTransform="translate(-86.105,-383.99001)"
       patternUnits="userSpaceOnUse"
       x="0"
       y="0"
       width="72"
       height="72"
       id="pattern1070">
      <path
         d="M 0,72 72,72 72,0 0,0 0,72 z"
         style="fill:#373535;fill-opacity:1;fill-rule:nonzero;stroke:none"
         id="path1072" />
    </pattern>
    <inkscape:perspective
       id="perspective11551"
       inkscape:persp3d-origin="0.5 : 0.33333333 : 1"
       inkscape:vp_z="1 : 0.5 : 1"
       inkscape:vp_y="0 : 1000 : 0"
       inkscape:vp_x="0 : 0.5 : 1"
       sodipodi:type="inkscape:persp3d" />
    <clipPath
       clipPathUnits="userSpaceOnUse"
       id="clipPath1086">
      <path
         d="m 244.132,59.185 2.316,0 0,5.826 -2.316,0 0,-5.826 z"
         id="path1088" />
    </clipPath>
    <pattern
       patternTransform="translate(-87.16901,-307.63901)"
       patternUnits="userSpaceOnUse"
       x="0"
       y="0"
       width="72"
       height="72"
       id="pattern1090">
      <path
         d="M 0,72 72,72 72,0 0,0 0,72 z"
         style="fill:#373535;fill-opacity:1;fill-rule:nonzero;stroke:none"
         id="path1092" />
    </pattern>
    <pattern
       patternTransform="translate(-87.16901,-307.63901)"
       patternUnits="userSpaceOnUse"
       x="0"
       y="0"
       width="72"
       height="72"
       id="pattern1096">
      <path
         d="M 0,72 72,72 72,0 0,0 0,72 z"
         style="fill:#373535;fill-opacity:1;fill-rule:nonzero;stroke:none"
         id="path1098" />
    </pattern>
    <inkscape:perspective
       id="perspective11643"
       inkscape:persp3d-origin="0.5 : 0.33333333 : 1"
       inkscape:vp_z="1 : 0.5 : 1"
       inkscape:vp_y="0 : 1000 : 0"
       inkscape:vp_x="0 : 0.5 : 1"
       sodipodi:type="inkscape:persp3d" />
    <pattern
       patternTransform="matrix(1.25,0,0,-1.25,-388.08585,1521.366)"
       patternUnits="userSpaceOnUse"
       x="0"
       y="0"
       width="72"
       height="72"
       id="pattern852">
      <path
         d="M 0,72 72,72 72,0 0,0 0,72 z"
         style="fill:#373535;fill-opacity:1;fill-rule:nonzero;stroke:none"
         id="path854" />
    </pattern>
    <clipPath
       clipPathUnits="userSpaceOnUse"
       id="clipPath842">
      <path
         d="m 243.973,130.688 2.816,0 0,2.816 -2.816,0 0,-2.816 z"
         id="path844" />
    </clipPath>
    <pattern
       patternTransform="translate(-68.369,-246.27901)"
       patternUnits="userSpaceOnUse"
       x="0"
       y="0"
       width="72"
       height="72"
       id="pattern846">
      <path
         d="M 0,72 72,72 72,0 0,0 0,72 z"
         style="fill:#373535;fill-opacity:1;fill-rule:nonzero;stroke:none"
         id="path848" />
    </pattern>
    <inkscape:perspective
       id="perspective11713"
       inkscape:persp3d-origin="0.5 : 0.33333333 : 1"
       inkscape:vp_z="1 : 0.5 : 1"
       inkscape:vp_y="0 : 1000 : 0"
       inkscape:vp_x="0 : 0.5 : 1"
       sodipodi:type="inkscape:persp3d" />
    <clipPath
       clipPathUnits="userSpaceOnUse"
       id="clipPath1144">
      <path
         d="m 234.55,38.165 12.24,0 0,12.241 -12.24,0 0,-12.241 z"
         id="path1146" />
    </clipPath>
    <pattern
       patternTransform="translate(-70.373,-332.30099)"
       patternUnits="userSpaceOnUse"
       x="0"
       y="0"
       width="72"
       height="72"
       id="pattern1148">
      <path
         d="M 0,72 72,72 72,0 0,0 0,72 z"
         style="fill:#ee333e;fill-opacity:1;fill-rule:nonzero;stroke:none"
         id="path1150" />
    </pattern>
    <pattern
       patternTransform="translate(-70.373,-332.30099)"
       patternUnits="userSpaceOnUse"
       x="0"
       y="0"
       width="72"
       height="72"
       id="pattern1154">
      <path
         d="M 0,72 72,72 72,0 0,0 0,72 z"
         style="fill:#ee333e;fill-opacity:1;fill-rule:nonzero;stroke:none"
         id="path1156" />
    </pattern>
  </defs>
  <sodipodi:namedview
     id="base"
     pagecolor="#ffffff"
     bordercolor="#666666"
     borderopacity="1.0"
     inkscape:pageopacity="0.0"
     inkscape:pageshadow="2"
     inkscape:zoom="7.3141358"
     inkscape:cx="17.844094"
     inkscape:cy="4.6556894"
     inkscape:document-units="px"
     inkscape:current-layer="layer1"
     showgrid="false"
     inkscape:window-width="711"
     inkscape:window-height="586"
     inkscape:window-x="0"
     inkscape:window-y="383"
     inkscape:window-maximized="0"
     showguides="true"
     inkscape:guide-bbox="true">
    <sodipodi:guide
       orientation="1,0"
       position="-5.7423052,14.08232"
       id="guide10751" />
  </sodipodi:namedview>
  <metadata
     id="metadata8615">
    <rdf:RDF>
      <cc:Work
         rdf:about="">
        <dc:format>image/svg+xml</dc:format>
        <dc:type
           rdf:resource="http://purl.org/dc/dcmitype/StillImage" />
        <dc:title></dc:title>
      </cc:Work>
    </rdf:RDF>
  </metadata>
  <g
     inkscape:label="Layer 1"
     inkscape:groupmode="layer"
     id="layer1"
     transform="translate(0,-1036.3622)">
    <g
       transform="matrix(1.25,0,0,-1.25,-292.77092,1099.6525)"
       id="g1140">
      <g
         id="g1142"
         clip-path="url(#clipPath1144)">
        <path
           d="m 245.83,44.285 -0.694,-1.025 -0.497,0 -0.062,0.709 -0.512,-0.016 0.015,-0.648 -0.332,-0.437 -0.347,0.467 0.015,0.634 -0.317,0 -0.016,-0.437 -0.391,0.014 0,0.423 -0.331,0.015 0.346,-0.86 -0.935,-0.137 0.181,-0.286 0.362,0.212 0.211,-0.347 -0.377,-0.226 0.166,-0.273 0.559,0.333 0.558,-0.076 -0.211,-0.498 -0.559,-0.317 0.242,-0.452 0.633,0.301 0.256,-0.422 -0.543,-1.116 -1.237,0.075 -0.241,0.437 0.574,0.408 -0.258,0.438 -0.559,-0.332 -0.542,0.059 0.226,0.53 0.559,0.316 -0.166,0.271 -0.377,-0.196 -0.198,0.347 0.379,0.212 -0.166,0.286 -0.574,-0.724 -0.574,0.724 -0.166,-0.286 0.379,-0.212 -0.197,-0.347 -0.377,0.196 -0.166,-0.271 0.558,-0.316 0.227,-0.53 -0.543,-0.059 -0.559,0.332 -0.258,-0.438 0.575,-0.408 -0.242,-0.437 -1.236,-0.075 -0.544,1.116 0.256,0.422 0.635,-0.301 0.24,0.452 -0.558,0.317 -0.211,0.498 0.558,0.076 0.559,-0.333 0.166,0.273 -0.377,0.226 0.211,0.347 0.362,-0.212 0.181,0.286 -0.92,0.106 0.331,0.891 -0.331,-0.015 0,-0.423 -0.393,-0.014 -0.015,0.437 -0.317,0 0.016,-0.634 -0.348,-0.467 -0.332,0.437 0.016,0.648 -0.513,0.016 -0.062,-0.709 -0.497,0 -0.694,1.025 0.694,1.026 0.497,0 0.062,-0.709 0.513,0.016 -0.016,0.649 0.332,0.436 0.348,-0.467 -0.016,-0.634 0.317,0 0.015,0.437 0.393,-0.013 0,-0.424 0.331,-0.014 -0.347,0.874 0.936,0.122 -0.181,0.286 -0.362,-0.211 -0.211,0.347 0.377,0.226 -0.166,0.272 -0.559,-0.332 -0.558,0.075 0.211,0.499 0.558,0.316 -0.24,0.453 -0.635,-0.302 -0.256,0.422 0.544,1.117 1.236,-0.075 0.242,-0.438 -0.575,-0.408 0.258,-0.437 0.559,0.333 0.543,-0.061 -0.227,-0.528 -0.558,-0.317 0.166,-0.272 0.377,0.197 0.197,-0.349 -0.379,-0.21 0.166,-0.287 0.558,0.723 0.59,-0.723 0.166,0.287 -0.379,0.21 0.198,0.349 0.377,-0.197 0.166,0.272 -0.559,0.317 -0.226,0.528 0.542,0.061 0.559,-0.333 0.258,0.437 -0.574,0.408 0.241,0.438 1.237,0.075 0.543,-1.117 -0.256,-0.422 -0.633,0.302 -0.242,-0.453 0.559,-0.316 0.211,-0.499 -0.558,-0.075 -0.559,0.332 -0.166,-0.272 0.377,-0.226 -0.211,-0.347 -0.362,0.211 -0.181,-0.286 0.935,-0.122 -0.346,-0.874 0.331,0.014 0,0.424 0.391,0.013 0.016,-0.437 0.317,0 -0.015,0.634 0.347,0.467 0.332,-0.436 -0.015,-0.649 0.512,-0.016 0.062,0.709 0.497,0 0.694,-1.026 z m -3.002,3.729 -0.015,0 -1.675,-2.671 0.211,-0.122 1.479,2.793 z m 2.143,-3.729 -3.153,0.12 0,-0.239 3.153,0.119 z m -2.733,0.92 -0.542,0.138 -0.709,-0.861 1.117,0.165 0.134,0.558 z m -1.16,0.515 -0.424,0.406 -0.376,-0.406 0.376,-1.042 0.424,1.042 z m -0.875,-0.377 -1.675,2.671 -0.016,0 1.48,-2.793 0.211,0.122 z m 2.035,-1.963 -0.15,0.529 -1.101,0.195 0.693,-0.889 0.558,0.165 z m -1.916,1.102 -0.694,0.89 -0.557,-0.167 0.15,-0.527 1.101,-0.196 z m 2.506,-3.923 -1.479,2.792 -0.211,-0.123 1.675,-2.669 0.015,0 z m -1.797,2.309 -0.377,1.041 -0.42,-1.041 0.42,-0.408 0.377,0.408 z m -0.709,1.236 -1.115,-0.166 -0.136,-0.558 0.542,-0.137 0.709,0.861 z m -0.798,0.062 0,0.239 -3.154,-0.12 3.154,-0.119 z m 0.679,-0.938 -0.211,0.123 -1.48,-2.792 0.016,0 1.675,2.669"
           style="fill:url(#pattern1148);fill-opacity:1;fill-rule:nonzero;stroke:none"
           id="path1152" />
        <path
           d="m 245.431,38.453 c 0.591,0 1.071,0.482 1.071,1.072 l 0,9.522 c 0,0.59 -0.48,1.071 -1.071,1.071 l -9.522,0 c -0.59,0 -1.071,-0.481 -1.071,-1.071 l 0,-9.522 c 0,-0.59 0.481,-1.072 1.071,-1.072 l 9.522,0 z"
           style="fill:none;stroke:url(#pattern1154);stroke-width:0.57599998;stroke-linecap:butt;stroke-linejoin:miter;stroke-miterlimit:4;stroke-opacity:1;stroke-dasharray:none"
           id="path1158" />
      </g>
    </g>
  </g>
</svg>
