<?xml version="1.0" encoding="UTF-8" standalone="no"?>
<!-- Created with Inkscape (http://www.inkscape.org/) -->

<svg
   xmlns:dc="http://purl.org/dc/elements/1.1/"
   xmlns:cc="http://creativecommons.org/ns#"
   xmlns:rdf="http://www.w3.org/1999/02/22-rdf-syntax-ns#"
   xmlns:svg="http://www.w3.org/2000/svg"
   xmlns="http://www.w3.org/2000/svg"
   xmlns:xlink="http://www.w3.org/1999/xlink"
   xmlns:sodipodi="http://sodipodi.sourceforge.net/DTD/sodipodi-0.dtd"
   xmlns:inkscape="http://www.inkscape.org/namespaces/inkscape"
   width="64"
   height="64"
   id="svg8610"
   version="1.1"
   inkscape:version="0.47 r22583"
   sodipodi:docname="usgs-map_symbol-school.svg">
  <defs
     id="defs8612">
    <pattern
       inkscape:collect="always"
       xlink:href="#pattern1650-4"
       id="pattern8814"
       patternTransform="matrix(11.590074,0,0,-11.590074,-3357.0786,5936.5599)" />
    <pattern
       inkscape:collect="always"
       xlink:href="#pattern1656-0"
       id="pattern8811"
       patternTransform="matrix(11.590074,0,0,-11.590074,-3357.0786,5936.5599)" />
    <pattern
       inkscape:collect="always"
       xlink:href="#pattern1662-1"
       id="pattern8808"
       patternTransform="matrix(11.590074,0,0,-11.590074,-3357.0786,5936.5599)" />
    <pattern
       inkscape:collect="always"
       xlink:href="#pattern1668-6"
       id="pattern8805"
       patternTransform="matrix(11.590074,0,0,-11.590074,-3357.0786,5936.5599)" />
    <pattern
       inkscape:collect="always"
       xlink:href="#pattern1674-5"
       id="pattern8750"
       patternTransform="matrix(1.25,0,0,-1.25,-364.025,532.8362)" />
    <inkscape:perspective
       sodipodi:type="inkscape:persp3d"
       inkscape:vp_x="0 : 526.18109 : 1"
       inkscape:vp_y="0 : 1000 : 0"
       inkscape:vp_z="744.09448 : 526.18109 : 1"
       inkscape:persp3d-origin="372.04724 : 350.78739 : 1"
       id="perspective8618" />
    <inkscape:perspective
       id="perspective8628"
       inkscape:persp3d-origin="0.5 : 0.33333333 : 1"
       inkscape:vp_z="1 : 0.5 : 1"
       inkscape:vp_y="0 : 1000 : 0"
       inkscape:vp_x="0 : 0.5 : 1"
       sodipodi:type="inkscape:persp3d" />
    <pattern
       patternTransform="matrix(1.25,0,0,-1.25,-57.985268,1828.1927)"
       patternUnits="userSpaceOnUse"
       x="0"
       y="0"
       width="72"
       height="72"
       id="pattern1674">
      <path
         d="M 0,72 72,72 72,0 0,0 0,72 z"
         style="fill:#373535;fill-opacity:1;fill-rule:nonzero;stroke:none"
         id="path1676" />
    </pattern>
    <clipPath
       clipPathUnits="userSpaceOnUse"
       id="clipPath1646">
      <path
         d="m 237.061,380.352 9.765,0 0,4.352 -9.765,0 0,-4.352 z"
         id="path1648" />
    </clipPath>
    <pattern
       patternTransform="translate(-54.159,-41.565)"
       patternUnits="userSpaceOnUse"
       x="0"
       y="0"
       width="72"
       height="72"
       id="pattern1650">
      <path
         d="M 0,72 72,72 72,0 0,0 0,72 z"
         style="fill:#373535;fill-opacity:1;fill-rule:nonzero;stroke:none"
         id="path1652" />
    </pattern>
    <pattern
       patternTransform="translate(-54.159,-41.565)"
       patternUnits="userSpaceOnUse"
       x="0"
       y="0"
       width="72"
       height="72"
       id="pattern1656">
      <path
         d="M 0,72 72,72 72,0 0,0 0,72 z"
         style="fill:#373535;fill-opacity:1;fill-rule:nonzero;stroke:none"
         id="path1658" />
    </pattern>
    <pattern
       patternTransform="translate(-54.159,-41.565)"
       patternUnits="userSpaceOnUse"
       x="0"
       y="0"
       width="72"
       height="72"
       id="pattern1662">
      <path
         d="M 0,72 72,72 72,0 0,0 0,72 z"
         style="fill:#373535;fill-opacity:1;fill-rule:nonzero;stroke:none"
         id="path1664" />
    </pattern>
    <pattern
       patternTransform="translate(-54.159,-41.565)"
       patternUnits="userSpaceOnUse"
       x="0"
       y="0"
       width="72"
       height="72"
       id="pattern1668">
      <path
         d="M 0,72 72,72 72,0 0,0 0,72 z"
         style="fill:#373535;fill-opacity:1;fill-rule:nonzero;stroke:none"
         id="path1670" />
    </pattern>
    <inkscape:perspective
       id="perspective8628-7"
       inkscape:persp3d-origin="0.5 : 0.33333333 : 1"
       inkscape:vp_z="1 : 0.5 : 1"
       inkscape:vp_y="0 : 1000 : 0"
       inkscape:vp_x="0 : 0.5 : 1"
       sodipodi:type="inkscape:persp3d" />
    <pattern
       patternTransform="matrix(1.25,0,0,-1.25,-348.34241,1561.7641)"
       patternUnits="userSpaceOnUse"
       x="0"
       y="0"
       width="72"
       height="72"
       id="pattern1674-5">
      <path
         d="M 0,72 72,72 72,0 0,0 0,72 z"
         style="fill:#373535;fill-opacity:1;fill-rule:nonzero;stroke:none"
         id="path1676-9" />
    </pattern>
    <clipPath
       clipPathUnits="userSpaceOnUse"
       id="clipPath1646-2">
      <path
         d="m 237.061,380.352 9.765,0 0,4.352 -9.765,0 0,-4.352 z"
         id="path1648-2" />
    </clipPath>
    <pattern
       patternTransform="translate(-54.159,-41.565)"
       patternUnits="userSpaceOnUse"
       x="0"
       y="0"
       width="72"
       height="72"
       id="pattern1650-8">
      <path
         d="M 0,72 72,72 72,0 0,0 0,72 z"
         style="fill:#373535;fill-opacity:1;fill-rule:nonzero;stroke:none"
         id="path1652-9" />
    </pattern>
    <pattern
       patternTransform="translate(-54.159,-41.565)"
       patternUnits="userSpaceOnUse"
       x="0"
       y="0"
       width="72"
       height="72"
       id="pattern1656-7">
      <path
         d="M 0,72 72,72 72,0 0,0 0,72 z"
         style="fill:#373535;fill-opacity:1;fill-rule:nonzero;stroke:none"
         id="path1658-3" />
    </pattern>
    <pattern
       patternTransform="translate(-54.159,-41.565)"
       patternUnits="userSpaceOnUse"
       x="0"
       y="0"
       width="72"
       height="72"
       id="pattern1662-6">
      <path
         d="M 0,72 72,72 72,0 0,0 0,72 z"
         style="fill:#373535;fill-opacity:1;fill-rule:nonzero;stroke:none"
         id="path1664-1" />
    </pattern>
    <pattern
       patternTransform="translate(-54.159,-41.565)"
       patternUnits="userSpaceOnUse"
       x="0"
       y="0"
       width="72"
       height="72"
       id="pattern1668-2">
      <path
         d="M 0,72 72,72 72,0 0,0 0,72 z"
         style="fill:#373535;fill-opacity:1;fill-rule:nonzero;stroke:none"
         id="path1670-9" />
    </pattern>
    <pattern
       patternUnits="userSpaceOnUse"
       width="12.20625"
       height="5.44"
       patternTransform="matrix(5.3595932,0,0,5.3595932,7.8254492,1022.4996)"
       id="pattern8741">
      <g
         id="g1642"
         transform="matrix(1.25,0,0,-1.25,-296.32625,480.88)">
        <g
           clip-path="url(#clipPath1646-2)"
           id="g1644">
          <path
             id="path1654"
             style="fill:url(#pattern1650-8);fill-opacity:1;fill-rule:nonzero;stroke:none"
             d="m 245.206,381.792 1.44,0 0,-1.44 -1.44,0 0,1.44 z" />
          <path
             id="path1660"
             style="fill:none;stroke:url(#pattern1656-7);stroke-width:0.22;stroke-linecap:butt;stroke-linejoin:miter;stroke-miterlimit:4;stroke-opacity:1;stroke-dasharray:none"
             d="m 245.926,384.659 0,-2.88 m -0.9,1.555 1.8,0" />
          <path
             id="path1666"
             style="fill:url(#pattern1662-6);fill-opacity:1;fill-rule:nonzero;stroke:none"
             d="m 237.061,381.792 1.44,0 0,-1.44 -1.44,0 0,1.44 z" />
          <path
             id="path1672"
             style="fill:none;stroke:url(#pattern1668-2);stroke-width:0.22;stroke-linecap:butt;stroke-linejoin:miter;stroke-miterlimit:4;stroke-opacity:1;stroke-dasharray:none"
             d="m 237.782,384.649 0,-2.88" />
        </g>
      </g>
      <path
         id="path1678"
         style="fill:url(#pattern8750);fill-opacity:1;fill-rule:nonzero;stroke:none"
         d="m 0.776249,0 2.7,0.9013 -2.7,0.8987 0,-1.8" />
    </pattern>
    <inkscape:perspective
       id="perspective8628-3"
       inkscape:persp3d-origin="0.5 : 0.33333333 : 1"
       inkscape:vp_z="1 : 0.5 : 1"
       inkscape:vp_y="0 : 1000 : 0"
       inkscape:vp_x="0 : 0.5 : 1"
       sodipodi:type="inkscape:persp3d" />
    <pattern
       patternTransform="matrix(11.590074,0,0,-11.590074,-3357.0786,5936.5594)"
       patternUnits="userSpaceOnUse"
       x="0"
       y="0"
       width="72"
       height="72"
       id="pattern1674-1">
      <path
         d="M 0,72 72,72 72,0 0,0 0,72 z"
         style="fill:#373535;fill-opacity:1;fill-rule:nonzero;stroke:none"
         id="path1676-94" />
    </pattern>
    <clipPath
       clipPathUnits="userSpaceOnUse"
       id="clipPath1646-7">
      <path
         d="m 237.061,380.352 9.765,0 0,4.352 -9.765,0 0,-4.352 z"
         id="path1648-8" />
    </clipPath>
    <pattern
       patternTransform="translate(-54.159,-41.565)"
       patternUnits="userSpaceOnUse"
       x="0"
       y="0"
       width="72"
       height="72"
       id="pattern1650-4">
      <path
         d="M 0,72 72,72 72,0 0,0 0,72 z"
         style="fill:#373535;fill-opacity:1;fill-rule:nonzero;stroke:none"
         id="path1652-5" />
    </pattern>
    <pattern
       patternTransform="translate(-54.159,-41.565)"
       patternUnits="userSpaceOnUse"
       x="0"
       y="0"
       width="72"
       height="72"
       id="pattern1656-0">
      <path
         d="M 0,72 72,72 72,0 0,0 0,72 z"
         style="fill:#373535;fill-opacity:1;fill-rule:nonzero;stroke:none"
         id="path1658-36" />
    </pattern>
    <pattern
       patternTransform="translate(-54.159,-41.565)"
       patternUnits="userSpaceOnUse"
       x="0"
       y="0"
       width="72"
       height="72"
       id="pattern1662-1">
      <path
         d="M 0,72 72,72 72,0 0,0 0,72 z"
         style="fill:#373535;fill-opacity:1;fill-rule:nonzero;stroke:none"
         id="path1664-0" />
    </pattern>
    <pattern
       patternTransform="translate(-54.159,-41.565)"
       patternUnits="userSpaceOnUse"
       x="0"
       y="0"
       width="72"
       height="72"
       id="pattern1668-6">
      <path
         d="M 0,72 72,72 72,0 0,0 0,72 z"
         style="fill:#373535;fill-opacity:1;fill-rule:nonzero;stroke:none"
         id="path1670-3" />
    </pattern>
  </defs>
  <sodipodi:namedview
     id="base"
     pagecolor="#ffffff"
     bordercolor="#666666"
     borderopacity="1.0"
     inkscape:pageopacity="0.0"
     inkscape:pageshadow="2"
     inkscape:zoom="2.8"
     inkscape:cx="91.675881"
     inkscape:cy="-3.2087168"
     inkscape:document-units="px"
     inkscape:current-layer="layer1"
     showgrid="false"
     inkscape:window-width="711"
     inkscape:window-height="586"
     inkscape:window-x="109"
     inkscape:window-y="132"
     inkscape:window-maximized="0" />
  <metadata
     id="metadata8615">
    <rdf:RDF>
      <cc:Work
         rdf:about="">
        <dc:format>image/svg+xml</dc:format>
        <dc:type
           rdf:resource="http://purl.org/dc/dcmitype/StillImage" />
        <dc:title></dc:title>
      </cc:Work>
    </rdf:RDF>
  </metadata>
  <g
     inkscape:label="Layer 1"
     inkscape:groupmode="layer"
     id="layer1"
     transform="translate(0,-988.3622)">
    <path
       d="m 18.182733,1029.821 16.689706,0 0,16.6897 -16.689706,0 0,-16.6897 z"
       style="fill:url(#pattern8808);fill-opacity:1;fill-rule:nonzero;stroke:none"
       id="path1666-5" />
    <path
       d="m 26.539176,996.70813 0,33.37937"
       style="fill:none;stroke:url(#pattern8805);stroke-width:2.5;stroke-linecap:butt;stroke-linejoin:miter;stroke-miterlimit:4;stroke-opacity:1;stroke-dasharray:none"
       id="path1672-5" />
    <path
       d="m 25.380016,996.0708 25.034559,8.3569 -25.034559,8.3328 0,-16.6897"
       style="fill:url(#pattern1674-1);fill-opacity:1;fill-rule:nonzero;stroke:none"
       id="path1678-4" />
  </g>
</svg>
