<?xml version="1.0" encoding="UTF-8" standalone="no"?>
<!-- Created with Inkscape (http://www.inkscape.org/) -->

<svg
   xmlns:dc="http://purl.org/dc/elements/1.1/"
   xmlns:cc="http://creativecommons.org/ns#"
   xmlns:rdf="http://www.w3.org/1999/02/22-rdf-syntax-ns#"
   xmlns:svg="http://www.w3.org/2000/svg"
   xmlns="http://www.w3.org/2000/svg"
   xmlns:xlink="http://www.w3.org/1999/xlink"
   xmlns:sodipodi="http://sodipodi.sourceforge.net/DTD/sodipodi-0.dtd"
   xmlns:inkscape="http://www.inkscape.org/namespaces/inkscape"
   width="8"
   height="8"
   id="svg8610"
   version="1.1"
   inkscape:version="0.47 r22583"
   sodipodi:docname="usgs-map_symbol-guard_station.svg">
  <defs
     id="defs8612">
    <pattern
       inkscape:collect="always"
       xlink:href="#pattern1674-5"
       id="pattern8750"
       patternTransform="matrix(1.25,0,0,-1.25,-364.025,532.8362)" />
    <inkscape:perspective
       sodipodi:type="inkscape:persp3d"
       inkscape:vp_x="0 : 526.18109 : 1"
       inkscape:vp_y="0 : 1000 : 0"
       inkscape:vp_z="744.09448 : 526.18109 : 1"
       inkscape:persp3d-origin="372.04724 : 350.78739 : 1"
       id="perspective8618" />
    <inkscape:perspective
       id="perspective8628"
       inkscape:persp3d-origin="0.5 : 0.33333333 : 1"
       inkscape:vp_z="1 : 0.5 : 1"
       inkscape:vp_y="0 : 1000 : 0"
       inkscape:vp_x="0 : 0.5 : 1"
       sodipodi:type="inkscape:persp3d" />
    <pattern
       patternTransform="matrix(1.25,0,0,-1.25,-57.985268,1828.1927)"
       patternUnits="userSpaceOnUse"
       x="0"
       y="0"
       width="72"
       height="72"
       id="pattern1674">
      <path
         d="M 0,72 72,72 72,0 0,0 0,72 z"
         style="fill:#373535;fill-opacity:1;fill-rule:nonzero;stroke:none"
         id="path1676" />
    </pattern>
    <clipPath
       clipPathUnits="userSpaceOnUse"
       id="clipPath1646">
      <path
         d="m 237.061,380.352 9.765,0 0,4.352 -9.765,0 0,-4.352 z"
         id="path1648" />
    </clipPath>
    <pattern
       patternTransform="translate(-54.159,-41.565)"
       patternUnits="userSpaceOnUse"
       x="0"
       y="0"
       width="72"
       height="72"
       id="pattern1650">
      <path
         d="M 0,72 72,72 72,0 0,0 0,72 z"
         style="fill:#373535;fill-opacity:1;fill-rule:nonzero;stroke:none"
         id="path1652" />
    </pattern>
    <pattern
       patternTransform="translate(-54.159,-41.565)"
       patternUnits="userSpaceOnUse"
       x="0"
       y="0"
       width="72"
       height="72"
       id="pattern1656">
      <path
         d="M 0,72 72,72 72,0 0,0 0,72 z"
         style="fill:#373535;fill-opacity:1;fill-rule:nonzero;stroke:none"
         id="path1658" />
    </pattern>
    <pattern
       patternTransform="translate(-54.159,-41.565)"
       patternUnits="userSpaceOnUse"
       x="0"
       y="0"
       width="72"
       height="72"
       id="pattern1662">
      <path
         d="M 0,72 72,72 72,0 0,0 0,72 z"
         style="fill:#373535;fill-opacity:1;fill-rule:nonzero;stroke:none"
         id="path1664" />
    </pattern>
    <pattern
       patternTransform="translate(-54.159,-41.565)"
       patternUnits="userSpaceOnUse"
       x="0"
       y="0"
       width="72"
       height="72"
       id="pattern1668">
      <path
         d="M 0,72 72,72 72,0 0,0 0,72 z"
         style="fill:#373535;fill-opacity:1;fill-rule:nonzero;stroke:none"
         id="path1670" />
    </pattern>
    <inkscape:perspective
       id="perspective8628-7"
       inkscape:persp3d-origin="0.5 : 0.33333333 : 1"
       inkscape:vp_z="1 : 0.5 : 1"
       inkscape:vp_y="0 : 1000 : 0"
       inkscape:vp_x="0 : 0.5 : 1"
       sodipodi:type="inkscape:persp3d" />
    <pattern
       patternTransform="matrix(1.25,0,0,-1.25,-348.34241,1561.7641)"
       patternUnits="userSpaceOnUse"
       x="0"
       y="0"
       width="72"
       height="72"
       id="pattern1674-5">
      <path
         d="M 0,72 72,72 72,0 0,0 0,72 z"
         style="fill:#373535;fill-opacity:1;fill-rule:nonzero;stroke:none"
         id="path1676-9" />
    </pattern>
    <clipPath
       clipPathUnits="userSpaceOnUse"
       id="clipPath1646-2">
      <path
         d="m 237.061,380.352 9.765,0 0,4.352 -9.765,0 0,-4.352 z"
         id="path1648-2" />
    </clipPath>
    <pattern
       patternTransform="translate(-54.159,-41.565)"
       patternUnits="userSpaceOnUse"
       x="0"
       y="0"
       width="72"
       height="72"
       id="pattern1650-8">
      <path
         d="M 0,72 72,72 72,0 0,0 0,72 z"
         style="fill:#373535;fill-opacity:1;fill-rule:nonzero;stroke:none"
         id="path1652-9" />
    </pattern>
    <pattern
       patternTransform="translate(-54.159,-41.565)"
       patternUnits="userSpaceOnUse"
       x="0"
       y="0"
       width="72"
       height="72"
       id="pattern1656-7">
      <path
         d="M 0,72 72,72 72,0 0,0 0,72 z"
         style="fill:#373535;fill-opacity:1;fill-rule:nonzero;stroke:none"
         id="path1658-3" />
    </pattern>
    <pattern
       patternTransform="translate(-54.159,-41.565)"
       patternUnits="userSpaceOnUse"
       x="0"
       y="0"
       width="72"
       height="72"
       id="pattern1662-6">
      <path
         d="M 0,72 72,72 72,0 0,0 0,72 z"
         style="fill:#373535;fill-opacity:1;fill-rule:nonzero;stroke:none"
         id="path1664-1" />
    </pattern>
    <pattern
       patternTransform="translate(-54.159,-41.565)"
       patternUnits="userSpaceOnUse"
       x="0"
       y="0"
       width="72"
       height="72"
       id="pattern1668-2">
      <path
         d="M 0,72 72,72 72,0 0,0 0,72 z"
         style="fill:#373535;fill-opacity:1;fill-rule:nonzero;stroke:none"
         id="path1670-9" />
    </pattern>
    <pattern
       patternUnits="userSpaceOnUse"
       width="12.20625"
       height="5.44"
       patternTransform="matrix(5.3595932,0,0,5.3595932,7.8254492,1022.4996)"
       id="pattern8741">
      <g
         id="g1642"
         transform="matrix(1.25,0,0,-1.25,-296.32625,480.88)">
        <g
           clip-path="url(#clipPath1646-2)"
           id="g1644">
          <path
             id="path1654"
             style="fill:url(#pattern1650-8);fill-opacity:1;fill-rule:nonzero;stroke:none"
             d="m 245.206,381.792 1.44,0 0,-1.44 -1.44,0 0,1.44 z" />
          <path
             id="path1660"
             style="fill:none;stroke:url(#pattern1656-7);stroke-width:0.22;stroke-linecap:butt;stroke-linejoin:miter;stroke-miterlimit:4;stroke-opacity:1;stroke-dasharray:none"
             d="m 245.926,384.659 0,-2.88 m -0.9,1.555 1.8,0" />
          <path
             id="path1666"
             style="fill:url(#pattern1662-6);fill-opacity:1;fill-rule:nonzero;stroke:none"
             d="m 237.061,381.792 1.44,0 0,-1.44 -1.44,0 0,1.44 z" />
          <path
             id="path1672"
             style="fill:none;stroke:url(#pattern1668-2);stroke-width:0.22;stroke-linecap:butt;stroke-linejoin:miter;stroke-miterlimit:4;stroke-opacity:1;stroke-dasharray:none"
             d="m 237.782,384.649 0,-2.88" />
        </g>
      </g>
      <path
         id="path1678"
         style="fill:url(#pattern8750);fill-opacity:1;fill-rule:nonzero;stroke:none"
         d="m 0.776249,0 2.7,0.9013 -2.7,0.8987 0,-1.8" />
    </pattern>
    <inkscape:perspective
       id="perspective8628-3"
       inkscape:persp3d-origin="0.5 : 0.33333333 : 1"
       inkscape:vp_z="1 : 0.5 : 1"
       inkscape:vp_y="0 : 1000 : 0"
       inkscape:vp_x="0 : 0.5 : 1"
       sodipodi:type="inkscape:persp3d" />
    <pattern
       patternTransform="matrix(11.590074,0,0,-11.590074,-3357.0786,5936.5594)"
       patternUnits="userSpaceOnUse"
       x="0"
       y="0"
       width="72"
       height="72"
       id="pattern1674-1">
      <path
         d="M 0,72 72,72 72,0 0,0 0,72 z"
         style="fill:#373535;fill-opacity:1;fill-rule:nonzero;stroke:none"
         id="path1676-94" />
    </pattern>
    <clipPath
       clipPathUnits="userSpaceOnUse"
       id="clipPath1646-7">
      <path
         d="m 237.061,380.352 9.765,0 0,4.352 -9.765,0 0,-4.352 z"
         id="path1648-8" />
    </clipPath>
    <pattern
       patternTransform="translate(-54.159,-41.565)"
       patternUnits="userSpaceOnUse"
       x="0"
       y="0"
       width="72"
       height="72"
       id="pattern1650-4">
      <path
         d="M 0,72 72,72 72,0 0,0 0,72 z"
         style="fill:#373535;fill-opacity:1;fill-rule:nonzero;stroke:none"
         id="path1652-5" />
    </pattern>
    <pattern
       patternTransform="translate(-54.159,-41.565)"
       patternUnits="userSpaceOnUse"
       x="0"
       y="0"
       width="72"
       height="72"
       id="pattern1656-0">
      <path
         d="M 0,72 72,72 72,0 0,0 0,72 z"
         style="fill:#373535;fill-opacity:1;fill-rule:nonzero;stroke:none"
         id="path1658-36" />
    </pattern>
    <pattern
       patternTransform="translate(-54.159,-41.565)"
       patternUnits="userSpaceOnUse"
       x="0"
       y="0"
       width="72"
       height="72"
       id="pattern1662-1">
      <path
         d="M 0,72 72,72 72,0 0,0 0,72 z"
         style="fill:#373535;fill-opacity:1;fill-rule:nonzero;stroke:none"
         id="path1664-0" />
    </pattern>
    <pattern
       patternTransform="translate(-54.159,-41.565)"
       patternUnits="userSpaceOnUse"
       x="0"
       y="0"
       width="72"
       height="72"
       id="pattern1668-6">
      <path
         d="M 0,72 72,72 72,0 0,0 0,72 z"
         style="fill:#373535;fill-opacity:1;fill-rule:nonzero;stroke:none"
         id="path1670-3" />
    </pattern>
    <inkscape:perspective
       id="perspective10421"
       inkscape:persp3d-origin="0.5 : 0.33333333 : 1"
       inkscape:vp_z="1 : 0.5 : 1"
       inkscape:vp_y="0 : 1000 : 0"
       inkscape:vp_x="0 : 0.5 : 1"
       sodipodi:type="inkscape:persp3d" />
    <clipPath
       clipPathUnits="userSpaceOnUse"
       id="clipPath700">
      <path
         d="m 231.203,338.67 15.586,0 0,-17.536 -15.586,0 0,17.536 z"
         id="path702" />
    </clipPath>
    <pattern
       patternTransform="translate(-55.515,-70.306)"
       patternUnits="userSpaceOnUse"
       x="0"
       y="0"
       width="72"
       height="72"
       id="pattern704">
      <path
         d="M 0,72 72,72 72,0 0,0 0,72 z"
         style="fill:#373535;fill-opacity:1;fill-rule:nonzero;stroke:none"
         id="path706" />
    </pattern>
    <pattern
       patternTransform="matrix(1.25,0,0,-1.25,-351.49473,1535.2204)"
       patternUnits="userSpaceOnUse"
       x="0"
       y="0"
       width="72"
       height="72"
       id="pattern690">
      <path
         d="M 0,72 72,72 72,0 0,0 0,72 z"
         style="fill:#373535;fill-opacity:1;fill-rule:nonzero;stroke:none"
         id="path692" />
    </pattern>
    <clipPath
       clipPathUnits="userSpaceOnUse"
       id="clipPath674">
      <path
         d="m 231.203,338.67 15.586,0 0,-17.536 -15.586,0 0,17.536 z"
         id="path676" />
    </clipPath>
    <pattern
       patternTransform="translate(-55.515,-70.306)"
       patternUnits="userSpaceOnUse"
       x="0"
       y="0"
       width="72"
       height="72"
       id="pattern678">
      <path
         d="M 0,72 72,72 72,0 0,0 0,72 z"
         style="fill:#373535;fill-opacity:1;fill-rule:nonzero;stroke:none"
         id="path680" />
    </pattern>
    <pattern
       patternTransform="translate(-55.515,-70.306)"
       patternUnits="userSpaceOnUse"
       x="0"
       y="0"
       width="72"
       height="72"
       id="pattern684">
      <path
         d="M 0,72 72,72 72,0 0,0 0,72 z"
         style="fill:#373535;fill-opacity:1;fill-rule:nonzero;stroke:none"
         id="path686" />
    </pattern>
    <inkscape:perspective
       id="perspective10421-7"
       inkscape:persp3d-origin="0.5 : 0.33333333 : 1"
       inkscape:vp_z="1 : 0.5 : 1"
       inkscape:vp_y="0 : 1000 : 0"
       inkscape:vp_x="0 : 0.5 : 1"
       sodipodi:type="inkscape:persp3d" />
    <clipPath
       clipPathUnits="userSpaceOnUse"
       id="clipPath700-6">
      <path
         d="m 231.203,338.67 15.586,0 0,-17.536 -15.586,0 0,17.536 z"
         id="path702-5" />
    </clipPath>
    <pattern
       patternTransform="translate(-55.515,-70.306)"
       patternUnits="userSpaceOnUse"
       x="0"
       y="0"
       width="72"
       height="72"
       id="pattern704-6">
      <path
         d="M 0,72 72,72 72,0 0,0 0,72 z"
         style="fill:#373535;fill-opacity:1;fill-rule:nonzero;stroke:none"
         id="path706-9" />
    </pattern>
    <pattern
       patternTransform="matrix(1.25,0,0,-1.25,-312.05062,1538.314)"
       patternUnits="userSpaceOnUse"
       x="0"
       y="0"
       width="72"
       height="72"
       id="pattern690-3">
      <path
         d="M 0,72 72,72 72,0 0,0 0,72 z"
         style="fill:#373535;fill-opacity:1;fill-rule:nonzero;stroke:none"
         id="path692-7" />
    </pattern>
    <clipPath
       clipPathUnits="userSpaceOnUse"
       id="clipPath674-4">
      <path
         d="m 231.203,338.67 15.586,0 0,-17.536 -15.586,0 0,17.536 z"
         id="path676-5" />
    </clipPath>
    <pattern
       patternTransform="translate(-55.515,-70.306)"
       patternUnits="userSpaceOnUse"
       x="0"
       y="0"
       width="72"
       height="72"
       id="pattern678-2">
      <path
         d="M 0,72 72,72 72,0 0,0 0,72 z"
         style="fill:#373535;fill-opacity:1;fill-rule:nonzero;stroke:none"
         id="path680-5" />
    </pattern>
    <pattern
       patternTransform="translate(-55.515,-70.306)"
       patternUnits="userSpaceOnUse"
       x="0"
       y="0"
       width="72"
       height="72"
       id="pattern684-4">
      <path
         d="M 0,72 72,72 72,0 0,0 0,72 z"
         style="fill:#373535;fill-opacity:1;fill-rule:nonzero;stroke:none"
         id="path686-7" />
    </pattern>
    <inkscape:perspective
       id="perspective10568"
       inkscape:persp3d-origin="0.5 : 0.33333333 : 1"
       inkscape:vp_z="1 : 0.5 : 1"
       inkscape:vp_y="0 : 1000 : 0"
       inkscape:vp_x="0 : 0.5 : 1"
       sodipodi:type="inkscape:persp3d" />
    <pattern
       patternTransform="matrix(1.25,0,0,-1.25,-335.7137,1540.3668)"
       patternUnits="userSpaceOnUse"
       x="0"
       y="0"
       width="72"
       height="72"
       id="pattern732">
      <path
         d="M 0,72 72,72 72,0 0,0 0,72 z"
         style="fill:#373535;fill-opacity:1;fill-rule:nonzero;stroke:none"
         id="path734" />
    </pattern>
    <pattern
       patternTransform="matrix(1.25,0,0,-1.25,-335.7137,1540.3668)"
       patternUnits="userSpaceOnUse"
       x="0"
       y="0"
       width="72"
       height="72"
       id="pattern726">
      <path
         d="M 0,72 72,72 72,0 0,0 0,72 z"
         style="fill:#373535;fill-opacity:1;fill-rule:nonzero;stroke:none"
         id="path728" />
    </pattern>
    <pattern
       patternTransform="matrix(1.25,0,0,-1.25,-335.7137,1540.3668)"
       patternUnits="userSpaceOnUse"
       x="0"
       y="0"
       width="72"
       height="72"
       id="pattern720">
      <path
         d="M 0,72 72,72 72,0 0,0 0,72 z"
         style="fill:#373535;fill-opacity:1;fill-rule:nonzero;stroke:none"
         id="path722" />
    </pattern>
    <pattern
       patternTransform="translate(-32.548,-85.00101)"
       patternUnits="userSpaceOnUse"
       x="0"
       y="0"
       width="72"
       height="72"
       id="pattern714">
      <path
         d="M 0,72 72,72 72,0 0,0 0,72 z"
         style="fill:#373535;fill-opacity:1;fill-rule:nonzero;stroke:none"
         id="path716" />
    </pattern>
    <pattern
       patternTransform="matrix(1.25,0,0,-1.25,-370.22502,1561.5874)"
       id="pattern10734"
       xlink:href="#pattern742"
       inkscape:collect="always" />
    <inkscape:perspective
       id="perspective10727"
       inkscape:persp3d-origin="0.5 : 0.33333333 : 1"
       inkscape:vp_z="1 : 0.5 : 1"
       inkscape:vp_y="0 : 1000 : 0"
       inkscape:vp_x="0 : 0.5 : 1"
       sodipodi:type="inkscape:persp3d" />
    <pattern
       patternTransform="translate(-55.614,-114.76199)"
       patternUnits="userSpaceOnUse"
       x="0"
       y="0"
       width="72"
       height="72"
       id="pattern742">
      <path
         d="M 0,72 72,72 72,0 0,0 0,72 z"
         style="fill:#373535;fill-opacity:1;fill-rule:nonzero;stroke:none"
         id="path744" />
    </pattern>
    <inkscape:perspective
       id="perspective11313"
       inkscape:persp3d-origin="0.5 : 0.33333333 : 1"
       inkscape:vp_z="1 : 0.5 : 1"
       inkscape:vp_y="0 : 1000 : 0"
       inkscape:vp_x="0 : 0.5 : 1"
       sodipodi:type="inkscape:persp3d" />
    <clipPath
       clipPathUnits="userSpaceOnUse"
       id="clipPath984">
      <path
         d="m 243.67,195.42 3.119,0 0,4.261 -3.119,0 0,-4.261 z"
         id="path986" />
    </clipPath>
    <pattern
       patternTransform="translate(-45.14301,-203.231)"
       patternUnits="userSpaceOnUse"
       x="0"
       y="0"
       width="72"
       height="72"
       id="pattern988">
      <path
         d="M 0,72 72,72 72,0 0,0 0,72 z"
         style="fill:#373535;fill-opacity:1;fill-rule:nonzero;stroke:none"
         id="path990" />
    </pattern>
    <pattern
       patternTransform="translate(-45.14301,-203.231)"
       patternUnits="userSpaceOnUse"
       x="0"
       y="0"
       width="72"
       height="72"
       id="pattern996">
      <path
         d="M 0,72 72,72 72,0 0,0 0,72 z"
         style="fill:#373535;fill-opacity:1;fill-rule:nonzero;stroke:none"
         id="path998" />
    </pattern>
    <pattern
       patternTransform="translate(-45.14301,-203.231)"
       patternUnits="userSpaceOnUse"
       x="0"
       y="0"
       width="72"
       height="72"
       id="pattern1002">
      <path
         d="M 0,72 72,72 72,0 0,0 0,72 z"
         style="fill:#373535;fill-opacity:1;fill-rule:nonzero;stroke:none"
         id="path1004" />
    </pattern>
  </defs>
  <sodipodi:namedview
     id="base"
     pagecolor="#ffffff"
     bordercolor="#666666"
     borderopacity="1.0"
     inkscape:pageopacity="0.0"
     inkscape:pageshadow="2"
     inkscape:zoom="7.3141358"
     inkscape:cx="17.913682"
     inkscape:cy="4.6556894"
     inkscape:document-units="px"
     inkscape:current-layer="layer1"
     showgrid="false"
     inkscape:window-width="711"
     inkscape:window-height="586"
     inkscape:window-x="108"
     inkscape:window-y="384"
     inkscape:window-maximized="0"
     showguides="true"
     inkscape:guide-bbox="true">
    <sodipodi:guide
       orientation="1,0"
       position="-5.7423052,14.08232"
       id="guide10751" />
  </sodipodi:namedview>
  <metadata
     id="metadata8615">
    <rdf:RDF>
      <cc:Work
         rdf:about="">
        <dc:format>image/svg+xml</dc:format>
        <dc:type
           rdf:resource="http://purl.org/dc/dcmitype/StillImage" />
        <dc:title></dc:title>
      </cc:Work>
    </rdf:RDF>
  </metadata>
  <g
     inkscape:label="Layer 1"
     inkscape:groupmode="layer"
     id="layer1"
     transform="translate(0,-1044.3622)">
    <path
       d="m 6.2782143,1045.5882 -3.80625,1.385"
       style="fill:#ffffff;fill-opacity:1;fill-rule:nonzero;stroke:none"
       id="path978" />
    <g
       transform="matrix(1.25,0,0,-1.25,-302.16179,1295.062)"
       id="g980">
      <g
         id="g982"
         clip-path="url(#clipPath984)">
        <path
           d="m 246.752,199.579 -3.045,-1.108"
           style="fill:none;stroke:url(#pattern988);stroke-width:0.21600001;stroke-linecap:butt;stroke-linejoin:miter;stroke-miterlimit:4;stroke-opacity:1;stroke-dasharray:none"
           id="path992" />
        <path
           d="m 246.752,198.471 -3.045,1.108"
           style="fill:#ffffff;fill-opacity:1;fill-rule:nonzero;stroke:none"
           id="path994" />
        <path
           d="m 246.752,198.471 -3.045,1.108"
           style="fill:none;stroke:url(#pattern996);stroke-width:0.21600001;stroke-linecap:butt;stroke-linejoin:miter;stroke-miterlimit:4;stroke-opacity:1;stroke-dasharray:none"
           id="path1000" />
        <path
           d="m 244.222,195.53 1.008,3.442 1.007,-3.442 -2.015,0 z"
           style="fill:none;stroke:url(#pattern1002);stroke-width:0.22;stroke-linecap:round;stroke-linejoin:round;stroke-miterlimit:4;stroke-opacity:1;stroke-dasharray:none"
           id="path1006" />
      </g>
    </g>
  </g>
</svg>
