<?xml version="1.0" encoding="UTF-8"?>

<svg version="1.2" baseProfile="tiny" width="215.9mm" height="279.4mm" viewBox="0 0 21590 27940" preserveAspectRatio="xMidYMid" fill-rule="evenodd" stroke-width="28.222" stroke-linejoin="round" xmlns="http://www.w3.org/2000/svg" xmlns:xlink="http://www.w3.org/1999/xlink" xml:space="preserve">
 <g visibility="visible" id="MasterSlide_1_Default">
  <desc>Master slide
  </desc>
  <rect fill="none" stroke="none" x="0" y="0" width="21590" height="27940"/>
 </g>
 <g visibility="visible" id="Slide_1_page1">
  <g>
   <path fill="rgb(255,255,255)" stroke="none" d="M 5335,4074 C 3949,4074 2564,5459 2564,6845 L 2564,17932 C 2564,19318 3949,20704 5335,20704 L 16422,20704 C 17808,20704 19194,19318 19194,17932 L 19194,6845 C 19194,5459 17808,4074 16422,4074 L 5335,4074 Z"/>
   <path fill="none" stroke="rgb(0,0,0)" id="Drawing_1_0" stroke-width="353" stroke-linejoin="round" d="M 5335,4074 C 3949,4074 2564,5459 2564,6845 L 2564,17932 C 2564,19318 3949,20704 5335,20704 L 16422,20704 C 17808,20704 19194,19318 19194,17932 L 19194,6845 C 19194,5459 17808,4074 16422,4074 L 5335,4074 Z"/>
   <rect fill="none" stroke="none" x="2565" y="4075" width="16630" height="16630"/>
  </g>
  <g>
   <path fill="none" stroke="rgb(0,0,0)" id="Drawing_2_0" stroke-width="600" stroke-linejoin="round" d="M 4899,13880 C 5725,13880 6647,14197 7123,14992 7632,15841 8632,16468 9508,16263 10496,16030 11263,14339 12210,13880 12945,13523 13324,13721 14118,14276 14991,14912 15890,16131 16741,15786"/>
  </g>
  <g>
   <path fill="none" stroke="rgb(0,0,0)" id="Drawing_3_0" stroke-width="600" stroke-linejoin="round" d="M 16159,16512 L 11114,7774"/>
  </g>
  <g>
   <path fill="none" stroke="rgb(0,0,0)" id="Drawing_4_0" stroke-width="600" stroke-linejoin="round" d="M 4072,16176 L 10089,5755"/>
  </g>
  <g>
   <path fill="none" stroke="rgb(0,0,0)" id="Drawing_5_0" stroke-width="600" stroke-linejoin="round" d="M 6317,16704 L 11362,7966"/>
  </g>
  <g>
   <path fill="none" stroke="rgb(0,0,0)" id="Drawing_6_0" stroke-width="600" stroke-linejoin="round" d="M 14266,15858 L 7131,8724"/>
  </g>
  <g>
   <path fill="none" stroke="rgb(0,0,0)" id="Drawing_7_0" stroke-width="600" stroke-linejoin="round" d="M 15691,15399 L 8557,8265"/>
  </g>
  <g>
   <path fill="none" stroke="rgb(0,0,0)" id="Drawing_8_0" stroke-width="600" stroke-linejoin="round" d="M 17124,13006 L 9990,5872"/>
  </g>
  <g>
   <path fill="none" stroke="rgb(0,0,0)" id="Drawing_9_0" stroke-width="600" stroke-linejoin="round" d="M 13051,16762 L 5916,9627"/>
  </g>
  <g>
   <path fill="none" stroke="rgb(0,0,0)" id="Drawing_10_0" stroke-width="600" stroke-linejoin="round" d="M 10290,16428 L 10290,5764"/>
  </g>
  <g>
   <path fill="none" stroke="rgb(0,0,0)" id="Drawing_11_0" stroke-width="600" stroke-linejoin="round" d="M 18132,15695 L 9907,7468"/>
  </g>
  <g>
   <path fill="none" stroke="rgb(0,0,0)" id="Drawing_12_0" stroke-width="600" stroke-linejoin="round" d="M 8006,16705 L 13051,7967"/>
  </g>
  <g>
   <path fill="none" stroke="rgb(0,0,0)" id="Drawing_13_0" stroke-width="600" stroke-linejoin="round" d="M 9671,16706 L 14716,7968"/>
  </g>
  <g>
   <path fill="none" stroke="rgb(0,0,0)" id="Drawing_14_0" stroke-width="600" stroke-linejoin="round" d="M 10606,16863 L 5399,11656"/>
  </g>
  <g>
   <path fill="none" stroke="rgb(0,0,0)" id="Drawing_15_0" stroke-width="600" stroke-linejoin="round" d="M 12068,17104 L 15719,10779"/>
  </g>
  <g>
   <path fill="none" stroke="rgb(0,0,0)" id="Drawing_16_0" stroke-width="600" stroke-linejoin="round" d="M 13932,16905 L 16567,12341"/>
  </g>
  <g>
   <path fill="none" stroke="rgb(0,0,0)" id="Drawing_17_0" stroke-width="600" stroke-linejoin="round" d="M 15764,16905 L 17637,13661"/>
  </g>
 </g>
</svg>