<?xml version="1.0" encoding="UTF-8"?>

<svg version="1.2" baseProfile="tiny" width="215.9mm" height="279.4mm" viewBox="0 0 21590 27940" preserveAspectRatio="xMidYMid" fill-rule="evenodd" stroke-width="28.222" stroke-linejoin="round" xmlns="http://www.w3.org/2000/svg" xmlns:xlink="http://www.w3.org/1999/xlink" xml:space="preserve">
 <g visibility="visible" id="MasterSlide_1_Default">
  <desc>Master slide
  </desc>
  <rect fill="none" stroke="none" x="0" y="0" width="21590" height="27940"/>
 </g>
 <g visibility="visible" id="Slide_1_page1">
  <g>
   <path fill="rgb(255,255,255)" stroke="none" d="M 4959,4712 C 3519,4712 2081,6150 2081,7590 L 2081,19106 C 2081,20546 3519,21984 4959,21984 L 16474,21984 C 17913,21984 19353,20546 19353,19106 L 19353,7590 C 19353,6150 17913,4712 16474,4712 L 4959,4712 Z"/>
   <path fill="none" stroke="rgb(128,128,128)" id="Drawing_1_0" d="M 4959,4712 C 3519,4712 2081,6150 2081,7590 L 2081,19106 C 2081,20546 3519,21984 4959,21984 L 16474,21984 C 17913,21984 19353,20546 19353,19106 L 19353,7590 C 19353,6150 17913,4712 16474,4712 L 4959,4712 Z"/>
  </g>
  <g>
   <path fill="rgb(0,102,0)" stroke="none" d="M 5264,5162 C 3888,5162 2513,6537 2513,7913 L 2513,18921 C 2513,20297 3888,21672 5264,21672 L 16271,21672 C 17647,21672 19023,20297 19023,18921 L 19023,7913 C 19023,6537 17647,5162 16271,5162 L 5264,5162 Z"/>
   <rect fill="none" stroke="none" x="2512" y="5161" width="16513" height="16513"/>
  </g>
  <g>
   <path fill="none" stroke="rgb(255,255,255)" id="Drawing_3_0" stroke-width="1016" stroke-linejoin="round" d="M 4175,17152 L 11013,7059"/>
  </g>
  <g>
   <path fill="none" stroke="rgb(255,255,255)" id="Drawing_4_0" stroke-width="1016" stroke-linejoin="round" d="M 7094,17635 L 12789,7996"/>
  </g>
  <g>
   <path fill="none" stroke="rgb(255,255,255)" id="Drawing_5_0" stroke-width="1016" stroke-linejoin="round" d="M 15552,16928 L 7410,8540"/>
  </g>
  <g>
   <path fill="none" stroke="rgb(255,255,255)" id="Drawing_6_0" stroke-width="1016" stroke-linejoin="round" d="M 17724,17273 L 10618,6812"/>
  </g>
  <g>
   <path fill="none" stroke="rgb(255,255,255)" id="Drawing_7_0" stroke-width="1016" stroke-linejoin="round" d="M 13088,17734 L 4895,12537"/>
  </g>
  <g>
   <path fill="none" stroke="rgb(255,255,255)" id="Drawing_8_0" stroke-width="1016" stroke-linejoin="round" d="M 10696,17883 L 15700,11303"/>
  </g>
 </g>
</svg>