<?xml version="1.0" encoding="UTF-8"?>

<svg version="1.2" baseProfile="tiny" width="215.9mm" height="279.4mm" viewBox="0 0 21590 27940" preserveAspectRatio="xMidYMid" fill-rule="evenodd" stroke-width="28.222" stroke-linejoin="round" xmlns="http://www.w3.org/2000/svg" xmlns:xlink="http://www.w3.org/1999/xlink" xml:space="preserve">
 <g visibility="visible" id="MasterSlide_1_Default">
  <desc>Master slide
  </desc>
  <rect fill="none" stroke="none" x="0" y="0" width="21590" height="27940"/>
 </g>
 <g visibility="visible" id="Slide_1_page1">
  <g>
   <path fill="none" stroke="rgb(0,0,0)" id="Drawing_1_0" stroke-width="102" stroke-linejoin="round" d="M 10994,5992 L 10973,18738"/>
  </g>
  <g>
   <path fill="none" stroke="rgb(0,0,0)" id="Drawing_2_0" stroke-width="102" stroke-linejoin="round" d="M 17024,12367 L 5208,12366"/>
  </g>
  <g>
   <path fill="rgb(0,0,0)" stroke="none" d="M 6992,12340 L 6997,12134 7012,11929 7037,11725 7073,11522 7119,11322 7175,11124 7241,10929 7317,10738 7403,10551 7497,10368 7602,10191 7714,10019 7836,9853 7966,9693 8103,9540 8249,9394 8401,9256 8561,9126 8726,9004 8898,8891 9075,8786 9258,8691 9444,8605 9635,8528 9830,8462 10028,8405 10228,8358 10431,8322 10635,8296 10840,8280 11046,8275 11046,12328 6992,12340 Z"/>
   <rect fill="none" stroke="none" x="6992" y="8274" width="4056" height="4067"/>
   <path fill="none" stroke="rgb(128,128,128)" id="Drawing_3_0" stroke-linejoin="round" d="M 6992,12340 L 6997,12134 7012,11929 7037,11725 7073,11522 7119,11322 7175,11124 7241,10929 7317,10738 7403,10551 7497,10368 7602,10191 7714,10019 7836,9853 7966,9693 8103,9540 8249,9394 8401,9256 8561,9126 8726,9004 8898,8891 9075,8786 9258,8691 9444,8605 9635,8528 9830,8462 10028,8405 10228,8358 10431,8322 10635,8296 10840,8280 11046,8275 11046,12328 6992,12340 Z"/>
   <rect fill="none" stroke="none" x="6993" y="8275" width="8108" height="8107"/>
  </g>
  <g>
   <path fill="rgb(255,255,255)" stroke="none" d="M 11034,8275 L 11240,8280 11445,8295 11649,8320 11852,8356 12052,8402 12250,8458 12445,8524 12637,8600 12824,8685 13006,8780 13184,8884 13356,8997 13522,9119 13682,9248 13835,9386 13980,9531 14118,9684 14249,9843 14371,10009 14484,10180 14589,10358 14684,10540 14770,10727 14847,10918 14913,11112 14970,11310 15017,11511 15053,11713 15079,11917 15095,12122 15100,12328 11046,12328 11034,8275 Z"/>
   <rect fill="none" stroke="none" x="11034" y="8274" width="4067" height="4055"/>
   <path fill="none" stroke="rgb(128,128,128)" id="Drawing_4_0" stroke-linejoin="round" d="M 11034,8275 L 11240,8280 11445,8295 11649,8320 11852,8356 12052,8402 12250,8458 12445,8524 12637,8600 12824,8685 13006,8780 13184,8884 13356,8997 13522,9119 13682,9248 13835,9386 13980,9531 14118,9684 14249,9843 14371,10009 14484,10180 14589,10358 14684,10540 14770,10727 14847,10918 14913,11112 14970,11310 15017,11511 15053,11713 15079,11917 15095,12122 15100,12328 11046,12328 11034,8275 Z"/>
   <rect fill="none" stroke="none" x="6993" y="8275" width="8109" height="8108"/>
  </g>
  <g>
   <path fill="rgb(0,0,0)" stroke="none" d="M 15100,12317 L 15095,12523 15080,12728 15055,12932 15019,13135 14973,13335 14917,13533 14851,13728 14775,13920 14689,14107 14595,14289 14490,14467 14378,14639 14256,14805 14126,14965 13989,15118 13843,15263 13691,15401 13531,15532 13366,15654 13194,15767 13017,15872 12834,15967 12648,16053 12457,16130 12262,16196 12064,16253 11864,16300 11661,16336 11457,16362 11252,16378 11046,16383 11046,12329 15100,12317 Z"/>
   <rect fill="none" stroke="none" x="11046" y="12317" width="4055" height="4067"/>
   <path fill="none" stroke="rgb(0,0,0)" id="Drawing_5_0" stroke-linejoin="round" d="M 15100,12317 L 15095,12523 15080,12728 15055,12932 15019,13135 14973,13335 14917,13533 14851,13728 14775,13920 14689,14107 14595,14289 14490,14467 14378,14639 14256,14805 14126,14965 13989,15118 13843,15263 13691,15401 13531,15532 13366,15654 13194,15767 13017,15872 12834,15967 12648,16053 12457,16130 12262,16196 12064,16253 11864,16300 11661,16336 11457,16362 11252,16378 11046,16383 11046,12329 15100,12317 Z"/>
   <rect fill="none" stroke="none" x="6992" y="8276" width="8109" height="8109"/>
  </g>
  <g>
   <path fill="rgb(255,255,255)" stroke="none" d="M 11055,16381 L 10849,16376 10644,16361 10440,16336 10237,16300 10037,16254 9839,16198 9644,16132 9453,16056 9266,15971 9083,15876 8906,15772 8734,15659 8568,15537 8408,15408 8255,15270 8109,15125 7971,14972 7841,14813 7719,14647 7606,14476 7501,14298 7406,14116 7320,13929 7243,13738 7177,13544 7120,13346 7073,13145 7037,12943 7011,12739 6995,12534 6990,12328 11043,12328 11055,16381 Z"/>
   <rect fill="none" stroke="none" x="6990" y="12327" width="4066" height="4055"/>
   <path fill="none" stroke="rgb(128,128,128)" id="Drawing_6_0" stroke-linejoin="round" d="M 11055,16381 L 10849,16376 10644,16361 10440,16336 10237,16300 10037,16254 9839,16198 9644,16132 9453,16056 9266,15971 9083,15876 8906,15772 8734,15659 8568,15537 8408,15408 8255,15270 8109,15125 7971,14972 7841,14813 7719,14647 7606,14476 7501,14298 7406,14116 7320,13929 7243,13738 7177,13544 7120,13346 7073,13145 7037,12943 7011,12739 6995,12534 6990,12328 11043,12328 11055,16381 Z"/>
   <rect fill="none" stroke="none" x="6989" y="8274" width="8108" height="8108"/>
  </g>
 </g>
</svg>