<?xml version="1.0" encoding="UTF-8" standalone="no"?>
<!-- Created with Inkscape (http://www.inkscape.org/) -->

<svg
   xmlns:dc="http://purl.org/dc/elements/1.1/"
   xmlns:cc="http://creativecommons.org/ns#"
   xmlns:rdf="http://www.w3.org/1999/02/22-rdf-syntax-ns#"
   xmlns:svg="http://www.w3.org/2000/svg"
   xmlns="http://www.w3.org/2000/svg"
   xmlns:xlink="http://www.w3.org/1999/xlink"
   xmlns:sodipodi="http://sodipodi.sourceforge.net/DTD/sodipodi-0.dtd"
   xmlns:inkscape="http://www.inkscape.org/namespaces/inkscape"
   width="256"
   height="256"
   id="svg3033"
   version="1.1"
   inkscape:version="0.48.2 r9819"
   sodipodi:docname="grasswip1.svg"
   inkscape:export-filename="/home/qubodup/grasswip.png"
   inkscape:export-xdpi="90"
   inkscape:export-ydpi="90">
  <defs
     id="defs3035">
    <linearGradient
       id="linearGradient3875">
      <stop
         style="stop-color:#4c8d2f;stop-opacity:1;"
         offset="0"
         id="stop3877" />
      <stop
         style="stop-color:#38572a;stop-opacity:1;"
         offset="1"
         id="stop3879" />
    </linearGradient>
    <linearGradient
       id="linearGradient3848">
      <stop
         style="stop-color:#434e28;stop-opacity:1;"
         offset="0"
         id="stop3850" />
      <stop
         style="stop-color:#7c885b;stop-opacity:1;"
         offset="1"
         id="stop3852" />
    </linearGradient>
    <linearGradient
       id="linearGradient3840">
      <stop
         style="stop-color:#116f11;stop-opacity:1;"
         offset="0"
         id="stop3842" />
      <stop
         style="stop-color:#434e28;stop-opacity:1;"
         offset="1"
         id="stop3844" />
    </linearGradient>
    <linearGradient
       id="linearGradient3832">
      <stop
         style="stop-color:#7c885b;stop-opacity:1;"
         offset="0"
         id="stop3834" />
      <stop
         style="stop-color:#434e28;stop-opacity:1;"
         offset="1"
         id="stop3836" />
    </linearGradient>
    <linearGradient
       id="linearGradient3824">
      <stop
         style="stop-color:#304627;stop-opacity:1;"
         offset="0"
         id="stop3826" />
      <stop
         style="stop-color:#7c885b;stop-opacity:1;"
         offset="1"
         id="stop3828" />
    </linearGradient>
    <linearGradient
       inkscape:collect="always"
       xlink:href="#linearGradient3824"
       id="linearGradient3830"
       x1="137.56467"
       y1="1052.3622"
       x2="197.46545"
       y2="898.0191"
       gradientUnits="userSpaceOnUse" />
    <linearGradient
       inkscape:collect="always"
       xlink:href="#linearGradient3832"
       id="linearGradient3838"
       x1="94.297462"
       y1="1052.3622"
       x2="69.050011"
       y2="901.69275"
       gradientUnits="userSpaceOnUse"
       gradientTransform="matrix(-1,0,0,1,240.1518,0)" />
    <linearGradient
       inkscape:collect="always"
       xlink:href="#linearGradient3840"
       id="linearGradient3846"
       x1="206.37265"
       y1="944.1283"
       x2="117.68427"
       y2="1052.3622"
       gradientUnits="userSpaceOnUse" />
    <linearGradient
       inkscape:collect="always"
       xlink:href="#linearGradient3848"
       id="linearGradient3854"
       x1="102.68325"
       y1="902.06696"
       x2="160.94623"
       y2="1052.3622"
       gradientUnits="userSpaceOnUse"
       gradientTransform="matrix(-1,0,0,1,240.1518,0)" />
    <linearGradient
       inkscape:collect="always"
       xlink:href="#linearGradient3875"
       id="linearGradient3881"
       x1="119.44321"
       y1="904.39276"
       x2="149.0255"
       y2="1025.308"
       gradientUnits="userSpaceOnUse" />
    <linearGradient
       inkscape:collect="always"
       xlink:href="#linearGradient3875"
       id="linearGradient3885"
       gradientUnits="userSpaceOnUse"
       x1="119.44321"
       y1="904.39276"
       x2="149.0255"
       y2="1025.308"
       gradientTransform="matrix(-1,0,0,1,267.31794,0)" />
  </defs>
  <sodipodi:namedview
     id="base"
     pagecolor="#ffffff"
     bordercolor="#666666"
     borderopacity="1.0"
     inkscape:pageopacity="0.0"
     inkscape:pageshadow="2"
     inkscape:zoom="0.70710678"
     inkscape:cx="61.404655"
     inkscape:cy="114.53422"
     inkscape:document-units="px"
     inkscape:current-layer="layer1"
     showgrid="false"
     inkscape:window-width="1024"
     inkscape:window-height="581"
     inkscape:window-x="0"
     inkscape:window-y="19"
     inkscape:window-maximized="0"
     showguides="true"
     inkscape:guide-bbox="true"
     inkscape:snap-page="true">
    <sodipodi:guide
       orientation="0,1"
       position="115.66247,678.31743"
       id="guide3288" />
    <inkscape:grid
       empspacing="5"
       visible="true"
       enabled="true"
       snapvisiblegridlinesonly="true"
       type="xygrid"
       id="grid3887" />
  </sodipodi:namedview>
  <metadata
     id="metadata3038">
    <rdf:RDF>
      <cc:Work
         rdf:about="">
        <dc:format>image/svg+xml</dc:format>
        <dc:type
           rdf:resource="http://purl.org/dc/dcmitype/StillImage" />
        <dc:title />
      </cc:Work>
    </rdf:RDF>
  </metadata>
  <g
     inkscape:label="Layer 1"
     inkscape:groupmode="layer"
     id="layer1"
     transform="translate(0,-796.36218)">
    <path
       style="fill:url(#linearGradient3854);fill-opacity:1;stroke:none"
       d="m 191.91576,936.68221 c -28.71021,9.88948 -56.66332,19.39021 -86.45111,83.15819 1.5034,-59.60298 16.10566,-113.96435 43.3358,-170.48794 -17.52075,25.59197 -44.56191,56.94273 -59.244794,178.85844 -11.8749,-45.63861 -32.03054,-81.59213 -49.48826,-102.24542 l 0,4 c -8.04448,-6.57284 -16.86083,-11.13102 -26.62275,-14.16791 7.82946,5.36299 14.65908,10.98623 20.62298,16.89226 l -2.8689,1.66869 c 30.48214,26.67583 41.87157,72.17138 44.62556,118.00368 l 36.638764,0 c 3.71407,-53.94543 35.25418,-89.08898 79.45271,-115.67999 z"
       id="rect4083"
       inkscape:connector-curvature="0"
       sodipodi:nodetypes="cccccccccccc" />
    <path
       style="fill:url(#linearGradient3838);fill-opacity:1;stroke:none"
       d="m 230.70715,898.39697 c -7.17226,5.50145 -13.60631,11.42243 -19.378,17.62598 l 4,-2 c -4.22308,4.80968 -15.15288,15.18216 -18.65412,20.23112 l 4,-2 c -3.17472,5.14099 -14.38015,19.98083 -17.12319,25.3476 -25.0974,49.10313 -22.41726,94.76053 -22.41726,94.76053 -10.42903,0 -20.85805,0 -31.28708,0 3.12606,-60.12025 -16.04095,-114.42458 -63.397524,-161.37535 29.52621,25.81393 59.679084,52.58178 74.571044,134.20545 4.44623,-135.52145 45.97023,-168.17796 78.15927,-186.48776 -54.10938,41.08169 -66.5269,94.37083 -62.16245,171.66746 6.5187,-30.13011 27.04786,-75.21628 41.73615,-95.30704 l -3.94199,11.0465 c 3.97952,-4.52423 18.4421,-20.12682 18.4421,-20.12682 l -0.56336,3.59554 c 0,0 11.51877,-7.86723 18.01641,-11.18321 z"
       id="path4092"
       inkscape:connector-curvature="0"
       sodipodi:nodetypes="cccccsccccccccssc" />
    <path
       style="fill:#2d5016;stroke:none"
       d="m 38.268489,945.73919 c 23.205995,28.18612 47.154557,54.1279 48.165627,106.62301 17.290204,0 34.580404,0 51.870664,0 3.28846,-44.7571 22.08753,-85.63344 97.97792,-64.63283 -38.31263,-16.79573 -86.75937,-20.70832 -107.0347,47.75413 0.0553,-67.10728 17.53962,-113.43996 46.10726,-146.55551 -32.17859,30.45002 -53.97975,75.78858 -60.9275,142.43911 C 82.969173,906.97326 55.698502,888.48711 26.329969,851.87769 59.86007,897.35931 94.330495,948.51647 98.784282,1032.19 77.160271,978.3727 58.844083,964.96218 38.268489,945.73919 z"
       id="path4090"
       inkscape:connector-curvature="0"
       sodipodi:nodetypes="cccccccccc" />
    <path
       style="fill:url(#linearGradient3881);fill-opacity:1;stroke:none"
       d="m 105.30107,874.90732 c 13.69881,43.68322 29.91159,95.01447 31.53454,177.45488 5.48893,0 15.97798,0 21.46691,0 -0.13509,-50.4368 5.1619,-103.99771 43.04888,-172.90227 -21.15695,34.62338 -41.88085,70.67525 -52.28231,140.79197 C 127.492,914.26807 118.71969,908.01418 105.30107,874.90732 z"
       id="path4096"
       inkscape:connector-curvature="0"
       sodipodi:nodetypes="cccccc" />
    <path
       style="fill:url(#linearGradient3846);fill-opacity:1;stroke:none"
       d="m 19.696454,953.14721 c 26.718278,-7.61422 79.103936,9.5237 90.364806,54.74289 4.78468,-85.9545 39.32271,-111.58129 70.41582,-130.98345 -41.86839,37.19956 -60.83698,64.34068 -55.10815,140.07785 19.22085,-42.55015 54.17982,-64.06326 91.66383,-56.60116 -51.71332,4.0148 -84.76951,58.97016 -91.21456,91.97886 l -15.28328,0 c -8.52515,-29.8747 -6.56122,-86.55848 -90.838466,-99.21499 z"
       id="rect4078"
       inkscape:connector-curvature="0"
       sodipodi:nodetypes="cccccccc" />
    <path
       style="fill:url(#linearGradient3830);stroke:none;fill-opacity:1"
       d="m 23.720482,889.34001 c 76.674938,9.42115 109.128508,82.44222 109.298968,163.02219 6.31221,0 14.27135,0 20.58358,0 9.61683,-36.176 31.87955,-76.18091 94.067,-79.4525 -46.62244,-6.27735 -71.23894,5.19343 -100.85959,56.3991 C 121.80697,912.18336 70.961004,890.73939 23.720482,889.34001 z"
       id="path4098"
       inkscape:connector-curvature="0"
       sodipodi:nodetypes="cccccc" />
    <path
       sodipodi:nodetypes="ccczzzzzzzzzzzzzzzzzzzcc"
       inkscape:connector-curvature="0"
       id="path3883"
       d="m 183.3514,885.78169 c -36.32623,35.19794 -51.24612,84.1401 -52.86907,166.58051 -5.48893,0 -15.97798,0 -21.46691,0 0.057,-21.2892 -1.79428,-43.6497 -2.52473,-52.45642 -0.73045,-8.80673 -0.86537,-15.84792 -2.00953,-28.3864 -1.14416,-12.53848 -1.73601,-22.01547 -1.90924,-28.14424 -0.17322,-6.12877 -12.14726,-5.97731 -12.184371,-8.03461 -0.03711,-2.0573 11.599421,3.86354 12.545131,1.84295 0.9457,-2.02059 -11.217224,-6.97569 -11.457701,-9.34109 -0.240476,-2.3654 11.948901,6.00434 13.025731,4.41953 1.07682,-1.58481 -9.209803,-7.36629 -9.996982,-9.80269 -0.787179,-2.4364 8.839412,4.50888 10.117332,2.97873 1.27793,-1.53015 -2.60323,-10.0715 -2.62419,-10.47803 -0.021,-0.40653 4.7486,-3.85329 5.25,-0.75 0.5014,3.10329 -0.80794,9.11774 1.37419,11.22803 2.18214,2.11029 8.85571,-3.52336 10.70778,-2.68264 1.85207,0.84072 -11.20005,6.91675 -10.95953,8.43821 0.24052,1.52146 8.92969,-2.98111 12.32298,-2.66983 3.39329,0.31128 -12.78714,3.52413 -11.30474,7.56683 1.4824,4.0427 12.88761,-3.76678 12.30943,-1.3067 -0.57818,2.46008 -13.79739,4.2955 -13.55658,7.55172 0.24081,3.25622 1.15015,17.29397 4.39324,35.76646 3.24309,18.47249 2.52131,20.61967 5.71521,42.14989 21.57709,-105.98383 42.49154,-109.14153 65.10255,-134.47021 z"
       style="fill:url(#linearGradient3885);fill-opacity:1;stroke:none" />
  </g>
</svg>
