<?xml version="1.0" encoding="UTF-8"?>

<svg version="1.2" baseProfile="tiny" width="215.9mm" height="279.4mm" viewBox="0 0 21590 27940" preserveAspectRatio="xMidYMid" fill-rule="evenodd" stroke-width="28.222" stroke-linejoin="round" xmlns="http://www.w3.org/2000/svg" xmlns:xlink="http://www.w3.org/1999/xlink" xml:space="preserve">
 <g visibility="visible" id="MasterSlide_1_Default">
  <desc>Master slide
  </desc>
  <rect fill="none" stroke="none" x="0" y="0" width="21590" height="27940"/>
 </g>
 <g visibility="visible" id="Slide_1_page1">
  <g id="DrawingGroup_1">
   <g>
    <path fill="rgb(255,255,255)" stroke="none" d="M 19546,23202 C 19297,23801 18779,24259 18143,24421 L 3841,24421 C 2941,24191 2274,23373 2274,22397 L 2274,9132 C 2274,7978 3209,7047 4358,7047 L 17627,7047 C 18492,7047 19232,7574 19546,8327 L 19546,23202 Z"/>
    <path fill="none" stroke="rgb(128,128,128)" id="Drawing_1_0" d="M 19546,23202 C 19297,23801 18779,24259 18143,24421 L 3841,24421 C 2941,24191 2274,23373 2274,22397 L 2274,9132 C 2274,7978 3209,7047 4358,7047 L 17627,7047 C 18492,7047 19232,7574 19546,8327 L 19546,23202 Z"/>
   </g>
   <g>
    <path fill="rgb(0,69,134)" stroke="none" d="M 17769,7470 C 18140,7525 18462,7691 18737,7965 19081,8309 19253,8728 19253,9224 L 19253,22180 C 19253,22676 19081,23095 18737,23439 18393,23783 17973,23955 17478,23955 L 4518,23955 C 4022,23955 3603,23783 3259,23439 2915,23095 2743,22676 2743,22180 L 2743,9224 C 2743,8728 2915,8309 3259,7965 3533,7691 3856,7525 4227,7470 L 17769,7470 Z M 13392,20037 C 13393,20105 13463,20152 13598,20179 13680,20193 13764,20282 13846,20447 13914,20502 13998,20613 14094,20777 14039,20860 14025,20956 14052,21067 L 14300,21314 C 14465,21520 14617,21617 14754,21603 14933,21617 15091,21513 15229,21294 15297,21224 15387,21142 15497,21046 15456,20990 15428,20915 15415,20819 15469,20750 15545,20626 15642,20447 15669,20420 15755,20369 15900,20292 16044,20217 16116,20152 16116,20097 16116,20041 16075,19932 15992,19766 16006,19739 16199,19650 16570,19498 16625,19471 16625,19395 16570,19271 16556,19175 16618,19010 16756,18776 16852,18680 16852,18591 16756,18508 16618,18384 16570,18309 16611,18281 16900,18075 17045,17937 17045,17869 17045,17841 17031,17799 17004,17744 16976,17690 16963,17642 16963,17601 16963,17517 17031,17415 17168,17290 17196,17249 17252,17201 17334,17146 17471,17064 17464,16851 17313,16506 L 17437,16259 C 17450,16218 17499,16170 17582,16115 17732,16004 17774,15936 17705,15909 17650,15854 17582,15791 17499,15723 17416,15654 17464,15550 17643,15413 17768,15317 17829,15227 17829,15145 17829,15077 17788,15035 17705,15021 17513,14952 17520,14794 17726,14546 17905,14341 17932,14203 17809,14134 17630,14037 17671,13880 17932,13660 18006,13596 18053,13544 18070,13505 18055,13514 18019,13463 17963,13350 17888,13199 17843,13103 17829,13061 17816,13006 17788,12937 17746,12855 17678,12772 17719,12628 17870,12422 17953,12311 17966,12195 17912,12070 17870,11933 17864,11823 17891,11741 17973,11590 18014,11473 18014,11390 18014,11280 17966,11204 17870,11163 17843,11163 17671,11232 17354,11370 17423,11370 17265,11493 16879,11741 16577,11933 16309,11954 16075,11802 15896,11679 15806,11548 15806,11411 15806,11397 15920,11276 16148,11049 16374,10822 16508,10682 16549,10627 16618,10516 16652,10414 16652,10317 16652,10166 16584,10042 16447,9946 16309,9850 16158,9808 15992,9822 L 14960,9925 14569,9925 13495,9801 C 13344,9787 13203,9832 13072,9936 12942,10038 12875,10166 12875,10317 12875,10510 13082,10791 13495,11163 13646,11218 13722,11300 13722,11411 13722,11548 13632,11679 13454,11802 13206,11968 12924,11933 12607,11700 12566,11658 12339,11486 11927,11184 11831,11129 11734,11115 11638,11143 11583,11184 11549,11232 11535,11287 10792,10902 9994,10709 9141,10709 7654,10709 6413,11204 5415,12195 4418,13185 3919,14423 3919,15909 3919,17408 4414,18653 5405,19643 6396,20633 7641,21128 9141,21128 10626,21128 11892,20585 12938,19498 13103,19539 13289,19629 13495,19766 13428,19982 13393,20073 13392,20037 Z M 8109,15207 C 7998,15345 7929,15502 7902,15682 L 4559,15784 C 4586,14616 4999,13612 5797,12772 L 8109,15207 Z M 7902,16136 C 7929,16315 7998,16479 8109,16631 L 5797,19066 C 4999,18226 4586,17222 4559,16052 L 7902,16136 Z M 8914,17167 L 8996,20509 C 7840,20468 6836,20049 5983,19250 L 8418,16961 C 8570,17056 8734,17126 8914,17167 Z M 9367,17146 C 9546,17119 9712,17050 9862,16940 L 12277,19250 C 11438,20049 10440,20468 9285,20509 L 9367,17146 Z M 8914,14691 C 8734,14719 8570,14780 8418,14877 L 5983,12587 C 6836,11789 7840,11370 8996,11328 L 8914,14691 Z M 10172,16631 C 10269,16479 10337,16315 10378,16136 L 11885,16094 C 11968,16163 12029,16218 12071,16259 12126,16383 12161,16465 12174,16506 12050,16865 12050,17078 12174,17146 12257,17188 12305,17236 12318,17290 12525,17442 12593,17566 12525,17662 12374,17855 12388,17992 12566,18075 L 12875,18281 C 12890,18281 12897,18294 12897,18323 12897,18350 12862,18391 12793,18446 12725,18501 12690,18557 12690,18611 12690,18653 12711,18701 12752,18755 12670,18852 12580,18955 12484,19066 L 10172,16631 Z M 11638,13206 L 9842,14877 C 9691,14780 9532,14719 9367,14691 L 9264,11328 C 10117,11356 10895,11597 11597,12050 L 11597,12070 C 11542,12195 11549,12311 11617,12422 11768,12628 11810,12772 11741,12855 11699,12979 11665,13096 11638,13206 Z M 10378,15682 C 10337,15502 10269,15345 10172,15207 L 11617,13680 C 11838,13887 11858,14037 11679,14134 11555,14203 11583,14341 11761,14546 11981,14794 11995,14952 11802,15021 11720,15035 11679,15077 11679,15145 11679,15227 11741,15317 11865,15413 12043,15565 12092,15668 12009,15723 L 11988,15743 10378,15682 Z M 8728,15909 C 8728,15634 8866,15496 9141,15496 9416,15496 9553,15634 9553,15909 9553,16197 9416,16342 9141,16342 8866,16342 8728,16197 8728,15909 Z"/>
    <rect fill="none" stroke="none" x="2742" y="7470" width="16513" height="16487"/>
   </g>
  </g>
 </g>
</svg>