<?xml version="1.0" encoding="UTF-8"?>

<svg version="1.2" baseProfile="tiny" width="215.9mm" height="279.4mm" viewBox="0 0 21590 27940" preserveAspectRatio="xMidYMid" fill-rule="evenodd" stroke-width="28.222" stroke-linejoin="round" xmlns="http://www.w3.org/2000/svg" xmlns:xlink="http://www.w3.org/1999/xlink" xml:space="preserve">
 <g visibility="visible" id="MasterSlide_1_Default">
  <desc>Master slide
  </desc>
  <rect fill="none" stroke="none" x="0" y="0" width="21590" height="27940"/>
 </g>
 <g visibility="visible" id="Slide_1_page1">
  <g>
   <path fill="rgb(255,255,255)" stroke="none" d="M 18716,21492 C 18469,22088 17955,22543 17322,22704 L 3103,22704 C 2209,22475 1546,21662 1546,20692 L 1546,7504 C 1546,6357 2474,5432 3618,5432 L 16809,5432 C 17669,5432 18405,5956 18716,6704 L 18716,21492 Z"/>
   <path fill="none" stroke="rgb(128,128,128)" id="Drawing_1_0" d="M 18716,21492 C 18469,22088 17955,22543 17322,22704 L 3103,22704 C 2209,22475 1546,21662 1546,20692 L 1546,7504 C 1546,6357 2474,5432 3618,5432 L 16809,5432 C 17669,5432 18405,5956 18716,6704 L 18716,21492 Z"/>
  </g>
  <g>
   <path fill="rgb(0,102,0)" stroke="none" d="M 18383,21123 C 18147,21693 17655,22128 17051,22282 L 3463,22282 C 2609,22063 1975,21286 1975,20359 L 1975,7753 C 1975,6656 2862,5772 3955,5772 L 16560,5772 C 17382,5772 18086,6273 18383,6988 L 18383,21123 Z"/>
   <rect fill="none" stroke="none" x="1974" y="5771" width="16411" height="16513"/>
  </g>
  <g>
   <path fill="rgb(255,255,255)" stroke="none" d="M 10067,20446 L 7305,20446 7305,10758 12829,10758 12829,20446 10067,20446 Z"/>
   <rect fill="none" stroke="none" x="7304" y="10757" width="5526" height="9690"/>
  </g>
  <g>
   <path fill="none" stroke="rgb(255,255,255)" id="Drawing_4_0" stroke-width="26" stroke-linejoin="round" d="M 10067,20375 L 7305,20375 7305,10758 12829,10758 12829,20375 10067,20375 Z"/>
  </g>
  <g>
   <path fill="none" stroke="rgb(255,255,255)" id="Drawing_5_0" stroke-width="640" stroke-linejoin="round" d="M 7041,20447 L 7041,6654"/>
  </g>
  <g>
   <path fill="rgb(255,255,255)" stroke="none" d="M 7348,6657 L 14961,11876 7348,11876 7348,6657 Z"/>
   <rect fill="none" stroke="none" x="7348" y="6656" width="7614" height="5222"/>
  </g>
  <g>
   <path fill="none" stroke="rgb(255,255,255)" id="Drawing_7_0" stroke-width="26" stroke-linejoin="round" d="M 7348,6768 L 13884,11418 7348,11418 7348,6768 Z"/>
  </g>
  <g>
   <path fill="none" stroke="rgb(0,102,0)" id="Drawing_8_0" stroke-width="1016" stroke-linejoin="round" d="M 10724,21066 L 10645,10761"/>
  </g>
  <g>
   <path fill="none" stroke="rgb(0,102,0)" id="Drawing_9_0" stroke-width="1016" stroke-linejoin="round" d="M 10869,11242 L 5612,7566"/>
  </g>
 </g>
</svg>