<?xml version="1.0" encoding="UTF-8"?>

<svg version="1.2" baseProfile="tiny" width="215.9mm" height="279.4mm" viewBox="0 0 21590 27940" preserveAspectRatio="xMidYMid" fill-rule="evenodd" stroke-width="28.222" stroke-linejoin="round" xmlns="http://www.w3.org/2000/svg" xmlns:xlink="http://www.w3.org/1999/xlink" xml:space="preserve">
 <g visibility="visible" id="MasterSlide_1_Default">
  <desc>Master slide
  </desc>
  <rect fill="none" stroke="none" x="0" y="0" width="21590" height="27940"/>
 </g>
 <g visibility="visible" id="Slide_1_page1">
  <g>
   <path fill="rgb(255,255,255)" stroke="none" d="M 9480,20019 L 14509,20019 C 15210,20019 15779,19450 15779,18749 L 15779,4017 C 15779,3316 15210,2747 14509,2747 L 4451,2747 C 3750,2747 3181,3316 3181,4017 L 3181,18749 C 3181,19450 3750,20019 4451,20019 L 9480,20019 Z"/>
   <path fill="none" stroke="rgb(128,128,128)" id="Drawing_1_0" stroke-linejoin="round" d="M 9480,20019 L 14509,20019 C 15210,20019 15779,19450 15779,18749 L 15779,4017 C 15779,3316 15210,2747 14509,2747 L 4451,2747 C 3750,2747 3181,3316 3181,4017 L 3181,18749 C 3181,19450 3750,20019 4451,20019 L 9480,20019 Z"/>
  </g>
  <g>
   <path fill="rgb(0,102,0)" stroke="none" d="M 9562,19707 L 14312,19707 C 15013,19707 15582,19138 15582,18437 L 15582,4467 C 15582,3766 15013,3197 14312,3197 L 4812,3197 C 4111,3197 3542,3766 3542,4467 L 3542,18437 C 3542,19138 4111,19707 4812,19707 L 9562,19707 Z"/>
   <path fill="none" stroke="rgb(128,128,128)" id="Drawing_2_0" stroke-linejoin="round" d="M 9562,19707 L 14312,19707 C 15013,19707 15582,19138 15582,18437 L 15582,4467 C 15582,3766 15013,3197 14312,3197 L 4812,3197 C 4111,3197 3542,3766 3542,4467 L 3542,18437 C 3542,19138 4111,19707 4812,19707 L 9562,19707 Z"/>
  </g>
  <g id="DrawingGroup_1">
   <g>
    <path fill="none" stroke="rgb(255,255,255)" id="Drawing_3_0" stroke-width="1151" stroke-linejoin="round" d="M 9555,16235 C 8601,16235 7792,16013 6967,15527 6143,15040 5550,14435 5074,13593 4597,12751 4380,11925 4380,10953 4380,9980 4597,9155 5074,8312 5550,7470 6143,6865 6967,6379 7792,5892 8601,5671 9554,5671 10507,5671 11317,5892 12141,6379 12967,6865 13559,7470 14035,8312 14511,9155 14729,9980 14729,10953 14729,11925 14511,12751 14035,13593 13559,14435 12967,15040 12141,15527 11317,16013 10507,16235 9555,16235 Z"/>
   </g>
   <g>
    <path fill="rgb(255,255,255)" stroke="none" d="M 6361,9923 C 6226,9302 6858,8716 7491,8716 7690,8711 7896,8771 8065,8863 8227,8581 8528,8409 8866,8409 9091,8418 9329,8502 9498,8653 9620,8404 9876,8258 10154,8258 10388,8258 10600,8364 10735,8528 10891,8360 11124,8258 11368,8258 11764,8258 12097,8521 12168,8888 12550,8991 12828,9324 12828,9704 12828,9821 12808,9933 12750,10039 12912,10226 13011,10456 13011,10691 13011,11223 12574,11672 12013,11749 12013,12259 11581,12658 11039,12658 10854,12658 10677,12610 10523,12516 10381,12966 9931,13282 9427,13282 9052,13282 8697,13093 8484,12796 8284,12910 8389,12977 7818,12977 7348,12977 6916,12743 6690,12361 6148,12352 5871,12049 5871,11668 5871,11491 5942,11331 6071,11198 5837,11087 5710,10865 5710,10612 5710,10256 5992,9963 6361,9923 Z"/>
    <rect fill="none" stroke="none" x="5709" y="8258" width="7303" height="5025"/>
   </g>
   <g>
    <path fill="none" stroke="rgb(255,255,255)" id="Drawing_5_0" stroke-width="26" stroke-linejoin="round" d="M 6327,9992 C 6334,10051 6364,10116 6381,10170"/>
   </g>
   <g>
    <path fill="none" stroke="rgb(255,255,255)" id="Drawing_6_0" stroke-width="26" stroke-linejoin="round" d="M 8031,8932 C 8109,8975 8203,9036 8267,9097"/>
   </g>
   <g>
    <path fill="none" stroke="rgb(255,255,255)" id="Drawing_7_0" stroke-width="26" stroke-linejoin="round" d="M 9464,8722 C 9437,8771 9420,8830 9402,8885"/>
   </g>
   <g>
    <path fill="none" stroke="rgb(255,255,255)" id="Drawing_8_0" stroke-width="26" stroke-linejoin="round" d="M 10701,8597 C 10650,8653 10623,8727 10589,8794"/>
   </g>
   <g>
    <path fill="none" stroke="rgb(255,255,255)" id="Drawing_9_0" stroke-width="26" stroke-linejoin="round" d="M 12134,8957 C 12141,8999 12175,9092 12161,9113"/>
   </g>
   <g>
    <path fill="none" stroke="rgb(255,255,255)" id="Drawing_10_0" stroke-width="26" stroke-linejoin="round" d="M 12716,10108 C 12659,10227 12580,10332 12473,10418"/>
   </g>
   <g>
    <path fill="none" stroke="rgb(255,255,255)" id="Drawing_11_0" stroke-width="26" stroke-linejoin="round" d="M 11982,11818 C 12009,11630 11853,11164 11421,10990"/>
   </g>
   <g>
    <path fill="none" stroke="rgb(255,255,255)" id="Drawing_12_0" stroke-width="26" stroke-linejoin="round" d="M 10489,12585 C 10515,12510 10526,12439 10533,12365"/>
   </g>
   <g>
    <path fill="none" stroke="rgb(255,255,255)" id="Drawing_13_0" stroke-width="26" stroke-linejoin="round" d="M 8453,12865 C 8399,12805 8365,12734 8331,12663"/>
   </g>
   <g>
    <path fill="none" stroke="rgb(255,255,255)" id="Drawing_14_0" stroke-width="26" stroke-linejoin="round" d="M 6655,12430 C 6720,12421 6784,12407 6844,12385"/>
   </g>
   <g>
    <path fill="none" stroke="rgb(255,255,255)" id="Drawing_15_0" stroke-width="26" stroke-linejoin="round" d="M 6037,11267 C 6148,11327 6276,11381 6463,11360"/>
   </g>
   <g>
    <path fill="none" stroke="rgb(255,255,255)" id="Drawing_16_0" stroke-width="1197" stroke-linejoin="round" d="M 7183,11871 L 7149,13729"/>
   </g>
   <g>
    <path fill="none" stroke="rgb(255,255,255)" id="Drawing_17_0" stroke-width="1197" stroke-linejoin="round" d="M 8806,11662 L 8772,13520"/>
   </g>
   <g>
    <path fill="none" stroke="rgb(255,255,255)" id="Drawing_18_0" stroke-width="1197" stroke-linejoin="round" d="M 9888,11871 L 9855,13729"/>
   </g>
   <g>
    <path fill="none" stroke="rgb(255,255,255)" id="Drawing_19_0" stroke-width="1197" stroke-linejoin="round" d="M 11174,11732 L 11140,13590"/>
   </g>
   <g>
    <path fill="none" stroke="rgb(255,255,255)" id="Drawing_20_0" stroke-width="1197" stroke-linejoin="round" d="M 12188,11315 L 12155,13173"/>
   </g>
  </g>
 </g>
</svg>