<?xml version="1.0" encoding="UTF-8"?>

<svg version="1.2" baseProfile="tiny" width="215.9mm" height="279.4mm" viewBox="0 0 21590 27940" preserveAspectRatio="xMidYMid" fill-rule="evenodd" stroke-width="28.222" stroke-linejoin="round" xmlns="http://www.w3.org/2000/svg" xmlns:xlink="http://www.w3.org/1999/xlink" xml:space="preserve">
 <g visibility="visible" id="MasterSlide_1_Default">
  <desc>Master slide
  </desc>
  <rect fill="none" stroke="none" x="0" y="0" width="21590" height="27940"/>
 </g>
 <g visibility="visible" id="Slide_1_page1">
  <g>
   <path fill="rgb(255,255,255)" stroke="none" d="M 10714,18902 C 9305,18902 8108,18583 6889,17884 5669,17184 4793,16314 4089,15102 3385,13890 3064,12701 3064,11302 3064,9903 3385,8714 4089,7502 4793,6290 5669,5420 6889,4720 8108,4021 9305,3702 10713,3702 12122,3702 13319,4021 14538,4720 15758,5420 16634,6290 17338,7502 18042,8714 18363,9903 18363,11302 18363,12701 18042,13890 17338,15102 16634,16314 15758,17184 14538,17884 13319,18583 12122,18902 10714,18902 L 10714,18902 Z"/>
   <path fill="none" stroke="rgb(0,0,0)" id="Drawing_1_0" stroke-width="1270" stroke-linejoin="round" d="M 10714,18902 C 9305,18902 8108,18583 6889,17884 5669,17184 4793,16314 4089,15102 3385,13890 3064,12701 3064,11302 3064,9903 3385,8714 4089,7502 4793,6290 5669,5420 6889,4720 8108,4021 9305,3702 10713,3702 12122,3702 13319,4021 14538,4720 15758,5420 16634,6290 17338,7502 18042,8714 18363,9903 18363,11302 18363,12701 18042,13890 17338,15102 16634,16314 15758,17184 14538,17884 13319,18583 12122,18902 10714,18902 L 10714,18902 Z"/>
  </g>
  <g>
   <path fill="rgb(0,0,0)" stroke="none" d="M 6163,9920 C 5963,9026 6898,8183 7832,8183 8127,8176 8432,8263 8682,8394 8921,7989 9366,7741 9866,7741 10198,7754 10551,7875 10800,8093 10980,7734 11360,7524 11770,7524 12115,7524 12429,7677 12629,7912 12859,7671 13204,7524 13564,7524 14149,7524 14643,7902 14748,8431 15313,8578 15723,9057 15723,9605 15723,9773 15693,9934 15608,10087 15848,10355 15993,10687 15993,11025 15993,11791 15348,12437 14518,12548 14518,13281 13879,13856 13079,13856 12804,13856 12544,13786 12315,13652 12105,14298 11440,14753 10695,14753 10141,14753 9616,14482 9301,14054 9006,14218 9161,14315 8317,14315 7622,14315 6983,13977 6648,13428 5848,13415 5438,12979 5438,12431 5438,12176 5543,11945 5733,11754 5388,11594 5199,11276 5199,10911 5199,10399 5618,9977 6163,9920 L 6163,9920 Z"/>
   <path fill="none" stroke="rgb(128,128,128)" id="Drawing_2_0" stroke-linejoin="round" d="M 6163,9920 C 5963,9026 6898,8183 7832,8183 8127,8176 8432,8263 8682,8394 8921,7989 9366,7741 9866,7741 10198,7754 10551,7875 10800,8093 10980,7734 11360,7524 11770,7524 12115,7524 12429,7677 12629,7912 12859,7671 13204,7524 13564,7524 14149,7524 14643,7902 14748,8431 15313,8578 15723,9057 15723,9605 15723,9773 15693,9934 15608,10087 15848,10355 15993,10687 15993,11025 15993,11791 15348,12437 14518,12548 14518,13281 13879,13856 13079,13856 12804,13856 12544,13786 12315,13652 12105,14298 11440,14753 10695,14753 10141,14753 9616,14482 9301,14054 9006,14218 9161,14315 8317,14315 7622,14315 6983,13977 6648,13428 5848,13415 5438,12979 5438,12431 5438,12176 5543,11945 5733,11754 5388,11594 5199,11276 5199,10911 5199,10399 5618,9977 6163,9920 L 6163,9920 Z"/>
   <path fill="none" stroke="rgb(128,128,128)" id="Drawing_2_1" stroke-linejoin="round" d="M 6163,9920 C 6173,10004 6218,10098 6243,10175"/>
   <path fill="none" stroke="rgb(128,128,128)" id="Drawing_2_2" stroke-linejoin="round" d="M 8682,8394 C 8797,8457 8936,8544 9031,8631"/>
   <path fill="none" stroke="rgb(128,128,128)" id="Drawing_2_3" stroke-linejoin="round" d="M 10800,8093 C 10760,8163 10735,8247 10710,8327"/>
   <path fill="none" stroke="rgb(128,128,128)" id="Drawing_2_4" stroke-linejoin="round" d="M 12629,7912 C 12554,7992 12514,8099 12464,8196"/>
   <path fill="none" stroke="rgb(128,128,128)" id="Drawing_2_5" stroke-linejoin="round" d="M 14748,8431 C 14758,8491 14808,8625 14788,8655"/>
   <path fill="none" stroke="rgb(128,128,128)" id="Drawing_2_6" stroke-linejoin="round" d="M 15608,10087 C 15523,10258 15408,10409 15248,10533"/>
   <path fill="none" stroke="rgb(128,128,128)" id="Drawing_2_7" stroke-linejoin="round" d="M 14523,12548 C 14563,12277 14333,11607 13694,11356"/>
   <path fill="none" stroke="rgb(128,128,128)" id="Drawing_2_8" stroke-linejoin="round" d="M 12315,13652 C 12355,13542 12370,13441 12380,13334"/>
   <path fill="none" stroke="rgb(128,128,128)" id="Drawing_2_9" stroke-linejoin="round" d="M 9306,14054 C 9226,13967 9176,13866 9126,13763"/>
   <path fill="none" stroke="rgb(128,128,128)" id="Drawing_2_10" stroke-linejoin="round" d="M 6648,13428 C 6743,13415 6838,13395 6928,13364"/>
   <path fill="none" stroke="rgb(128,128,128)" id="Drawing_2_11" stroke-linejoin="round" d="M 5733,11754 C 5898,11841 6088,11918 6363,11888"/>
   <rect fill="none" stroke="none" x="5200" y="7525" width="10794" height="7230"/>
  </g>
  <g>
   <path fill="none" stroke="rgb(0,0,0)" id="Drawing_3_0" stroke-width="1321" stroke-linejoin="round" d="M 7428,12623 L 7378,15297"/>
  </g>
  <g>
   <path fill="none" stroke="rgb(0,0,0)" id="Drawing_4_0" stroke-width="1321" stroke-linejoin="round" d="M 9828,12323 L 9778,14997"/>
  </g>
  <g>
   <path fill="none" stroke="rgb(0,0,0)" id="Drawing_5_0" stroke-width="1321" stroke-linejoin="round" d="M 11428,12623 L 11378,15297"/>
  </g>
  <g>
   <path fill="none" stroke="rgb(0,0,0)" id="Drawing_6_0" stroke-width="1321" stroke-linejoin="round" d="M 13328,12423 L 13278,15097"/>
  </g>
  <g>
   <path fill="none" stroke="rgb(0,0,0)" id="Drawing_7_0" stroke-width="1321" stroke-linejoin="round" d="M 14828,11823 L 14778,14497"/>
  </g>
 </g>
</svg>