<?xml version="1.0" encoding="UTF-8"?>

<svg version="1.2" baseProfile="tiny" width="215.9mm" height="279.4mm" viewBox="0 0 21590 27940" preserveAspectRatio="xMidYMid" fill-rule="evenodd" stroke-width="28.222" stroke-linejoin="round" xmlns="http://www.w3.org/2000/svg" xmlns:xlink="http://www.w3.org/1999/xlink" xml:space="preserve">
 <g visibility="visible" id="MasterSlide_1_Default">
  <desc>Master slide
  </desc>
  <rect fill="none" stroke="none" x="0" y="0" width="21590" height="27940"/>
 </g>
 <g visibility="visible" id="Slide_1_page1">
  <g>
   <path fill="rgb(0,0,0)" stroke="none" d="M 7157,3675 C 6183,3675 5210,4648 5210,5622 L 5210,13412 C 5210,14386 6183,15360 7157,15360 L 14947,15360 C 15921,15360 16895,14386 16895,13412 L 16895,5622 C 16895,4648 15921,3675 14947,3675 L 7157,3675 Z"/>
   <path fill="none" stroke="rgb(128,128,128)" id="Drawing_1_0" stroke-linejoin="round" d="M 7157,3675 C 6183,3675 5210,4648 5210,5622 L 5210,13412 C 5210,14386 6183,15360 7157,15360 L 14947,15360 C 15921,15360 16895,14386 16895,13412 L 16895,5622 C 16895,4648 15921,3675 14947,3675 L 7157,3675 Z"/>
   <rect fill="none" stroke="none" x="5210" y="3675" width="11685" height="11685"/>
  </g>
  <g>
   <path fill="rgb(255,255,255)" stroke="none" d="M 11070,13988 C 10193,13988 9448,13788 8688,13350 7929,12912 7383,12366 6945,11607 6507,10847 6307,10102 6307,9226 6307,8349 6507,7604 6945,6844 7383,6085 7929,5539 8688,5101 9448,4663 10193,4463 11069,4463 11946,4463 12691,4663 13451,5101 14210,5539 14756,6085 15194,6844 15632,7604 15832,8349 15832,9225 15832,10102 15632,10847 15194,11607 14756,12366 14210,12912 13451,13350 12691,13788 11946,13988 11070,13988 L 11070,13988 Z"/>
   <path fill="none" stroke="rgb(128,128,128)" id="Drawing_2_0" stroke-linejoin="round" d="M 11070,13988 C 10193,13988 9448,13788 8688,13350 7929,12912 7383,12366 6945,11607 6507,10847 6307,10102 6307,9226 6307,8349 6507,7604 6945,6844 7383,6085 7929,5539 8688,5101 9448,4663 10193,4463 11069,4463 11946,4463 12691,4663 13451,5101 14210,5539 14756,6085 15194,6844 15632,7604 15832,8349 15832,9225 15832,10102 15632,10847 15194,11607 14756,12366 14210,12912 13451,13350 12691,13788 11946,13988 11070,13988 L 11070,13988 Z"/>
  </g>
  <g>
   <path fill="none" stroke="rgb(0,0,0)" id="Drawing_3_0" stroke-width="353" stroke-linejoin="round" d="M 7484,7116 C 7999,7116 8573,7314 8870,7809 9187,8338 9810,8729 10356,8601 10971,8456 11449,7402 12039,7116 12497,6894 12733,7017 13228,7363 13772,7759 14332,8519 14862,8304"/>
  </g>
  <g>
   <path fill="none" stroke="rgb(0,0,0)" id="Drawing_4_0" stroke-width="353" stroke-linejoin="round" d="M 7484,9875 C 7999,9875 8573,10073 8870,10568 9187,11097 9810,11488 10356,11360 10971,11215 11449,10161 12039,9875 12497,9653 12733,9776 13228,10122 13772,10518 14332,11278 14862,11063"/>
  </g>
 </g>
</svg>