<?xml version="1.0" encoding="UTF-8"?>

<svg version="1.2" baseProfile="tiny" width="215.9mm" height="279.4mm" viewBox="0 0 21590 27940" preserveAspectRatio="xMidYMid" fill-rule="evenodd" stroke-width="28.222" stroke-linejoin="round" xmlns="http://www.w3.org/2000/svg" xmlns:xlink="http://www.w3.org/1999/xlink" xml:space="preserve">
 <g visibility="visible" id="MasterSlide_1_Default">
  <desc>Master slide
  </desc>
  <rect fill="none" stroke="none" x="0" y="0" width="21590" height="27940"/>
 </g>
 <g visibility="visible" id="Slide_1_page1">
  <g>
   <path fill="rgb(255,255,255)" stroke="none" d="M 10831,20070 L 16266,20070 C 16967,20070 17536,19501 17536,18800 L 17536,4068 C 17536,3367 16967,2798 16266,2798 L 5395,2798 C 4694,2798 4125,3367 4125,4068 L 4125,18800 C 4125,19501 4694,20070 5395,20070 L 10831,20070 Z"/>
   <path fill="none" stroke="rgb(128,128,128)" id="Drawing_1_0" stroke-linejoin="round" d="M 10831,20070 L 16266,20070 C 16967,20070 17536,19501 17536,18800 L 17536,4068 C 17536,3367 16967,2798 16266,2798 L 5395,2798 C 4694,2798 4125,3367 4125,4068 L 4125,18800 C 4125,19501 4694,20070 5395,20070 L 10831,20070 Z"/>
  </g>
  <g>
   <path fill="rgb(0,69,134)" stroke="none" d="M 10838,19708 L 15981,19708 C 16682,19708 17251,19139 17251,18438 L 17251,4468 C 17251,3767 16682,3198 15981,3198 L 5694,3198 C 4993,3198 4424,3767 4424,4468 L 4424,18438 C 4424,19139 4993,19708 5694,19708 L 10838,19708 Z"/>
   <rect fill="none" stroke="none" x="4424" y="3198" width="12828" height="16511"/>
  </g>
  <g>
   <path fill="none" stroke="rgb(0,0,0)" id="Drawing_3_0" stroke-width="26" stroke-linejoin="round" d="M 7645,12222 L 7645,17201"/>
  </g>
  <g>
   <path fill="none" stroke="rgb(0,0,0)" id="Drawing_4_0" stroke-width="26" stroke-linejoin="round" d="M 13894,12222 L 13894,17201"/>
  </g>
  <g>
   <path fill="rgb(255,255,255)" stroke="none" d="M 10774,17567 C 10198,17567 9709,17552 9211,17518 8711,17484 8354,17442 8066,17383 7778,17325 7647,17267 7647,17200 7647,17133 7778,17075 8066,17016 8354,16957 8711,16915 9210,16882 9709,16848 10198,16832 10774,16832 11349,16832 11839,16848 12337,16882 12836,16915 13194,16957 13482,17016 13770,17075 13901,17133 13901,17200 13901,17267 13770,17325 13482,17383 13194,17442 12836,17484 12337,17518 11839,17552 11349,17567 10774,17567 Z"/>
   <rect fill="none" stroke="none" x="7647" y="16832" width="6255" height="737"/>
  </g>
  <g>
   <path fill="none" stroke="rgb(255,255,255)" id="Drawing_6_0" stroke-width="26" stroke-linejoin="round" d="M 10774,17567 C 10198,17567 9709,17552 9211,17518 8711,17484 8354,17442 8066,17383 7778,17325 7647,17267 7647,17200 7647,17133 7778,17075 8066,17016 8354,16957 8711,16915 9210,16882 9709,16848 10198,16832 10774,16832 11349,16832 11839,16848 12337,16882 12836,16915 13194,16957 13482,17016 13770,17075 13901,17133 13901,17200 13901,17267 13770,17325 13482,17383 13194,17442 12836,17484 12337,17518 11839,17552 11349,17567 10774,17567 Z"/>
  </g>
  <g>
   <path fill="rgb(255,255,255)" stroke="none" d="M 10770,17286 L 7645,17286 7645,12308 13894,12308 13894,17286 10770,17286 Z"/>
   <rect fill="none" stroke="none" x="7644" y="12307" width="6252" height="4980"/>
  </g>
  <g>
   <path fill="none" stroke="rgb(255,255,255)" id="Drawing_8_0" stroke-width="26" stroke-linejoin="round" d="M 10770,17200 L 7645,17200 7645,12222 13894,12222 13894,17200 10770,17200 Z"/>
  </g>
  <g>
   <path fill="rgb(255,255,255)" stroke="none" d="M 10774,12592 C 10198,12592 9709,12576 9210,12542 8711,12509 8354,12467 8066,12408 7778,12349 7647,12292 7647,12224 7647,12157 7778,12099 8066,12040 8354,11981 8711,11939 9210,11907 9709,11872 10198,11857 10773,11857 11349,11857 11838,11872 12337,11907 12835,11939 13193,11981 13481,12040 13769,12099 13900,12157 13900,12224 13900,12292 13769,12349 13481,12408 13193,12467 12835,12509 12337,12542 11838,12576 11349,12592 10774,12592 Z"/>
   <rect fill="none" stroke="none" x="7647" y="11857" width="6254" height="737"/>
  </g>
  <g>
   <rect fill="none" stroke="none" x="7647" y="11857" width="6254" height="737"/>
  </g>
  <g>
   <path fill="none" stroke="rgb(255,255,255)" id="Drawing_11_0" stroke-width="1270" stroke-linejoin="round" d="M 8211,12222 L 8211,8903"/>
  </g>
  <g>
   <path fill="none" stroke="rgb(255,255,255)" id="Drawing_12_0" stroke-width="1270" stroke-linejoin="round" d="M 13262,12223 L 13262,8608"/>
  </g>
  <g>
   <path fill="none" stroke="rgb(255,255,255)" id="Drawing_13_0" stroke-width="1270" stroke-linejoin="round" d="M 11169,5427 L 6525,10588"/>
  </g>
  <g>
   <path fill="none" stroke="rgb(255,255,255)" id="Drawing_14_0" stroke-width="1270" stroke-linejoin="round" d="M 10441,5420 L 14892,10335"/>
  </g>
 </g>
</svg>