<?xml version="1.0" encoding="UTF-8"?>

<svg version="1.2" baseProfile="tiny" width="215.9mm" height="279.4mm" viewBox="0 0 21590 27940" preserveAspectRatio="xMidYMid" fill-rule="evenodd" stroke-width="28.222" stroke-linejoin="round" xmlns="http://www.w3.org/2000/svg" xmlns:xlink="http://www.w3.org/1999/xlink" xml:space="preserve">
 <g visibility="visible" id="MasterSlide_1_Default">
  <desc>Master slide
  </desc>
  <rect fill="none" stroke="none" x="0" y="0" width="21590" height="27940"/>
 </g>
 <g visibility="visible" id="Slide_1_page1">
  <g>
   <path fill="rgb(0,0,0)" stroke="none" d="M 10716,21058 L 4048,21058 4048,2135 17383,2135 17383,21058 10716,21058 Z"/>
   <path fill="none" stroke="rgb(0,0,0)" id="Drawing_1_0" d="M 10716,21058 L 4048,21058 4048,2135 17383,2135 17383,21058 10716,21058 Z"/>
  </g>
  <g id="DrawingGroup_1">
   <g>
    <path fill="none" stroke="rgb(0,0,0)" id="Drawing_2_0" stroke-linejoin="round" d="M 6464,12151 L 6464,18573"/>
   </g>
   <g>
    <path fill="none" stroke="rgb(0,0,0)" id="Drawing_3_0" stroke-linejoin="round" d="M 15057,12151 L 15057,18573"/>
   </g>
   <g>
    <path fill="rgb(255,255,255)" stroke="none" d="M 10766,19045 C 9975,19045 9302,19025 8617,18981 7931,18938 7439,18884 7043,18808 6647,18732 6467,18658 6467,18571 6467,18484 6647,18410 7043,18334 7439,18258 7931,18204 8616,18161 9302,18117 9975,18097 10766,18097 11557,18097 12230,18117 12915,18161 13601,18204 14093,18258 14489,18334 14885,18410 15065,18484 15065,18571 15065,18658 14885,18732 14489,18808 14093,18884 13601,18938 12916,18981 12230,19025 11557,19045 10766,19045 L 10766,19045 Z"/>
    <path fill="none" stroke="rgb(255,255,255)" id="Drawing_4_0" stroke-linejoin="round" d="M 10766,19045 C 9975,19045 9302,19025 8617,18981 7931,18938 7439,18884 7043,18808 6647,18732 6467,18658 6467,18571 6467,18484 6647,18410 7043,18334 7439,18258 7931,18204 8616,18161 9302,18117 9975,18097 10766,18097 11557,18097 12230,18117 12915,18161 13601,18204 14093,18258 14489,18334 14885,18410 15065,18484 15065,18571 15065,18658 14885,18732 14489,18808 14093,18884 13601,18938 12916,18981 12230,19025 11557,19045 10766,19045 L 10766,19045 Z"/>
   </g>
   <g>
    <path fill="rgb(255,255,255)" stroke="none" d="M 10761,18571 L 6464,18571 6464,12151 15057,12151 15057,18571 10761,18571 Z"/>
    <path fill="none" stroke="rgb(255,255,255)" id="Drawing_5_0" stroke-linejoin="round" d="M 10761,18571 L 6464,18571 6464,12151 15057,12151 15057,18571 10761,18571 Z"/>
   </g>
   <g>
    <path fill="rgb(255,255,255)" stroke="none" d="M 10766,12627 C 9974,12627 9302,12607 8616,12563 7931,12520 7439,12466 7043,12390 6647,12314 6467,12240 6467,12153 6467,12066 6647,11992 7043,11916 7439,11840 7931,11786 8616,11743 9302,11699 9974,11679 10765,11679 11557,11679 12229,11699 12915,11743 13600,11786 14092,11840 14488,11916 14884,11992 15064,12066 15064,12153 15064,12240 14884,12314 14488,12390 14092,12466 13600,12520 12915,12563 12229,12607 11557,12627 10766,12627 L 10766,12627 Z"/>
    <path fill="none" stroke="rgb(0,0,0)" id="Drawing_6_0" stroke-width="106" stroke-linejoin="round" d="M 10766,12627 C 9974,12627 9302,12607 8616,12563 7931,12520 7439,12466 7043,12390 6647,12314 6467,12240 6467,12153 6467,12066 6647,11992 7043,11916 7439,11840 7931,11786 8616,11743 9302,11699 9974,11679 10765,11679 11557,11679 12229,11699 12915,11743 13600,11786 14092,11840 14488,11916 14884,11992 15064,12066 15064,12153 15064,12240 14884,12314 14488,12390 14092,12466 13600,12520 12915,12563 12229,12607 11557,12627 10766,12627 L 10766,12627 Z"/>
   </g>
  </g>
  <g>
   <path fill="none" stroke="rgb(255,255,255)" id="Drawing_7_0" stroke-width="529" stroke-linejoin="round" d="M 6564,12151 L 6564,7869"/>
  </g>
  <g>
   <path fill="none" stroke="rgb(255,255,255)" id="Drawing_8_0" stroke-width="529" stroke-linejoin="round" d="M 14864,12152 L 14864,7488"/>
  </g>
  <g>
   <path fill="none" stroke="rgb(255,255,255)" id="Drawing_9_0" stroke-width="529" stroke-linejoin="round" d="M 10875,3496 L 4862,9509"/>
  </g>
  <g>
   <path fill="none" stroke="rgb(255,255,255)" id="Drawing_10_0" stroke-width="529" stroke-linejoin="round" d="M 10875,3498 L 16590,9213"/>
  </g>
  <g id="DrawingGroup_2">
   <g>
    <path fill="none" stroke="rgb(0,0,0)" id="Drawing_11_0" stroke-linejoin="round" d="M 10020,9134 L 10048,10794"/>
   </g>
   <g>
    <path fill="none" stroke="rgb(0,0,0)" id="Drawing_12_0" stroke-linejoin="round" d="M 11529,9134 L 11557,10794"/>
   </g>
   <g>
    <path fill="rgb(255,255,255)" stroke="none" d="M 10805,10917 C 10667,10917 10548,10912 10428,10901 10308,10889 10221,10875 10151,10856 10081,10836 10049,10817 10049,10794 10049,10771 10080,10752 10149,10733 10218,10713 10304,10699 10425,10687 10545,10676 10663,10671 10802,10671 10940,10671 11059,10676 11179,10687 11299,10699 11386,10713 11456,10733 11526,10752 11558,10771 11558,10794 11558,10817 11527,10836 11458,10856 11389,10875 11303,10889 11182,10901 11062,10912 10944,10917 10805,10917 L 10805,10917 Z"/>
    <path fill="none" stroke="rgb(255,255,255)" id="Drawing_13_0" stroke-linejoin="round" d="M 10805,10917 C 10667,10917 10548,10912 10428,10901 10308,10889 10221,10875 10151,10856 10081,10836 10049,10817 10049,10794 10049,10771 10080,10752 10149,10733 10218,10713 10304,10699 10425,10687 10545,10676 10663,10671 10802,10671 10940,10671 11059,10676 11179,10687 11299,10699 11386,10713 11456,10733 11526,10752 11558,10771 11558,10794 11558,10817 11527,10836 11458,10856 11389,10875 11303,10889 11182,10901 11062,10912 10944,10917 10805,10917 L 10805,10917 Z"/>
   </g>
   <g>
    <path fill="rgb(255,255,255)" stroke="none" d="M 10802,10795 L 10048,10795 10020,9133 11528,9133 11556,10795 10802,10795 Z"/>
    <path fill="none" stroke="rgb(255,255,255)" id="Drawing_14_0" stroke-linejoin="round" d="M 10802,10795 L 10048,10795 10020,9133 11528,9133 11556,10795 10802,10795 Z"/>
   </g>
   <g>
    <path fill="rgb(255,255,255)" stroke="none" d="M 10777,9258 C 10639,9258 10520,9253 10400,9242 10280,9230 10193,9216 10123,9197 10053,9177 10021,9158 10021,9135 10021,9112 10052,9093 10121,9074 10190,9054 10276,9040 10397,9028 10517,9017 10635,9012 10774,9012 10912,9012 11031,9017 11151,9028 11271,9040 11358,9054 11428,9074 11498,9093 11530,9112 11530,9135 11530,9158 11499,9177 11430,9197 11361,9216 11275,9230 11154,9242 11034,9253 10916,9258 10777,9258 L 10777,9258 Z"/>
    <path fill="none" stroke="rgb(0,0,0)" id="Drawing_15_0" stroke-width="106" stroke-linejoin="round" d="M 10777,9258 C 10639,9258 10520,9253 10400,9242 10280,9230 10193,9216 10123,9197 10053,9177 10021,9158 10021,9135 10021,9112 10052,9093 10121,9074 10190,9054 10276,9040 10397,9028 10517,9017 10635,9012 10774,9012 10912,9012 11031,9017 11151,9028 11271,9040 11358,9054 11428,9074 11498,9093 11530,9112 11530,9135 11530,9158 11499,9177 11430,9197 11361,9216 11275,9230 11154,9242 11034,9253 10916,9258 10777,9258 L 10777,9258 Z"/>
   </g>
  </g>
  <g>
   <path fill="none" stroke="rgb(255,255,255)" id="Drawing_16_0" stroke-width="353" stroke-linejoin="round" d="M 10847,3570 L 10847,9135"/>
  </g>
 </g>
</svg>