<?xml version="1.0" encoding="UTF-8"?>

<svg version="1.2" baseProfile="tiny" width="215.9mm" height="279.4mm" viewBox="0 0 21590 27940" preserveAspectRatio="xMidYMid" fill-rule="evenodd" stroke-width="28.222" stroke-linejoin="round" xmlns="http://www.w3.org/2000/svg" xmlns:xlink="http://www.w3.org/1999/xlink" xml:space="preserve">
 <g visibility="visible" id="MasterSlide_1_Default">
  <desc>Master slide
  </desc>
  <rect fill="none" stroke="none" x="0" y="0" width="21590" height="27940"/>
 </g>
 <g visibility="visible" id="Slide_1_page1">
  <g>
   <path fill="rgb(17,17,17)" stroke="none" d="M 1621,1000 L 19967,1000 19967,26938 1621,26938 1621,1000 Z"/>
   <rect fill="none" stroke="none" x="1621" y="1000" width="18348" height="25940"/>
  </g>
  <g>
   <path fill="rgb(255,255,255)" stroke="none" d="M 10899,25762 C 10140,25254 9630,24764 9019,23959 8585,23386 8190,22647 8240,22500 8255,22455 8469,22723 8714,23097 9197,23832 9774,24452 10111,24596 10242,24651 10565,24686 10952,24686 11645,24686 11703,24706 12440,25191 12916,25503 13088,25761 13088,26159 L 13088,26396 12406,26396 C 11900,26396 11703,26372 11647,26304 11604,26253 11268,26009 10899,25762 Z M 16003,25107 C 16330,24823 16997,24489 17240,24489 17459,24489 17470,24474 17936,23566 18382,22699 18534,22172 18591,21294 18614,20953 18657,20675 18688,20675 18814,20675 18697,22368 18507,23270 18448,23550 18171,24259 17806,25064 L 17201,26396 16197,26396 C 15257,26396 15193,26388 15193,26272 15193,26091 15684,25384 16003,25107 Z M 14066,26238 C 13827,26186 13263,25663 12954,25208 12410,24407 11819,23073 11585,22114 11448,21556 11270,20500 11226,19984 11213,19839 11198,20041 11192,20432 L 11181,21144 11000,21123 C 10712,21090 10590,20765 10590,20030 10590,19598 10621,19357 10696,19208 10872,18857 11145,18439 11198,18439 11225,18439 11251,18653 11255,18915 L 11264,19392 11320,18932 C 11356,18642 11350,18291 11306,17985 11254,17627 11256,17293 11314,16720 11375,16111 11375,15817 11312,15377 11249,14932 11249,14654 11314,14055 11378,13455 11379,13175 11315,12707 11251,12239 11251,11954 11315,11340 11379,10730 11379,10449 11316,10020 11254,9593 11254,9298 11316,8668 11378,8039 11378,7743 11316,7320 11254,6897 11254,6600 11316,5972 11377,5351 11377,5044 11318,4639 11236,4077 11287,2590 11388,2590 11419,2590 11444,2879 11445,3232 11446,4432 11626,5487 11933,6087 12213,6634 12616,7128 12784,7128 13327,7128 14378,8027 14741,8802 14987,9330 15028,9935 14831,10153 14541,10474 13877,10228 13297,9586 12575,8786 12034,7701 11703,6386 11591,5945 11483,5569 11463,5550 11442,5532 11444,5920 11467,6412 11535,7886 11726,8544 12333,9396 12555,9706 12680,9824 12788,9824 13326,9824 14379,10726 14739,11495 14958,11963 15016,12506 14874,12767 14674,13135 14098,13006 13530,12465 12644,11623 12106,10595 11631,8838 L 11445,8147 11478,9101 C 11511,10075 11663,10927 11879,11356 12138,11871 12592,12460 12756,12494 13550,12662 14320,13292 14741,14116 14919,14465 15003,15018 14922,15311 14858,15543 14854,15545 14496,15545 14033,15545 13741,15395 13307,14936 12541,14126 12072,13176 11630,11534 L 11445,10844 11477,11748 C 11509,12666 11629,13429 11812,13882 11867,14019 12065,14357 12252,14633 12571,15105 12611,15139 12919,15210 13903,15437 14919,16653 14946,17635 14960,18149 14883,18241 14439,18241 13993,18241 13603,17989 13112,17381 12418,16522 12106,15835 11576,13999 L 11444,13540 11480,14477 C 11532,15842 11689,16383 12323,17391 12574,17790 12619,17829 12916,17900 13903,18134 14919,19352 14946,20332 14960,20830 14879,20938 14487,20938 14082,20938 13777,20778 13345,20341 12632,19619 12039,18462 11704,17140 11596,16715 11494,16337 11476,16301 11403,16154 11519,18110 11609,18537 11779,19348 12474,20542 12776,20544 12977,20545 13575,20830 13875,21068 14227,21346 14654,21924 14809,22331 14987,22797 14997,23422 14829,23545 14659,23669 14288,23654 13976,23509 13093,23100 11946,21164 11537,19392 L 11445,18998 11482,19655 C 11558,21038 11796,22062 12180,22665 12422,23044 12657,23239 12871,23239 13367,23239 14340,24043 14696,24746 15163,25667 14950,26513 14305,26298 14269,26286 14161,26259 14066,26238 Z M 15072,24200 C 15104,23697 15282,23344 15830,22694 16350,22076 16665,21857 17113,21802 L 17461,21760 17839,21069 C 18392,20058 18607,19291 18611,18323 18612,18107 18640,17978 18688,17978 18744,17978 18753,18195 18722,18784 18639,20410 18339,21553 17683,22746 16992,24003 16413,24656 15845,24819 15506,24916 15338,24898 15185,24745 15067,24626 15050,24546 15072,24200 Z M 9663,23635 C 8784,22976 7577,21543 7642,21235 7656,21165 7845,21338 8201,21749 9041,22719 9077,22739 10026,22782 10745,22814 10854,22836 11181,23012 11896,23398 12345,24037 12123,24353 12044,24467 11962,24488 11621,24483 11397,24480 11136,24454 11040,24425 10744,24335 10117,23976 9663,23635 Z M 6992,19809 C 6729,19424 6414,18859 6287,18542 6160,18228 6000,17891 5932,17794 5782,17582 5561,17148 5498,16942 5404,16638 5582,16813 5959,17396 6215,17790 6495,18121 6775,18359 7342,18841 7550,18923 8070,18867 8593,18811 9040,18934 9580,19283 10009,19560 10247,19875 10307,20244 10342,20465 10331,20482 10089,20584 9875,20674 9771,20679 9439,20618 8705,20482 8279,20209 7288,19239 6789,18752 6382,18375 6382,18402 6382,18429 6549,18736 6753,19084 7134,19730 7523,20197 7988,20566 8236,20762 8290,20775 8976,20815 9779,20861 10259,21004 10712,21333 11055,21582 11190,21792 11229,22141 11258,22396 11244,22430 11086,22502 10865,22603 10437,22597 10097,22489 9049,22156 7941,21200 6992,19809 Z M 15285,20714 C 15648,19973 16550,19230 17218,19124 17459,19085 17499,19046 17747,18612 18289,17662 18524,16905 18591,15890 18614,15554 18661,15282 18698,15282 18800,15282 18698,16880 18546,17669 18370,18583 18161,19174 17719,20010 17103,21174 16532,21877 16033,22085 15709,22220 15298,22217 15158,22077 14984,21902 15049,21197 15285,20714 Z M 15061,18881 C 15061,17955 16252,16616 17238,16433 17447,16394 17510,16330 17778,15885 17945,15607 18157,15180 18248,14935 18436,14432 18612,13517 18612,13038 18612,12862 18642,12718 18678,12718 18897,12718 18611,15096 18269,16104 18063,16713 17333,18094 16951,18599 16422,19297 16199,19449 15655,19479 15255,19502 15197,19490 15133,19371 15093,19297 15061,19076 15061,18881 Z M 9687,18061 C 9727,17559 10054,16834 10444,16384 10803,15968 10841,15696 10670,14739 10493,13757 10578,13673 10855,14555 11308,16000 11282,17731 10793,18690 10554,19159 10142,19362 9906,19126 9746,18966 9652,18508 9687,18061 Z M 5987,17059 C 5305,16376 4801,15661 4805,15382 4806,15272 4848,15295 5041,15512 5949,16534 6150,16742 6305,16821 6401,16870 6791,16931 7171,16956 8382,17034 8861,17257 9263,17931 9476,18286 9479,18302 9371,18466 9269,18623 9223,18636 8791,18634 8450,18633 8217,18590 7942,18477 7302,18214 6709,17784 5987,17059 Z M 8724,16267 C 8726,15687 8890,15265 9387,14569 9852,13918 9886,13712 9697,12647 9612,12162 9541,11753 9540,11740 9539,11726 9578,11749 9628,11790 9874,11994 10261,13906 10261,14916 10261,15817 9972,16829 9627,17132 9460,17279 9270,17322 9098,17253 8850,17155 8722,16817 8724,16267 Z M 15276,15408 C 15643,14660 16481,13935 17163,13771 17475,13696 17500,13672 17784,13188 18294,12319 18612,11225 18612,10342 18612,10144 18641,10022 18688,10022 18891,10022 18581,12540 18262,13474 17812,14792 16756,16402 16154,16688 16030,16746 15764,16794 15563,16794 15256,16794 15185,16772 15122,16654 15002,16431 15079,15807 15276,15408 Z M 7195,16571 C 6230,16258 5305,15539 4536,14504 4036,13833 3554,13019 3554,12848 3554,12703 3722,12896 4086,13460 4614,14277 4958,14657 5342,14849 5642,14998 5765,15019 6351,15019 6962,15019 7051,15035 7418,15219 8498,15758 8853,16734 7966,16726 7800,16724 7453,16654 7195,16571 Z M 7861,14265 C 7861,13692 7883,13559 8032,13244 8126,13045 8343,12727 8515,12537 8745,12282 8837,12122 8863,11926 8894,11694 8810,10803 8708,10268 8653,9984 8778,10057 8935,10400 9099,10758 9342,12243 9338,12862 9333,13767 8985,14958 8658,15187 8429,15347 8112,15308 7978,15104 7886,14963 7861,14786 7861,14265 Z M 6233,14667 C 5489,14413 4777,13876 3943,12937 3745,12713 3539,12521 3486,12509 3403,12491 2843,11527 2834,11386 2824,11247 2971,11377 3214,11724 3496,12126 4099,12717 4442,12926 4597,13021 4774,13046 5278,13047 5988,13047 6369,13170 6945,13583 7508,13987 7679,14528 7305,14721 7039,14859 6755,14845 6233,14667 Z M 15125,13995 C 14910,13431 15189,12674 15882,11939 16330,11465 16958,11074 17271,11074 17448,11074 17683,10759 18049,10031 18357,9419 18539,8712 18591,7934 18614,7598 18661,7325 18698,7325 18788,7325 18709,8769 18577,9528 18366,10746 17908,11854 17165,12944 16540,13861 16144,14163 15569,14164 15222,14164 15184,14149 15125,13995 Z M 5895,12155 C 5574,11498 5213,10530 5102,10022 4974,9442 4881,7391 4982,7391 5021,7391 5063,7751 5084,8262 5121,9143 5302,9980 5570,10505 5719,10796 6046,11074 6241,11074 6464,11074 6895,11290 7211,11560 7789,12056 8063,13026 7706,13316 7501,13482 7259,13474 6957,13292 6550,13045 6089,12552 5895,12155 Z M 4325,11810 C 3942,11176 3753,10665 3732,10212 3720,9958 3736,9921 3866,9902 3990,9884 4014,9912 4014,10071 4014,10543 4470,11607 4945,12242 5218,12608 5221,12589 4883,12690 4837,12704 4772,12643 4738,12555 4704,12467 4519,12132 4325,11810 Z M 7794,11545 C 7594,10525 7268,9762 6726,9049 6498,8749 6329,8476 6350,8441 6425,8320 6706,8379 6863,8548 7167,8876 7729,10145 7967,11041 8120,11619 8120,11643 7960,11685 7857,11712 7820,11681 7794,11545 Z M 15094,10865 C 15094,10468 15127,10316 15282,10001 15639,9273 16523,8557 17173,8470 L 17476,8429 17912,7565 C 18391,6616 18526,6154 18590,5237 18655,4302 18772,4475 18723,5435 18645,6944 18366,8096 17824,9139 17198,10343 16608,11114 16121,11366 15813,11525 15382,11564 15225,11446 15115,11363 15094,11271 15094,10865 Z M 14809,3059 C 15015,2416 15362,1629 15469,1563 15635,1460 15571,1712 15129,2912 14897,3544 14757,4590 14859,4943 14893,5061 15129,5385 15383,5664 16062,6408 16200,6696 16233,7438 16267,8190 16220,8450 16006,8704 15798,8951 15506,8969 15188,8754 14186,8080 14017,5532 14809,3059 Z M 16809,6711 C 17131,5472 17186,4338 16969,3433 16802,2740 16803,2722 17001,2722 17091,2722 17165,2738 17165,2759 17165,2779 17239,3123 17330,3524 17420,3924 17494,4405 17494,4591 17494,5157 17299,6460 17158,6838 17047,7134 16998,7194 16865,7194 16777,7194 16705,7176 16705,7154 16705,7132 16752,6933 16809,6711 Z M 12828,6191 C 12673,5361 12671,4771 12822,4070 12900,3708 12981,3301 13002,3166 13035,2947 13061,2919 13228,2919 13455,2919 13460,2972 13281,3484 13051,4137 13045,5119 13263,6388 13298,6590 13289,6602 13103,6602 12912,6602 12902,6587 12828,6191 Z"/>
   <rect fill="none" stroke="none" x="2833" y="1542" width="15923" height="24856"/>
  </g>
 </g>
</svg>