<?xml version="1.0" encoding="UTF-8"?>

<svg version="1.2" baseProfile="tiny" width="215.9mm" height="279.4mm" viewBox="0 0 21590 27940" preserveAspectRatio="xMidYMid" fill-rule="evenodd" stroke-width="28.222" stroke-linejoin="round" xmlns="http://www.w3.org/2000/svg" xmlns:xlink="http://www.w3.org/1999/xlink" xml:space="preserve">
 <g visibility="visible" id="MasterSlide_1_Default">
  <desc>Master slide
  </desc>
  <rect fill="none" stroke="none" x="0" y="0" width="21590" height="27940"/>
 </g>
 <g visibility="visible" id="Slide_1_page1">
  <g>
   <path fill="rgb(255,255,255)" stroke="none" d="M 10763,22411 L 18129,22411 C 18830,22411 19399,21842 19399,21141 L 19399,6409 C 19399,5708 18830,5139 18129,5139 L 3397,5139 C 2696,5139 2127,5708 2127,6409 L 2127,21141 C 2127,21842 2696,22411 3397,22411 L 10763,22411 Z"/>
   <path fill="none" stroke="rgb(128,128,128)" id="Drawing_1_0" stroke-linejoin="round" d="M 10763,22411 L 18129,22411 C 18830,22411 19399,21842 19399,21141 L 19399,6409 C 19399,5708 18830,5139 18129,5139 L 3397,5139 C 2696,5139 2127,5708 2127,6409 L 2127,21141 C 2127,21842 2696,22411 3397,22411 L 10763,22411 Z"/>
  </g>
  <g>
   <path fill="rgb(0,0,0)" stroke="none" d="M 10782,22049 L 17767,22049 C 18468,22049 19037,21480 19037,20779 L 19037,6809 C 19037,6108 18468,5539 17767,5539 L 3797,5539 C 3096,5539 2527,6108 2527,6809 L 2527,20779 C 2527,21480 3096,22049 3797,22049 L 10782,22049 Z"/>
   <path fill="none" stroke="rgb(128,128,128)" id="Drawing_2_0" stroke-linejoin="round" d="M 10782,22049 L 17767,22049 C 18468,22049 19037,21480 19037,20779 L 19037,6809 C 19037,6108 18468,5539 17767,5539 L 3797,5539 C 3096,5539 2527,6108 2527,6809 L 2527,20779 C 2527,21480 3096,22049 3797,22049 L 10782,22049 Z"/>
  </g>
  <g id="DrawingGroup_1">
   <g>
    <path fill="rgb(255,255,255)" fill-opacity="0.251" stroke="rgb(255,255,255)" stroke-opacity="0.251" d="M 10548,14165 L 7945,19835 13474,19835 10548,14165 Z"/>
    <rect fill="none" stroke="none" x="7944" y="14165" width="5532" height="5672"/>
   </g>
   <g>
    <path fill="rgb(255,255,255)" stroke="none" d="M 11211,8434 L 12103,6794 11441,6358 10772,7623 10163,6353 9568,6795 10268,8369 4238,19753 4195,19835 7945,19835 10548,14165 13474,19835 17220,19835 11211,8434 Z"/>
    <rect fill="none" stroke="none" x="4194" y="6352" width="13028" height="13485"/>
   </g>
  </g>
 </g>
</svg>