<?xml version="1.0" encoding="UTF-8"?>

<svg version="1.2" baseProfile="tiny" width="215.9mm" height="279.4mm" viewBox="0 0 21590 27940" preserveAspectRatio="xMidYMid" fill-rule="evenodd" stroke-width="28.222" stroke-linejoin="round" xmlns="http://www.w3.org/2000/svg" xmlns:xlink="http://www.w3.org/1999/xlink" xml:space="preserve">
 <g visibility="visible" id="MasterSlide_1_Default">
  <desc>Master slide
  </desc>
  <rect fill="none" stroke="none" x="0" y="0" width="21590" height="27940"/>
 </g>
 <g visibility="visible" id="Slide_1_page1">
  <g>
   <path fill="rgb(255,255,255)" stroke="none" d="M 10802,22014 L 18168,22014 C 18869,22014 19438,21445 19438,20744 L 19438,6012 C 19438,5311 18869,4742 18168,4742 L 3436,4742 C 2735,4742 2166,5311 2166,6012 L 2166,20744 C 2166,21445 2735,22014 3436,22014 L 10802,22014 Z"/>
   <path fill="none" stroke="rgb(128,128,128)" id="Drawing_1_0" stroke-linejoin="round" d="M 10802,22014 L 18168,22014 C 18869,22014 19438,21445 19438,20744 L 19438,6012 C 19438,5311 18869,4742 18168,4742 L 3436,4742 C 2735,4742 2166,5311 2166,6012 L 2166,20744 C 2166,21445 2735,22014 3436,22014 L 10802,22014 Z"/>
  </g>
  <g>
   <path fill="rgb(0,0,0)" stroke="none" d="M 10921,21652 L 17906,21652 C 18607,21652 19176,21083 19176,20382 L 19176,6412 C 19176,5711 18607,5142 17906,5142 L 3936,5142 C 3235,5142 2666,5711 2666,6412 L 2666,20382 C 2666,21083 3235,21652 3936,21652 L 10921,21652 Z"/>
   <path fill="none" stroke="rgb(128,128,128)" id="Drawing_2_0" stroke-linejoin="round" d="M 10921,21652 L 17906,21652 C 18607,21652 19176,21083 19176,20382 L 19176,6412 C 19176,5711 18607,5142 17906,5142 L 3936,5142 C 3235,5142 2666,5711 2666,6412 L 2666,20382 C 2666,21083 3235,21652 3936,21652 L 10921,21652 Z"/>
  </g>
  <g id="DrawingGroup_1">
   <g>
    <path fill="rgb(255,255,255)" stroke="none" d="M 7771,18576 C 6739,17994 6110,16632 6575,14597 6900,13171 7850,11409 7122,9943 8005,10553 8923,12004 9849,13642 9913,11871 8993,10709 9654,8287 10108,11284 11926,11469 12850,14194 13243,12913 14061,12492 13662,9310 17679,14795 15389,16743 14587,18706 L 14847,15979 C 13587,19621 12577,20293 11666,21108 12175,19398 12376,17689 11341,15979 11091,18786 10381,18202 10238,20459 8820,19388 8529,18290 8275,16498 8082,16708 7756,17584 7771,18576 Z"/>
    <rect fill="none" stroke="none" x="6419" y="8286" width="9548" height="12824"/>
   </g>
   <g>
    <path fill="rgb(255,255,255)" stroke="none" d="M 10709,5479 C 9659,9745 11575,9708 12639,12215 13386,8349 11153,9219 10709,5479 Z"/>
    <rect fill="none" stroke="none" x="10403" y="5478" width="2390" height="6738"/>
   </g>
  </g>
 </g>
</svg>