<?xml version="1.0" encoding="UTF-8"?>

<svg version="1.2" baseProfile="tiny" width="215.9mm" height="279.4mm" viewBox="0 0 21590 27940" preserveAspectRatio="xMidYMid" fill-rule="evenodd" stroke-width="28.222" stroke-linejoin="round" xmlns="http://www.w3.org/2000/svg" xmlns:xlink="http://www.w3.org/1999/xlink" xml:space="preserve">
 <g visibility="visible" id="MasterSlide_1_Default">
  <desc>Master slide
  </desc>
  <rect fill="none" stroke="none" x="0" y="0" width="21590" height="27940"/>
 </g>
 <g visibility="visible" id="Slide_1_page1">
  <g>
   <path fill="rgb(255,255,255)" stroke="none" d="M 10983,22362 L 18349,22362 C 19050,22362 19619,21793 19619,21092 L 19619,6360 C 19619,5659 19050,5090 18349,5090 L 3617,5090 C 2916,5090 2347,5659 2347,6360 L 2347,21092 C 2347,21793 2916,22362 3617,22362 L 10983,22362 Z"/>
   <path fill="none" stroke="rgb(128,128,128)" id="Drawing_1_0" stroke-linejoin="round" d="M 10983,22362 L 18349,22362 C 19050,22362 19619,21793 19619,21092 L 19619,6360 C 19619,5659 19050,5090 18349,5090 L 3617,5090 C 2916,5090 2347,5659 2347,6360 L 2347,21092 C 2347,21793 2916,22362 3617,22362 L 10983,22362 Z"/>
  </g>
  <g id="DrawingGroup_1">
   <g>
    <path fill="rgb(0,0,0)" stroke="none" d="M 17827,5443 L 17963,5469 18096,5505 18224,5552 18347,5609 18466,5676 18580,5753 18690,5841 18795,5939 18916,6071 19021,6211 19068,6284 19110,6358 19149,6434 19183,6512 19213,6592 19239,6673 19280,6841 19304,7017 19312,7199 19312,20177 19304,20360 19280,20535 19239,20703 19213,20784 19183,20864 19149,20942 19110,21018 19068,21093 19021,21165 18916,21305 18795,21438 18662,21559 18522,21663 18450,21710 18376,21752 18299,21790 18222,21824 18142,21855 18061,21881 17892,21921 17717,21945 17534,21953 4554,21953 4371,21945 4196,21921 4028,21881 3946,21855 3866,21824 3788,21790 3712,21752 3638,21710 3565,21663 3426,21559 3293,21438 3172,21305 3067,21165 3021,21093 2978,21018 2940,20942 2906,20864 2876,20784 2849,20703 2809,20535 2785,20360 2777,20177 2777,7199 2785,7017 2809,6841 2849,6673 2876,6592 2906,6512 2940,6434 2978,6358 3021,6284 3067,6211 3172,6071 3293,5939 3398,5841 3508,5753 3622,5676 3741,5609 3864,5552 3992,5505 4125,5469 4262,5443 17827,5443 Z M 15385,8852 L 6662,8852 6662,9906 8709,9906 7716,13296 3955,13296 3955,14184 7448,14184 6166,18524 7675,18524 8957,14184 13111,14184 14393,18524 15964,18524 14661,14184 18134,14184 18134,13316 14413,13316 13421,9886 15385,9886 15385,8852 Z M 10238,9886 L 11871,9886 12843,13296 9225,13296 10238,9886 Z"/>
    <rect fill="none" stroke="none" x="2776" y="5443" width="16538" height="16512"/>
   </g>
  </g>
 </g>
</svg>