<?xml version="1.0" encoding="UTF-8"?>

<svg version="1.2" baseProfile="tiny" width="215.9mm" height="279.4mm" viewBox="0 0 21590 27940" preserveAspectRatio="xMidYMid" fill-rule="evenodd" stroke-width="28.222" stroke-linejoin="round" xmlns="http://www.w3.org/2000/svg" xmlns:xlink="http://www.w3.org/1999/xlink" xml:space="preserve">
 <g visibility="visible" id="MasterSlide_1_Default">
  <desc>Master slide
  </desc>
  <rect fill="none" stroke="none" x="0" y="0" width="21590" height="27940"/>
 </g>
 <g visibility="visible" id="Slide_1_page1">
  <g>
   <path fill="rgb(255,255,255)" stroke="none" d="M 11297,20690 C 9708,20690 8355,20308 6979,19469 5601,18629 4612,17585 3817,16131 3023,14676 2661,13250 2661,11571 2661,9893 3023,8465 3817,7011 4612,5557 5601,4513 6979,3674 8355,2834 9708,2452 11295,2452 12886,2452 14239,2834 15615,3674 16993,4513 17982,5557 18777,7011 19571,8465 19933,9893 19933,11570 19933,13250 19571,14676 18777,16131 17982,17585 16993,18629 15615,19469 14239,20308 12886,20690 11297,20690 Z"/>
   <path fill="none" stroke="rgb(128,128,128)" id="Drawing_1_0" d="M 11297,20690 C 9708,20690 8355,20308 6979,19469 5601,18629 4612,17585 3817,16131 3023,14676 2661,13250 2661,11571 2661,9893 3023,8465 3817,7011 4612,5557 5601,4513 6979,3674 8355,2834 9708,2452 11295,2452 12886,2452 14239,2834 15615,3674 16993,4513 17982,5557 18777,7011 19571,8465 19933,9893 19933,11570 19933,13250 19571,14676 18777,16131 17982,17585 16993,18629 15615,19469 14239,20308 12886,20690 11297,20690 Z"/>
  </g>
  <g>
   <path fill="rgb(255,255,255)" stroke="none" d="M 11275,18786 C 10001,18786 8917,18480 7814,17808 6710,17135 5917,16298 5280,15132 4643,13967 4353,12823 4353,11478 4353,10133 4643,8988 5280,7823 5917,6657 6710,5821 7814,5149 8917,4475 10001,4169 11274,4169 12549,4169 13633,4475 14736,5149 15840,5821 16633,6657 17270,7823 17907,8988 18197,10133 18197,11477 18197,12823 17907,13967 17270,15132 16633,16298 15840,17135 14736,17808 13633,18480 12549,18786 11275,18786 Z"/>
   <path fill="none" stroke="rgb(153,102,0)" id="Drawing_2_0" stroke-width="1151" stroke-linejoin="round" d="M 11275,18786 C 10001,18786 8917,18480 7814,17808 6710,17135 5917,16298 5280,15132 4643,13967 4353,12823 4353,11478 4353,10133 4643,8988 5280,7823 5917,6657 6710,5821 7814,5149 8917,4475 10001,4169 11274,4169 12549,4169 13633,4475 14736,5149 15840,5821 16633,6657 17270,7823 17907,8988 18197,10133 18197,11477 18197,12823 17907,13967 17270,15132 16633,16298 15840,17135 14736,17808 13633,18480 12549,18786 11275,18786 Z"/>
  </g>
  <g id="DrawingGroup_1">
   <g>
    <path fill="rgb(153,102,0)" stroke="none" d="M 11255,6004 L 12502,6003 12504,9805 10010,9806 10008,6004 11255,6004 Z"/>
    <rect fill="none" stroke="none" x="10008" y="6002" width="2498" height="3805"/>
   </g>
   <g>
    <path fill="rgb(153,102,0)" stroke="none" d="M 11255,6004 L 12502,6003 12504,9805 10010,9806 10008,6004 11255,6004 Z"/>
    <rect fill="none" stroke="none" x="10008" y="6002" width="2498" height="3805"/>
   </g>
   <g>
    <path fill="rgb(153,102,0)" stroke="none" d="M 11299,16923 L 7173,9758 15416,9753 11299,16923 Z"/>
    <rect fill="none" stroke="none" x="7172" y="9753" width="8246" height="7172"/>
   </g>
   <g>
    <path fill="rgb(153,102,0)" stroke="none" d="M 11299,16923 L 7173,9758 15416,9753 11299,16923 Z"/>
    <rect fill="none" stroke="none" x="7172" y="9753" width="8246" height="7172"/>
   </g>
  </g>
 </g>
</svg>