<?xml version="1.0" encoding="UTF-8"?>

<svg version="1.2" baseProfile="tiny" width="215.9mm" height="279.4mm" viewBox="0 0 21590 27940" preserveAspectRatio="xMidYMid" fill-rule="evenodd" stroke-width="28.222" stroke-linejoin="round" xmlns="http://www.w3.org/2000/svg" xmlns:xlink="http://www.w3.org/1999/xlink" xml:space="preserve">
 <g visibility="visible" id="MasterSlide_1_Default">
  <desc>Master slide
  </desc>
  <rect fill="none" stroke="none" x="0" y="0" width="21590" height="27940"/>
 </g>
 <g visibility="visible" id="Slide_1_page1">
  <g>
   <path fill="rgb(255,255,255)" stroke="none" d="M 5389,4196 C 3949,4196 2512,5635 2512,7073 L 2512,18588 C 2512,20027 3949,21468 5389,21468 L 16905,21468 C 18344,21468 19784,20027 19784,18588 L 19784,7073 C 19784,5635 18344,4196 16905,4196 L 5389,4196 Z"/>
   <path fill="none" stroke="rgb(128,128,128)" id="Drawing_1_0" d="M 5389,4196 C 3949,4196 2512,5635 2512,7073 L 2512,18588 C 2512,20027 3949,21468 5389,21468 L 16905,21468 C 18344,21468 19784,20027 19784,18588 L 19784,7073 C 19784,5635 18344,4196 16905,4196 L 5389,4196 Z"/>
  </g>
  <g>
   <path fill="rgb(153,0,0)" stroke="none" d="M 5662,4596 C 4285,4596 2912,5971 2912,7347 L 2912,18354 C 2912,19730 4285,21107 5662,21107 L 16670,21107 C 18045,21107 19422,19730 19422,18354 L 19422,7347 C 19422,5971 18045,4596 16670,4596 L 5662,4596 Z"/>
   <rect fill="none" stroke="none" x="2911" y="4595" width="16513" height="16513"/>
  </g>
  <g>
   <path fill="rgb(255,255,255)" stroke="none" d="M 11192,19168 C 9952,19168 8900,18886 7825,18267 6754,17648 5982,16876 5363,15803 4744,14730 4462,13678 4462,12440 4462,11200 4744,10147 5363,9073 5982,8002 6754,7230 7825,6611 8900,5991 9952,5709 11190,5709 12429,5709 13483,5991 14556,6611 15628,7230 16400,8002 17019,9073 17637,10147 17921,11200 17921,12438 17921,13678 17637,14730 17019,15803 16400,16876 15628,17648 14556,18267 13483,18886 12429,19168 11192,19168 Z"/>
   <rect fill="none" stroke="none" x="4461" y="5709" width="13461" height="13461"/>
  </g>
  <g>
   <path fill="none" stroke="rgb(128,128,128)" id="Drawing_4_0" stroke-width="26" stroke-linejoin="round" d="M 11192,19168 C 9952,19168 8900,18886 7825,18267 6754,17648 5982,16876 5363,15803 4744,14730 4462,13678 4462,12440 4462,11200 4744,10147 5363,9073 5982,8002 6754,7230 7825,6611 8900,5991 9952,5709 11190,5709 12429,5709 13483,5991 14556,6611 15628,7230 16400,8002 17019,9073 17637,10147 17921,11200 17921,12438 17921,13678 17637,14730 17019,15803 16400,16876 15628,17648 14556,18267 13483,18886 12429,19168 11192,19168 Z"/>
  </g>
  <g>
   <path fill="none" stroke="rgb(153,0,0)" id="Drawing_5_0" stroke-width="1016" stroke-linejoin="round" d="M 6124,9458 C 6852,9458 7663,9737 8083,10437 8530,11184 9411,11736 10183,11555 11052,11351 11727,9862 12561,9458 13208,9145 13542,9318 14241,9807 15009,10366 15800,11440 16550,11136"/>
  </g>
  <g>
   <path fill="none" stroke="rgb(153,0,0)" id="Drawing_6_0" stroke-width="1016" stroke-linejoin="round" d="M 6124,13356 C 6852,13356 7663,13636 8083,14336 8530,15083 9411,15635 10183,15454 11052,15250 11727,13760 12561,13356 13208,13043 13542,13216 14241,13706 15009,14266 15800,15338 16550,15034"/>
  </g>
 </g>
</svg>