<?xml version="1.0" encoding="UTF-8"?>

<svg version="1.2" baseProfile="tiny" width="215.9mm" height="279.4mm" viewBox="0 0 21590 27940" preserveAspectRatio="xMidYMid" fill-rule="evenodd" stroke-width="28.222" stroke-linejoin="round" xmlns="http://www.w3.org/2000/svg" xmlns:xlink="http://www.w3.org/1999/xlink" xml:space="preserve">
 <g visibility="visible" id="MasterSlide_1_Default">
  <desc>Master slide
  </desc>
  <rect fill="none" stroke="none" x="0" y="0" width="21590" height="27940"/>
 </g>
 <g visibility="visible" id="Slide_1_page1">
  <g>
   <path fill="rgb(255,255,255)" stroke="none" d="M 10313,20860 L 17679,20860 C 18380,20860 18949,20291 18949,19590 L 18949,4858 C 18949,4157 18380,3588 17679,3588 L 2947,3588 C 2246,3588 1677,4157 1677,4858 L 1677,19590 C 1677,20291 2246,20860 2947,20860 L 10313,20860 Z"/>
   <path fill="none" stroke="rgb(128,128,128)" id="Drawing_1_0" stroke-linejoin="round" d="M 10313,20860 L 17679,20860 C 18380,20860 18949,20291 18949,19590 L 18949,4858 C 18949,4157 18380,3588 17679,3588 L 2947,3588 C 2246,3588 1677,4157 1677,4858 L 1677,19590 C 1677,20291 2246,20860 2947,20860 L 10313,20860 Z"/>
  </g>
  <g id="DrawingGroup_1">
   <g>
    <path fill="rgb(0,0,0)" stroke="none" d="M 17118,4048 L 17255,4074 17387,4111 17514,4158 17636,4215 17754,4283 17868,4360 17977,4448 18082,4545 18203,4678 18308,4817 18355,4889 18397,4963 18436,5039 18471,5117 18501,5196 18528,5277 18550,5360 18569,5445 18593,5621 18601,5803 18601,18757 18593,18940 18569,19115 18550,19200 18528,19283 18501,19364 18471,19444 18436,19521 18397,19597 18355,19671 18308,19743 18203,19883 18082,20015 17950,20136 17810,20241 17738,20288 17664,20331 17588,20369 17510,20404 17431,20434 17350,20461 17267,20483 17182,20502 17007,20526 16824,20534 3861,20534 3681,20526 3506,20502 3338,20461 3257,20434 3177,20404 3099,20369 3023,20331 2949,20288 2876,20241 2736,20136 2603,20015 2482,19883 2378,19743 2332,19671 2290,19597 2252,19521 2218,19444 2188,19364 2162,19283 2123,19115 2099,18940 2091,18757 2091,5803 2099,5621 2123,5445 2162,5277 2188,5196 2218,5117 2252,5039 2290,4963 2332,4889 2378,4817 2482,4678 2603,4545 2708,4448 2818,4360 2932,4283 3051,4215 3174,4158 3302,4111 3433,4074 3569,4048 17118,4048 Z M 14307,18552 L 12654,18552 11974,9622 12654,9622 12654,6484 13195,6484 13195,5862 10343,5204 7541,5862 7541,6484 8097,6484 8097,9622 8777,9622 8053,18574 6385,18574 6385,19357 14307,19357 14307,18552 Z M 12076,7990 L 8675,8012 8675,6484 12076,6484 12076,7990 Z M 11813,18552 L 8879,18574 9106,15787 10343,14449 11586,15787 11813,18552 Z M 11337,12672 L 10328,13769 9355,12737 9604,9622 11089,9622 11337,12672 Z M 11374,13315 L 11520,15027 10657,14098 11374,13315 Z M 10013,14098 L 9187,15005 9333,13330 10013,14098 Z"/>
    <rect fill="none" stroke="none" x="2090" y="4048" width="16513" height="16488"/>
   </g>
  </g>
 </g>
</svg>