<?xml version="1.0" encoding="UTF-8"?>

<svg version="1.2" baseProfile="tiny" width="215.9mm" height="279.4mm" viewBox="0 0 21590 27940" preserveAspectRatio="xMidYMid" fill-rule="evenodd" stroke-width="28.222" stroke-linejoin="round" xmlns="http://www.w3.org/2000/svg" xmlns:xlink="http://www.w3.org/1999/xlink" xml:space="preserve">
 <g visibility="visible" id="MasterSlide_1_Default">
  <desc>Master slide
  </desc>
  <rect fill="none" stroke="none" x="0" y="0" width="21590" height="27940"/>
 </g>
 <g visibility="visible" id="Slide_1_page1">
  <g>
   <path fill="rgb(255,255,255)" stroke="none" d="M 10967,21731 L 15996,21731 C 16697,21731 17266,21162 17266,20461 L 17266,5729 C 17266,5028 16697,4459 15996,4459 L 5938,4459 C 5237,4459 4668,5028 4668,5729 L 4668,20461 C 4668,21162 5237,21731 5938,21731 L 10967,21731 Z"/>
   <path fill="none" stroke="rgb(128,128,128)" id="Drawing_1_0" stroke-linejoin="round" d="M 10967,21731 L 15996,21731 C 16697,21731 17266,21162 17266,20461 L 17266,5729 C 17266,5028 16697,4459 15996,4459 L 5938,4459 C 5237,4459 4668,5028 4668,5729 L 4668,20461 C 4668,21162 5237,21731 5938,21731 L 10967,21731 Z"/>
  </g>
  <g id="DrawingGroup_1">
   <g>
    <path fill="rgb(0,102,0)" stroke="none" d="M 10929,21389 L 15679,21389 C 16380,21389 16949,20820 16949,20119 L 16949,6149 C 16949,5448 16380,4879 15679,4879 L 6179,4879 C 5478,4879 4909,5448 4909,6149 L 4909,20119 C 4909,20820 5478,21389 6179,21389 L 10929,21389 Z"/>
    <path fill="none" stroke="rgb(128,128,128)" id="Drawing_2_0" stroke-linejoin="round" d="M 10929,21389 L 15679,21389 C 16380,21389 16949,20820 16949,20119 L 16949,6149 C 16949,5448 16380,4879 15679,4879 L 6179,4879 C 5478,4879 4909,5448 4909,6149 L 4909,20119 C 4909,20820 5478,21389 6179,21389 L 10929,21389 Z"/>
   </g>
   <g>
    <path fill="rgb(0,102,0)" stroke="none" d="M 5301,5261 C 9023,5261 12745,5261 16467,5261 16467,10522 16467,15782 16467,21043 12745,21043 9023,21043 5301,21043 5301,15782 5301,10522 5301,5261 Z"/>
    <rect fill="none" stroke="none" x="5300" y="5261" width="11169" height="15783"/>
   </g>
   <g>
    <path fill="rgb(255,255,255)" stroke="none" d="M 10948,20328 C 10486,20018 10175,19720 9803,19231 9539,18882 9299,18432 9329,18343 9338,18315 9469,18479 9618,18706 9911,19153 10263,19531 10468,19618 10548,19652 10744,19673 10980,19673 11402,19673 11437,19685 11886,19980 12175,20170 12280,20327 12280,20569 L 12280,20713 11865,20713 C 11557,20713 11437,20699 11403,20658 11377,20627 11172,20478 10948,20328 Z M 14055,19929 C 14253,19756 14659,19553 14808,19553 14941,19553 14947,19544 15231,18992 15502,18464 15595,18144 15630,17609 15644,17402 15670,17232 15689,17232 15765,17232 15694,18262 15579,18812 15542,18982 15374,19413 15151,19903 L 14783,20713 14172,20713 C 13600,20713 13562,20709 13562,20638 13562,20528 13860,20098 14055,19929 Z M 12875,20617 C 12730,20586 12387,20267 12199,19991 11867,19503 11507,18691 11365,18108 11282,17768 11174,17126 11147,16812 11139,16724 11130,16847 11126,17085 L 11119,17518 11009,17505 C 10834,17485 10760,17287 10760,16840 10760,16577 10779,16431 10824,16340 10931,16126 11098,15872 11130,15872 11146,15872 11162,16002 11164,16161 L 11170,16452 11204,16172 C 11226,15996 11222,15782 11196,15596 11164,15378 11165,15175 11200,14826 11237,14456 11237,14277 11199,14009 11161,13738 11161,13569 11200,13205 11239,12840 11240,12669 11201,12384 11162,12100 11162,11926 11201,11552 11240,11182 11240,11010 11202,10749 11164,10489 11164,10310 11202,9927 11239,9544 11240,9364 11202,9107 11164,8849 11164,8668 11202,8286 11239,7909 11239,7722 11202,7475 11153,7133 11184,6229 11245,6229 11264,6229 11280,6405 11280,6619 11280,7350 11390,7992 11577,8356 11747,8689 11993,8990 12095,8990 12426,8990 13065,9537 13286,10009 13436,10330 13461,10698 13341,10831 13165,11026 12760,10876 12408,10485 11968,9999 11638,9339 11437,8538 11369,8270 11303,8041 11291,8030 11278,8019 11280,8255 11293,8554 11335,9451 11451,9852 11820,10370 11955,10559 12032,10630 12097,10630 12425,10630 13066,11179 13285,11647 13418,11932 13453,12262 13367,12421 13245,12645 12895,12566 12549,12237 12010,11725 11682,11099 11393,10030 L 11280,9610 11300,10191 C 11320,10783 11413,11301 11544,11562 11702,11876 11978,12234 12078,12255 12561,12357 13030,12740 13286,13242 13394,13454 13446,13790 13396,13969 13357,14110 13355,14111 13137,14111 12856,14111 12678,14020 12414,13741 11947,13248 11662,12670 11393,11671 L 11280,11251 11299,11801 C 11319,12359 11392,12823 11503,13099 11537,13183 11657,13388 11771,13556 11966,13843 11990,13864 12177,13907 12776,14046 13394,14786 13411,15382 13420,15695 13373,15752 13102,15752 12831,15752 12594,15598 12295,15228 11872,14706 11682,14287 11360,13171 L 11280,12891 11301,13461 C 11333,14292 11429,14621 11814,15234 11968,15477 11994,15501 12175,15544 12776,15687 13394,16427 13411,17024 13420,17327 13370,17392 13132,17392 12885,17392 12700,17295 12436,17029 12002,16590 11642,15886 11438,15082 11372,14823 11310,14593 11299,14571 11254,14482 11325,15672 11380,15932 11483,16425 11906,17152 12090,17152 12213,17153 12577,17327 12759,17471 12973,17641 13233,17992 13328,18240 13436,18524 13442,18904 13340,18979 13236,19054 13011,19045 12821,18957 12283,18708 11585,17530 11336,16452 L 11280,16212 11303,16612 C 11349,17453 11494,18076 11727,18443 11875,18674 12018,18792 12148,18792 12450,18792 13042,19282 13259,19709 13543,20270 13413,20784 13021,20654 12999,20646 12933,20630 12875,20617 Z M 13488,19377 C 13507,19071 13615,18857 13949,18461 14265,18085 14458,17952 14730,17918 L 14942,17892 15172,17472 C 15508,16857 15639,16390 15642,15801 15643,15670 15659,15591 15689,15591 15722,15591 15728,15724 15709,16082 15659,17071 15476,17767 15077,18493 14656,19258 14304,19654 13958,19754 13752,19813 13650,19802 13556,19709 13485,19636 13474,19588 13488,19377 Z M 10196,19033 C 9660,18632 8926,17761 8965,17573 8974,17531 9089,17636 9306,17886 9817,18476 9839,18488 10417,18514 10854,18534 10920,18547 11119,18655 11554,18890 11828,19278 11693,19470 11644,19540 11595,19552 11387,19550 11251,19548 11092,19532 11034,19514 10853,19460 10472,19241 10196,19033 Z M 8569,16705 C 8409,16472 8218,16128 8141,15934 8064,15744 7966,15538 7925,15480 7833,15350 7699,15086 7661,14961 7603,14776 7712,14883 7941,15237 8096,15477 8267,15679 8438,15824 8783,16116 8909,16167 9226,16133 9544,16098 9816,16173 10145,16386 10406,16554 10551,16746 10587,16971 10609,17105 10602,17115 10455,17177 10325,17232 10261,17235 10059,17197 9613,17115 9353,16949 8750,16359 8446,16063 8199,15833 8199,15849 8199,15866 8300,16053 8424,16264 8656,16658 8893,16942 9176,17166 9327,17285 9360,17293 9777,17318 10266,17346 10558,17432 10834,17633 11043,17784 11125,17912 11149,18125 11166,18280 11157,18300 11061,18344 10927,18405 10666,18402 10460,18336 9821,18133 9147,17552 8569,16705 Z M 13617,17256 C 13838,16805 14387,16353 14794,16289 14941,16265 14965,16241 15116,15977 15446,15399 15589,14939 15630,14321 15644,14117 15672,13951 15695,13951 15757,13951 15695,14923 15602,15403 15495,15960 15368,16319 15099,16828 14724,17536 14376,17964 14073,18091 13875,18172 13625,18170 13540,18086 13434,17979 13474,17550 13617,17256 Z M 13481,16141 C 13481,15577 14206,14763 14806,14651 14933,14628 14971,14589 15135,14318 15236,14149 15365,13889 15421,13740 15535,13434 15643,12877 15643,12586 15643,12479 15661,12391 15683,12391 15816,12391 15642,13838 15434,14451 15308,14822 14864,15662 14632,15969 14309,16394 14173,16486 13842,16504 13599,16519 13564,16511 13525,16439 13500,16394 13481,16259 13481,16141 Z M 10210,15642 C 10235,15337 10433,14896 10670,14622 10889,14369 10912,14203 10808,13621 10701,13023 10752,12972 10921,13509 11196,14388 11181,15441 10883,16024 10738,16310 10487,16433 10343,16290 10246,16193 10189,15914 10210,15642 Z M 7958,15033 C 7543,14617 7236,14182 7239,14012 7239,13945 7265,13959 7382,14091 7935,14713 8058,14839 8152,14888 8210,14917 8447,14955 8679,14970 9416,15017 9707,15153 9952,15563 10081,15779 10083,15789 10018,15888 9956,15984 9928,15992 9665,15991 9457,15990 9315,15964 9148,15895 8758,15735 8397,15474 7958,15033 Z M 9624,14551 C 9625,14197 9725,13941 10028,13517 10310,13121 10331,12996 10216,12348 10165,12053 10121,11804 10120,11796 10120,11787 10144,11801 10174,11826 10324,11951 10560,13114 10560,13729 10560,14277 10384,14892 10173,15077 10072,15166 9956,15192 9852,15150 9701,15091 9623,14885 9624,14551 Z M 13612,14028 C 13835,13573 14345,13132 14761,13032 14950,12986 14965,12971 15138,12677 15449,12148 15643,11483 15643,10945 15643,10825 15660,10751 15689,10751 15812,10751 15624,12283 15430,12851 15156,13653 14513,14632 14146,14806 14071,14842 13909,14871 13787,14871 13600,14871 13556,14857 13518,14786 13445,14650 13492,14271 13612,14028 Z M 8693,14735 C 8106,14545 7543,14107 7075,13477 6771,13069 6477,12574 6477,12470 6477,12382 6579,12499 6801,12842 7122,13340 7331,13571 7565,13688 7748,13778 7823,13791 8180,13791 8551,13791 8606,13801 8829,13913 9486,14241 9703,14835 9162,14830 9062,14828 8850,14786 8693,14735 Z M 9099,13332 C 9099,12984 9112,12903 9203,12711 9260,12590 9392,12396 9497,12281 9637,12126 9692,12028 9709,11909 9727,11768 9676,11226 9614,10900 9581,10728 9657,10772 9752,10981 9852,11199 10000,12102 9997,12479 9995,13030 9782,13754 9584,13893 9445,13990 9251,13967 9170,13843 9114,13757 9099,13649 9099,13332 Z M 8108,13577 C 7655,13422 7221,13095 6714,12524 6593,12388 6468,12272 6436,12264 6385,12253 6044,11667 6039,11581 6033,11496 6122,11575 6270,11786 6442,12031 6809,12390 7018,12517 7112,12576 7220,12590 7526,12591 7959,12591 8191,12666 8541,12917 8884,13163 8988,13492 8760,13610 8598,13694 8426,13685 8108,13577 Z M 13520,13168 C 13389,12825 13559,12364 13981,11917 14253,11629 14636,11391 14826,11391 14934,11391 15077,11199 15300,10756 15487,10384 15598,9954 15630,9480 15644,9276 15672,9110 15695,9110 15749,9110 15702,9989 15621,10450 15493,11191 15214,11865 14762,12529 14381,13087 14140,13270 13790,13271 13579,13271 13556,13262 13520,13168 Z M 7902,12049 C 7707,11649 7487,11060 7419,10751 7341,10398 7285,9150 7346,9150 7370,9150 7396,9369 7409,9680 7431,10216 7541,10725 7704,11045 7795,11221 7994,11391 8113,11391 8248,11391 8511,11522 8703,11687 9055,11988 9222,12578 9004,12755 8880,12856 8732,12851 8549,12740 8301,12590 8020,12290 7902,12049 Z M 6946,11838 C 6713,11453 6599,11142 6585,10866 6578,10712 6588,10690 6667,10677 6742,10667 6757,10683 6757,10780 6757,11068 7034,11715 7324,12102 7490,12324 7492,12312 7286,12374 7258,12382 7219,12345 7198,12292 7177,12238 7065,12034 6946,11838 Z M 9058,11677 C 8936,11057 8738,10592 8407,10158 8269,9976 8166,9810 8179,9788 8225,9715 8395,9751 8491,9854 8676,10054 9018,10826 9163,11370 9257,11722 9257,11737 9159,11763 9096,11779 9074,11760 9058,11677 Z M 13501,11264 C 13501,11022 13521,10929 13615,10738 13833,10295 14371,9860 14767,9807 L 14951,9782 15216,9256 C 15507,8678 15590,8397 15629,7839 15669,7270 15740,7376 15710,7960 15663,8878 15493,9579 15163,10213 14781,10946 14423,11415 14126,11568 13938,11665 13676,11689 13581,11617 13514,11566 13501,11511 13501,11264 Z M 13328,6514 C 13453,6123 13664,5644 13729,5604 13830,5541 13791,5694 13523,6424 13381,6809 13296,7446 13358,7661 13379,7732 13523,7929 13677,8099 14090,8552 14174,8727 14194,9179 14215,9636 14186,9794 14056,9949 13930,10099 13752,10110 13558,9979 12948,9569 12845,8019 13328,6514 Z M 14545,8736 C 14741,7982 14775,7293 14642,6742 14541,6320 14542,6309 14662,6309 14717,6309 14762,6319 14762,6332 14762,6344 14807,6553 14862,6797 14917,7040 14962,7333 14962,7446 14962,7791 14843,8583 14757,8813 14690,8993 14660,9030 14579,9030 14525,9030 14482,9019 14482,9005 14482,8992 14510,8871 14545,8736 Z M 12122,8420 C 12027,7915 12026,7556 12118,7129 12166,6909 12215,6661 12228,6579 12248,6446 12264,6429 12365,6429 12504,6429 12506,6461 12397,6773 12258,7170 12254,7767 12387,8539 12408,8662 12402,8670 12289,8670 12173,8670 12167,8661 12122,8420 Z"/>
    <rect fill="none" stroke="none" x="6038" y="5591" width="9693" height="15124"/>
   </g>
  </g>
 </g>
</svg>